<?xml version="1.0" standalone="no"?>
<!DOCTYPE svg PUBLIC "-//W3C//DTD SVG 1.1//EN" "http://www.w3.org/Graphics/SVG/1.1/DTD/svg11.dtd" >
<svg xmlns="http://www.w3.org/2000/svg" xmlns:xlink="http://www.w3.org/1999/xlink" version="1.1">
<metadata>
Created by FontForge 20170812 at Wed Sep 11 02:32:44 2013
 By www-data
Copyright (c) 2012 by TypeTogether. All rights reserved.
</metadata>
<defs>
<font id="BreeSerifSb" horiz-adv-x="535" >
  <font-face 
    font-family="Bree Serif Sb"
    font-weight="600"
    font-stretch="normal"
    units-per-em="1000"
    panose-1="2 0 5 3 4 0 0 2 0 4"
    ascent="750"
    descent="-250"
    x-height="507"
    cap-height="665"
    bbox="-125 -293 1000 1109"
    underline-thickness="50"
    underline-position="-100"
    stemh="84"
    stemv="139"
    unicode-range="U+000D-FB04"
  />
<missing-glyph horiz-adv-x="500" 
 />
    <glyph glyph-name="ij" unicode="ij" horiz-adv-x="581" 
d="M222 507v-421l52 -3v-83h-247v79l33 3c19 3 23 8 23 33v276c0 21 -5 28 -24 29l-33 3v84h196zM55 650c0 43 32 77 83 77c49 0 84 -30 84 -74c0 -47 -35 -79 -84 -79c-51 0 -83 32 -83 76zM510 507v-539c0 -87 -11 -184 -160 -184c-45 0 -102 13 -141 36l37 99
c24 -13 47 -19 70 -19c35 0 54 20 54 76v414c0 21 -5 29 -24 30l-33 3v84h197zM345 650c0 43 32 77 83 77s84 -30 84 -74c0 -47 -35 -79 -84 -79c-51 0 -83 32 -83 76z" />
    <glyph glyph-name="ff" unicode="ff" horiz-adv-x="676" 
d="M228 412v-327l60 -4v-81h-254v79l31 3c19 3 24 8 24 33v297h-67v95h67v28c0 97 38 178 170 178c41 0 93 -13 120 -28l-25 -92c-21 11 -43 16 -65 16c-44 0 -61 -23 -61 -74v-28h165v33c0 98 33 184 173 184c51 0 109 -16 148 -36l-33 -90c-30 14 -58 21 -85 21
c-43 0 -64 -22 -64 -75v-37h134v-95h-134v-325l80 -4v-83h-269v79l26 3c19 3 24 8 24 33v297h-165z" />
    <glyph glyph-name="fi" unicode="fi" horiz-adv-x="608" 
d="M532 507v-421l52 -3v-83h-237v81l26 3c15 1 20 8 20 29v299h-165v-325l59 -4v-83h-253v79l31 4c19 3 24 10 24 33v296h-67v95h67v38c0 88 32 179 197 179c85 0 160 -25 199 -42l-29 -91c-37 15 -96 33 -145 33c-51 0 -83 -16 -83 -79v-38h304z" />
    <glyph glyph-name="fl" unicode="fl" horiz-adv-x="604" 
d="M531 713v-627l53 -3v-83h-237v81l22 3c19 3 24 8 24 33v295h-165v-325l58 -4v-83h-252v79l30 4c19 3 25 7 25 32v297h-67v95h67v31c0 83 25 186 185 186c51 0 105 -15 137 -35l60 24h60zM228 538v-31h165v91c-27 15 -62 22 -91 22c-49 0 -74 -27 -74 -82z" />
    <glyph glyph-name="ffi" unicode="ffi" horiz-adv-x="912" 
d="M839 507v-421l52 -3v-83h-237v81l26 3c15 1 20 8 20 29v299h-165v-325l59 -4v-83h-253v79l31 4c19 3 24 10 24 33v296h-168v-327l60 -4v-81h-254v79l31 3c19 3 24 9 24 34v296h-67v95h67v28c0 97 38 178 170 178c41 0 93 -13 120 -28l-25 -92c-21 11 -43 16 -65 16
c-44 0 -61 -23 -61 -74v-28h168v38c0 88 32 179 197 179c85 0 160 -25 199 -42l-29 -91c-37 15 -96 33 -145 33c-51 0 -83 -16 -83 -79v-38h304z" />
    <glyph glyph-name="ffl" unicode="ffl" horiz-adv-x="908" 
d="M838 713v-627l53 -3v-83h-237v81l22 3c19 3 24 8 24 33v295h-165v-325l58 -4v-83h-252v79l30 4c19 3 25 7 25 32v297h-168v-327l60 -4v-81h-254v79l31 3c23 3 24 12 24 52v278h-67v95h67v28c0 97 38 178 170 178c41 0 93 -13 120 -28l-25 -92c-21 11 -43 16 -65 16
c-44 0 -61 -23 -61 -74v-28h168v31c0 83 25 186 185 186c51 0 105 -15 137 -35l60 24h60zM535 538v-31h165v91c-27 15 -62 22 -91 22c-49 0 -74 -27 -74 -82z" />
    <glyph glyph-name="t_t" unicode="tt" horiz-adv-x="708" 
d="M218 410v-239c0 -44 9 -76 57 -76c17 0 38 4 61 16l27 -92c-24 -15 -64 -33 -124 -33c-127 0 -162 71 -162 168v256h-68l12 86c72 13 99 66 120 126h77v-115h156c47 23 69 66 86 115h77v-115h124l-5 -97h-119v-239c0 -59 21 -75 61 -75c27 0 51 8 67 17l23 -95
c-28 -19 -76 -32 -128 -32c-156 0 -164 94 -164 179v245h-178z" />
    <glyph glyph-name=".notdef" horiz-adv-x="500" 
 />
    <glyph glyph-name=".null" horiz-adv-x="0" 
 />
    <glyph glyph-name=".null" horiz-adv-x="0" 
 />
    <glyph glyph-name="CR" unicode="&#xd;" horiz-adv-x="220" 
 />
    <glyph glyph-name="space" unicode=" " horiz-adv-x="195" 
 />
    <glyph glyph-name="thinspace" unicode="&#x2009;" horiz-adv-x="125" 
 />
    <glyph glyph-name="quotesingle" unicode="'" horiz-adv-x="204" 
d="M51 665h101l-10 -233h-81z" />
    <glyph glyph-name="quotedbl" unicode="&#x22;" horiz-adv-x="348" 
d="M51 665h101l-10 -233h-81zM195 665h102l-10 -233h-82z" />
    <glyph glyph-name="numbersign" unicode="#" horiz-adv-x="532" 
d="M285 0l13 155h-103l-13 -155h-79l13 155h-95v72h101l14 149h-96v71h102l14 158h79l-15 -158h104l14 158h79l-15 -158h97v-71h-103l-13 -149h97v-72h-103l-13 -155h-79zM215 376l-14 -149h104l13 149h-103z" />
    <glyph glyph-name="ampersand" unicode="&#x26;" horiz-adv-x="725" 
d="M476 228c8 17 18 44 18 67c0 13 -8 16 -21 19l-26 3v81h215v-82l-44 -6c-5 -71 -28 -118 -49 -153c44 -36 87 -68 116 -88l-77 -103c-33 23 -67 48 -114 85c-44 -39 -105 -65 -197 -65c-187 0 -252 102 -252 205c0 98 53 160 128 200c-23 33 -35 69 -35 108
c0 103 79 178 224 178c68 0 139 -15 188 -42v-146l-109 -10v53c0 15 -2 20 -11 27c-15 9 -43 10 -66 10c-58 0 -87 -25 -87 -75c0 -83 106 -184 199 -266zM174 202c0 -67 46 -113 122 -113c51 0 84 14 107 34c-59 43 -138 127 -176 181c-27 -21 -53 -47 -53 -102z" />
    <glyph glyph-name="asterisk" unicode="*" horiz-adv-x="434" 
d="M35 580l5 43c5 45 40 51 72 28l86 -61l-35 151l41 11c44 11 62 -17 55 -56l-24 -107l129 78l23 -33c27 -37 4 -68 -33 -71l-108 -6l122 -90l-25 -35c-21 -29 -58 -28 -77 7l-52 99l-65 -131l-42 20c-36 17 -37 48 -9 71c25 19 57 41 86 61z" />
    <glyph glyph-name="comma" unicode="," horiz-adv-x="259" 
d="M206 -17l-79 -150l-73 25l41 128c7 23 0 30 -20 30h-33l22 102c21 5 40 7 59 7c67 1 99 -31 100 -76c1 -20 -4 -42 -17 -66z" />
    <glyph glyph-name="hyphen" unicode="-" horiz-adv-x="319" 
d="M27 233v106h262v-106h-262z" />
    <glyph glyph-name="period" unicode="." horiz-adv-x="238" 
d="M40 62c0 43 29 75 78 75c52 0 80 -30 80 -74c0 -43 -26 -76 -77 -76c-55 0 -81 31 -81 75z" />
    <glyph glyph-name="colon" unicode=":" horiz-adv-x="248" 
d="M45 434c0 43 29 75 78 75c52 0 80 -30 80 -74c0 -43 -26 -76 -77 -76c-55 0 -81 31 -81 75zM45 62c0 43 29 75 78 75c52 0 80 -30 80 -74c0 -43 -26 -76 -77 -76c-55 0 -81 31 -81 75z" />
    <glyph glyph-name="semicolon" unicode=";" horiz-adv-x="254" 
d="M202 -17l-79 -150l-73 25l41 128c7 23 0 30 -20 30h-33l22 102c21 5 40 7 59 7c67 1 99 -31 100 -76c1 -20 -4 -42 -17 -66zM59 434c0 43 29 75 78 75c52 0 80 -30 80 -74c0 -43 -26 -76 -77 -76c-55 0 -81 31 -81 75z" />
    <glyph glyph-name="question" unicode="?" horiz-adv-x="429" 
d="M273 511c0 40 -25 59 -64 59c-17 0 -33 0 -46 -4c-9 -2 -14 -10 -14 -24v-58l-109 8v145c41 19 114 40 183 40c136 0 183 -82 183 -151c0 -75 -29 -125 -102 -176c-60 -42 -73 -56 -73 -120v-48h-105l-7 72c-8 84 22 113 82 157c43 32 72 48 72 100zM107 58
c0 39 30 71 74 71c48 0 76 -30 76 -71c0 -37 -27 -72 -74 -72c-49 0 -76 32 -76 72z" />
    <glyph glyph-name="exclam" unicode="!" horiz-adv-x="277" 
d="M77 512v113c0 28 16 52 63 52c48 0 64 -23 64 -54v-111l-22 -330h-83zM63 58c0 37 30 71 74 71c49 0 77 -31 77 -71c0 -39 -27 -73 -74 -73c-51 0 -77 33 -77 73z" />
    <glyph glyph-name="exclamdown" unicode="&#xa1;" horiz-adv-x="277" 
d="M205 -8v-113c0 -28 -16 -52 -63 -52c-48 0 -64 23 -64 54v111l22 330h83zM219 446c0 -37 -30 -71 -74 -71c-49 0 -77 31 -77 71c0 39 27 73 74 73c51 0 77 -33 77 -73z" />
    <glyph glyph-name="questiondown" unicode="&#xbf;" horiz-adv-x="422" 
d="M164 -7c0 -40 25 -59 64 -59c17 0 33 0 46 4c9 2 14 10 14 24v58l109 -8v-145c-41 -19 -114 -40 -183 -40c-136 0 -183 82 -183 151c0 75 29 125 102 176c60 42 73 56 73 120v48h105l7 -72c8 -84 -22 -113 -82 -157c-43 -32 -72 -48 -72 -100zM330 446
c0 -39 -30 -71 -74 -71c-48 0 -76 30 -76 71c0 37 27 72 74 72c49 0 76 -32 76 -72z" />
    <glyph glyph-name="at" unicode="@" horiz-adv-x="951" 
d="M787 281c0 166 -90 278 -288 278c-222 0 -331 -149 -331 -341c0 -188 101 -326 289 -326c51 0 99 6 151 29l27 -82c-51 -22 -112 -33 -181 -33c-276 0 -389 200 -389 408c0 280 193 434 439 434c221 0 382 -125 382 -362c0 -189 -104 -286 -247 -286h-68l-7 52
c-3 0 -3 1 -4 1c-19 -29 -49 -55 -112 -55c-124 0 -159 95 -159 202c0 144 76 237 217 237c28 0 89 -7 152 -30v-326c69 3 129 54 129 200zM545 159v188c-11 4 -30 9 -49 9c-69 0 -95 -66 -95 -150c0 -56 16 -125 75 -125c56 0 69 43 69 78z" />
    <glyph glyph-name="A" unicode="A" horiz-adv-x="676" 
d="M246 0h-236v84l25 3c23 3 28 11 33 30l154 455l-53 5v88h245l202 -574l50 -4v-87h-257v84l32 3c19 3 23 11 16 30l-22 63h-209l-31 -90l51 -3v-87zM329 537l-83 -262h169l-82 262h-4z" />
    <glyph glyph-name="B" unicode="B" horiz-adv-x="619" 
d="M39 665h293c116 0 220 -35 220 -159c0 -76 -40 -124 -103 -148c83 -16 136 -73 136 -157c0 -132 -91 -201 -262 -201h-286v84l31 3c19 3 24 7 24 30v457l-53 4v87zM235 298v-198h80c88 0 118 42 118 103c0 64 -42 95 -115 95h-83zM235 569v-177h62c76 0 108 35 108 94
c0 63 -41 83 -104 83h-66z" />
    <glyph glyph-name="C" unicode="C" horiz-adv-x="610" 
d="M431 556c-19 5 -45 8 -65 8c-117 0 -178 -79 -178 -224c0 -140 49 -238 182 -238c20 0 48 2 65 7c15 4 18 12 18 29v69l109 -8v-171c-51 -27 -124 -41 -201 -41c-204 0 -321 114 -321 341c0 262 157 349 317 349c71 0 147 -13 200 -40v-167l-109 -8v66c0 16 -2 24 -17 28
z" />
    <glyph glyph-name="D" unicode="D" horiz-adv-x="676" 
d="M37 0v84l30 3c17 3 25 7 25 28v459l-53 4v87h277c194 0 318 -100 318 -310c0 -260 -150 -355 -314 -355h-283zM235 563v-460h76c113 0 178 71 178 236c0 184 -80 224 -179 224h-75z" />
    <glyph glyph-name="E" unicode="E" horiz-adv-x="557" 
d="M33 0v83l23 3c31 3 36 5 36 34v454l-53 4v87h470v-162l-110 -8v44c0 19 -6 26 -25 26h-139v-173h234v-104h-234v-189h150c19 0 25 7 25 27v51l109 -8v-169h-486z" />
    <glyph glyph-name="F" unicode="F" horiz-adv-x="553" 
d="M37 0v83l30 4c20 3 25 8 25 31v456l-53 3v88h493v-162l-109 -8v42c0 19 -6 28 -26 28h-162v-183h246v-105h-246v-186l77 -4v-87h-275z" />
    <glyph glyph-name="G" unicode="G" horiz-adv-x="663" 
d="M351 99c33 0 72 8 96 19v142l-64 3v87h250v-84l-27 -3c-17 -3 -25 -9 -25 -28v-183c-56 -39 -142 -64 -234 -64c-193 0 -307 111 -307 343c0 258 157 346 330 346c83 0 161 -18 206 -41v-166l-109 -8v65c0 16 -2 24 -17 29c-19 4 -47 7 -74 7c-131 0 -188 -90 -188 -226
c0 -151 48 -238 163 -238z" />
    <glyph glyph-name="H" unicode="H" horiz-adv-x="729" 
d="M92 119v455l-53 3v88h253v-85l-31 -3c-19 -3 -25 -6 -25 -29v-156h257v182l-50 4v87h248v-84l-29 -3c-19 -3 -25 -8 -25 -31v-456l52 -4v-87h-252v84l31 4c19 3 25 8 25 31v168h-257v-197l52 -4v-86h-251v84l30 3c19 3 25 8 25 32z" />
    <glyph glyph-name="I" unicode="I" horiz-adv-x="328" 
d="M92 120v455l-54 3v87h254v-84l-32 -3c-19 -3 -24 -8 -24 -31v-456l53 -4v-87h-253v84l30 3c19 3 26 8 26 33z" />
    <glyph glyph-name="J" unicode="J" horiz-adv-x="503" 
d="M421 549v-316c0 -29 -1 -77 -6 -109c-15 -89 -72 -137 -199 -137c-73 0 -145 17 -182 36v174l110 8v-75c0 -17 1 -24 16 -28c12 -5 34 -7 47 -7c59 0 70 36 70 88v391l-64 4v87h264v-84l-31 -3c-19 -3 -25 -6 -25 -29z" />
    <glyph glyph-name="K" unicode="K" horiz-adv-x="651" 
d="M276 0h-239v84l31 4c19 3 23 9 23 28v458l-53 3v88h246v-85l-26 -2c-17 -3 -24 -8 -24 -27v-203l191 225v3l-45 3v86h225v-84l-27 -3c-19 -3 -27 -12 -40 -27l-129 -156l173 -305l55 -3v-87h-273v84l35 4c19 3 19 14 11 27l-98 174l-78 -91v-109l42 -3v-86z" />
    <glyph glyph-name="L" unicode="L" horiz-adv-x="552" 
d="M92 119v456l-54 3v87h258v-83l-35 -4c-19 -3 -26 -9 -26 -33v-446h145c21 1 27 7 27 27v66l109 -8v-184h-480v84l31 4c19 3 25 7 25 31z" />
    <glyph glyph-name="M" unicode="M" horiz-adv-x="861" 
d="M64 665h220l147 -423h3l153 423h221v-84l-30 -3c-19 -3 -29 -12 -26 -33l31 -455l51 -3v-87h-239v84l31 3c19 3 23 9 22 34l-17 334h-3l-145 -384h-105l-141 379h-2l-20 -360l50 -3v-87h-238v84l31 3c19 3 24 10 27 35l32 453l-53 3v87z" />
    <glyph glyph-name="N" unicode="N" horiz-adv-x="717" 
d="M632 547v-547h-132l-271 447h-2v-357l56 -4v-86h-247v84l32 3c17 3 24 6 24 29v459l-53 3v87h193l264 -441h2v351l-56 3v87h246v-84l-32 -4c-19 -3 -24 -7 -24 -30z" />
    <glyph glyph-name="O" unicode="O" horiz-adv-x="668" 
d="M629 331c0 -228 -117 -344 -298 -344c-184 0 -292 116 -292 344c0 256 159 346 304 346c153 0 286 -93 286 -346zM187 337c0 -105 22 -229 151 -229c114 0 143 108 143 220c0 93 -23 227 -146 227c-112 0 -148 -108 -148 -218z" />
    <glyph glyph-name="P" unicode="P" horiz-adv-x="604" 
d="M37 0v84l32 3c19 3 23 8 23 31v456l-53 3v88h291c152 0 243 -71 243 -207c0 -153 -110 -230 -265 -230h-73v-137l92 -4v-87h-290zM235 328h60c79 0 130 31 130 119c0 97 -50 116 -133 116h-57v-235z" />
    <glyph glyph-name="Q" unicode="Q" horiz-adv-x="668" 
d="M629 331c0 -174 -72 -302 -212 -324v-5c90 -8 173 -66 259 -66c12 0 25 1 38 3l-16 -113c-12 -1 -24 -2 -35 -2c-147 0 -228 97 -343 97c-23 0 -40 -2 -61 -6l14 77c-149 23 -234 136 -234 339c0 256 159 346 304 346c153 0 286 -93 286 -346zM187 337
c0 -105 22 -229 151 -229c114 0 143 108 143 220c0 93 -23 227 -146 227c-112 0 -148 -108 -148 -218z" />
    <glyph glyph-name="R" unicode="R" horiz-adv-x="647" 
d="M37 0v84l31 3c19 3 24 8 24 32v455l-53 3v88h282c149 0 250 -48 250 -182c0 -102 -62 -153 -133 -174c40 -11 56 -36 72 -67l77 -152l46 -3v-87h-251v84l32 3c16 2 20 12 11 29l-48 94c-15 31 -29 46 -70 46h-72v-167l44 -3v-86h-242zM235 351h80c69 0 109 37 109 112
c0 81 -43 100 -129 100h-60v-212z" />
    <glyph glyph-name="S" unicode="S" horiz-adv-x="543" 
d="M246 98c58 0 109 20 109 88c0 57 -49 76 -115 95c-90 24 -189 64 -189 194c0 128 95 202 239 202c72 0 144 -14 193 -38v-159l-109 -8v58c0 16 -2 24 -17 29c-15 4 -41 7 -64 7c-48 0 -93 -18 -93 -74c0 -58 48 -73 120 -97c91 -29 187 -62 187 -195
c0 -136 -93 -213 -254 -213c-68 0 -145 9 -205 37v166l111 8v-63c0 -16 1 -24 16 -28c15 -5 44 -9 71 -9z" />
    <glyph glyph-name="T" unicode="T" horiz-adv-x="603" 
d="M231 119v446h-77c-20 0 -25 -9 -25 -26v-62l-109 8v180h563v-180l-109 -8v61c0 19 -5 27 -26 27h-74v-474l72 -4v-87h-288v82l46 5c21 3 27 8 27 32z" />
    <glyph glyph-name="U" unicode="U" horiz-adv-x="681" 
d="M597 547v-348c0 -133 -105 -212 -257 -212c-168 0 -257 68 -257 228v359l-53 3v88h253v-85l-32 -3c-17 -3 -24 -6 -24 -29v-336c0 -92 50 -118 122 -118c71 0 115 34 115 113v368l-49 3v87h237v-84l-30 -3c-17 -3 -25 -8 -25 -31z" />
    <glyph glyph-name="V" unicode="V" horiz-adv-x="646" 
d="M211 540l120 -394h2l130 428l-51 4v87h229v-84l-22 -2c-17 -3 -25 -9 -33 -32l-176 -547h-166l-191 572l-50 5v88h259v-85l-30 -3c-21 -3 -29 -12 -21 -37z" />
    <glyph glyph-name="W" unicode="W" horiz-adv-x="899" 
d="M834 546l-124 -546h-155l-102 429h-4l-100 -429h-158l-132 572l-49 5v88h250v-85l-29 -3c-19 -3 -28 -12 -24 -35l76 -362h2l98 433h143l98 -424h3l80 385l-53 4v87h235v-84l-22 -2c-19 -3 -28 -9 -33 -33z" />
    <glyph glyph-name="X" unicode="X" horiz-adv-x="640" 
d="M404 118l-92 137h-3l-112 -165l46 -4v-86h-235v84l20 3c16 3 24 6 37 25l167 232l-156 229l-42 6v86h253v-84l-21 -2c-23 -3 -20 -18 -11 -31l77 -117l3 1l93 142l-39 4v87h217v-84l-20 -2c-19 -3 -23 -8 -38 -28l-141 -198l184 -263l43 -3v-87h-267v84l28 3
c16 3 20 15 9 31z" />
    <glyph glyph-name="Y" unicode="Y" horiz-adv-x="584" 
d="M219 118v131l-177 324l-40 4v88h257v-84l-26 -3c-21 -2 -26 -13 -15 -34l87 -176h2l105 206l-46 4v87h212v-84l-21 -2c-19 -3 -26 -12 -37 -32l-157 -294v-162l66 -4v-87h-279v83l41 4c20 3 28 7 28 31z" />
    <glyph glyph-name="Z" unicode="Z" horiz-adv-x="563" 
d="M37 0v96l312 470h-170c-23 0 -28 -8 -28 -29v-68l-110 8v188h473v-96l-312 -471h190c20 0 27 7 27 28v69l110 -8v-187h-492z" />
    <glyph glyph-name="a" unicode="a" horiz-adv-x="560" 
d="M484 484v-374c0 -20 5 -27 22 -28l28 -2v-80h-162l-4 50l-4 1c-24 -37 -69 -64 -133 -64c-148 0 -200 108 -200 244c0 176 88 289 269 289c35 0 108 -7 184 -36zM346 166v241c-13 5 -37 10 -62 10c-87 0 -112 -84 -112 -179c0 -77 18 -149 90 -149c55 0 84 37 84 77z" />
    <glyph glyph-name="b" unicode="b" horiz-adv-x="560" 
d="M211 713v-241c29 31 74 48 123 48c119 0 191 -81 191 -241c0 -197 -93 -293 -249 -293c-72 0 -162 20 -204 43v569c0 19 -8 28 -25 29l-32 2v84h196zM211 351v-246c19 -9 44 -16 71 -16c64 0 102 50 102 169c0 85 -18 158 -98 158c-43 0 -75 -26 -75 -65z" />
    <glyph glyph-name="c" unicode="c" horiz-adv-x="479" 
d="M285 412c-69 0 -111 -50 -111 -157c0 -96 34 -157 114 -157c37 0 76 14 115 43l51 -92c-43 -35 -107 -63 -184 -63c-149 0 -238 88 -238 263c0 200 124 271 248 271c60 0 117 -13 160 -38v-150l-104 -7v54c0 16 -1 24 -16 28c-11 3 -23 5 -35 5z" />
    <glyph glyph-name="d" unicode="d" horiz-adv-x="561" 
d="M484 713v-601c0 -23 3 -28 22 -29l28 -3v-80h-162l-4 50l-4 1c-32 -47 -82 -64 -134 -64c-152 0 -198 117 -198 248c0 161 82 285 235 285c27 0 53 -4 79 -12v89c0 19 -8 28 -24 29l-33 3v84h195zM263 90c52 0 83 32 83 81v232c-16 8 -38 14 -65 14
c-81 0 -109 -78 -109 -169c0 -86 18 -158 91 -158z" />
    <glyph glyph-name="e" unicode="e" horiz-adv-x="488" 
d="M285 520c104 0 170 -46 170 -146c0 -143 -125 -180 -282 -175c5 -58 36 -106 113 -106c56 0 98 21 126 40l40 -95c-13 -8 -81 -52 -184 -52c-171 0 -236 110 -236 254c0 153 89 280 253 280zM333 367c0 37 -23 52 -55 52c-66 0 -103 -60 -106 -128c100 -4 161 13 161 76z
" />
    <glyph glyph-name="f" unicode="f" horiz-adv-x="372" 
d="M22 412v95h67v33c0 98 33 184 173 184c51 0 109 -16 148 -36l-33 -90c-30 14 -58 21 -85 21c-43 0 -64 -22 -64 -75v-37h134v-95h-134v-325l80 -4v-83h-274v79l31 3c19 3 24 8 24 33v297h-67z" />
    <glyph glyph-name="g" unicode="g" horiz-adv-x="551" 
d="M356 29v45c-24 -35 -69 -58 -125 -58c-137 0 -198 96 -198 237c0 168 95 267 260 267c45 0 122 -8 194 -37v-434c0 -120 -30 -263 -242 -263c-61 0 -142 11 -184 35v140l107 8v-45c0 -20 4 -27 21 -32c14 -5 31 -7 52 -7c84 0 115 45 115 144zM349 202v205
c-21 7 -44 11 -69 11c-72 0 -106 -63 -106 -159c0 -73 12 -142 91 -142c53 0 84 34 84 85z" />
    <glyph glyph-name="h" unicode="h" horiz-adv-x="583" 
d="M371 115v206c0 55 -12 87 -69 87c-52 0 -86 -41 -86 -96v-226l46 -3v-83h-240v79l30 3c19 3 25 8 25 33v482c0 21 -5 28 -24 29l-33 3v84h194v-274c33 61 90 81 142 81c113 0 155 -65 155 -170v-264l48 -3v-83h-243v79l30 3c19 3 25 8 25 33z" />
    <glyph glyph-name="i" unicode="i" horiz-adv-x="298" 
d="M222 507v-421l52 -3v-83h-247v79l33 3c19 3 23 8 23 33v276c0 21 -5 28 -24 29l-33 3v84h196zM55 650c0 43 32 77 83 77c49 0 84 -30 84 -74c0 -47 -35 -79 -84 -79c-51 0 -83 32 -83 76z" />
    <glyph glyph-name="j" unicode="j" horiz-adv-x="289" 
d="M218 507v-539c0 -87 -11 -184 -160 -184c-45 0 -102 13 -141 36l37 99c24 -13 47 -19 70 -19c35 0 54 20 54 76v414c0 21 -5 29 -24 30l-33 3v84h197zM53 650c0 43 32 77 83 77s84 -30 84 -74c0 -47 -35 -79 -84 -79c-51 0 -83 32 -83 76z" />
    <glyph glyph-name="k" unicode="k" horiz-adv-x="551" 
d="M216 211v-125l45 -3v-83h-239v79l32 3c17 3 23 8 23 31v484c0 21 -4 28 -23 29l-34 3v84h196v-406c61 8 132 51 132 97c0 13 -8 16 -21 19l-26 3v81h221v-82l-45 -6c-7 -48 -34 -98 -82 -137l91 -196l54 -3v-83h-168l-96 225c-20 -8 -39 -11 -60 -14z" />
    <glyph glyph-name="l" unicode="l" horiz-adv-x="291" 
d="M218 713v-627l52 -3v-83h-246v79l32 4c19 3 23 7 23 32v482c0 21 -5 28 -24 29l-33 3v84h196z" />
    <glyph glyph-name="m" unicode="m" horiz-adv-x="860" 
d="M81 114v277c0 21 -5 28 -24 29l-33 3v84h183v-69h2c25 47 71 82 147 82c51 0 105 -19 134 -84c29 53 79 84 148 84c97 0 150 -56 150 -172v-262h1l48 -3v-83h-243v79l30 3c19 3 25 8 25 32v206c0 53 -11 88 -67 88c-47 0 -78 -40 -78 -91v-231l48 -3v-83h-243v79l30 3
c19 3 25 8 25 32v205c0 52 -8 89 -65 89c-48 0 -80 -42 -80 -94v-228l46 -4v-82h-240v79l32 4c19 3 24 7 24 31z" />
    <glyph glyph-name="n" unicode="n" horiz-adv-x="587" 
d="M375 115v204c0 56 -12 89 -68 89c-55 0 -87 -44 -87 -95v-227l45 -3v-83h-240v79l32 3c19 3 24 8 24 31v278c0 21 -5 28 -24 29l-33 3v84h185v-68h2c27 47 75 81 150 81c99 0 154 -51 154 -170v-264l48 -3v-83h-243v79l30 3c19 3 25 8 25 33z" />
    <glyph glyph-name="o" unicode="o" horiz-adv-x="534" 
d="M32 252c0 212 136 268 242 268c76 0 228 -22 228 -254c0 -195 -100 -280 -244 -280c-143 0 -226 83 -226 266zM266 91c65 0 90 60 90 160c0 108 -21 165 -89 165c-65 0 -90 -56 -90 -148c0 -91 12 -177 89 -177z" />
    <glyph glyph-name="p" unicode="p" horiz-adv-x="561" 
d="M77 -92v484c0 19 -8 28 -24 29l-33 2v84h185v-62h2c31 55 87 75 143 75c117 0 180 -90 180 -251c0 -175 -73 -283 -214 -283c-36 0 -73 10 -100 25v-130l86 -5v-83h-280v79l31 4c19 3 24 7 24 32zM217 336v-222c20 -15 49 -24 74 -24c75 0 98 71 98 162
c0 82 -15 162 -88 162c-58 0 -84 -46 -84 -78z" />
    <glyph glyph-name="q" unicode="q" horiz-adv-x="550" 
d="M481 483v-604l52 -3v-83h-265v79l55 4c17 3 24 7 24 32v137c-21 -32 -64 -58 -129 -58c-134 0 -186 103 -186 249c0 173 91 284 262 284c43 0 111 -6 187 -37zM343 159v247c-18 7 -37 11 -56 11c-83 0 -115 -72 -115 -165c0 -76 8 -162 88 -162c53 0 83 36 83 69z" />
    <glyph glyph-name="r" unicode="r" horiz-adv-x="469" 
d="M296 408c-48 0 -77 -40 -77 -93v-228l83 -4v-83h-277v79l32 3c21 3 24 10 24 33v277c0 20 -6 27 -23 28l-34 3v84h183v-77h2c16 40 59 90 142 90c29 0 65 -5 92 -17v-180l-113 -8v66c0 16 -2 21 -9 24c-6 2 -14 3 -25 3z" />
    <glyph glyph-name="s" unicode="s" horiz-adv-x="457" 
d="M297 419c-15 5 -33 6 -49 6c-40 0 -70 -17 -70 -52c0 -45 43 -53 96 -69c73 -22 152 -45 152 -149c0 -108 -82 -169 -211 -169c-61 0 -138 13 -177 34v133l100 8v-45c0 -15 3 -21 15 -25c13 -5 34 -9 54 -9c47 0 78 15 78 58s-39 53 -95 66c-72 19 -148 42 -148 150
c0 107 89 164 209 164c55 0 115 -12 159 -36v-125l-99 -8v41c0 16 -2 23 -14 27z" />
    <glyph glyph-name="t" unicode="t" horiz-adv-x="388" 
d="M9 410l12 86c72 13 99 66 120 126h77v-115h124l-5 -97h-119v-239c0 -59 21 -75 61 -75c27 0 51 8 67 17l23 -95c-28 -19 -76 -32 -128 -32c-156 0 -164 94 -164 179v245h-68z" />
    <glyph glyph-name="u" unicode="u" horiz-adv-x="586" 
d="M508 507v-392c0 -23 3 -29 22 -32l27 -3v-80h-177v64h-3c-29 -51 -81 -78 -148 -78c-103 0 -155 57 -155 170v235c0 23 -7 28 -24 29l-28 3v84h192v-321c0 -59 11 -89 66 -89c52 0 89 41 89 98v196c0 21 -5 28 -24 29l-24 2v85h187z" />
    <glyph glyph-name="v" unicode="v" horiz-adv-x="561" 
d="M340 507h213v-83l-24 -2c-17 -3 -24 -6 -32 -29l-137 -393h-159l-147 418l-47 6v83h248v-85l-30 -3c-16 -2 -21 -11 -16 -27l80 -262h1l93 288l-43 3v86z" />
    <glyph glyph-name="w" unicode="w" horiz-adv-x="801" 
d="M352 494h121l93 -354h2l65 278l-48 3v86h209v-82l-29 -3c-19 -3 -23 -9 -28 -29l-103 -393h-144l-84 331h-1l-85 -331h-151l-113 419l-49 6v82h234v-83l-32 -3c-15 -2 -21 -11 -17 -26l63 -253h2z" />
    <glyph glyph-name="x" unicode="x" horiz-adv-x="519" 
d="M247 424l-20 -2c-15 -3 -18 -12 -9 -25l55 -75h2l72 98l-33 4v83h199v-83l-23 -2c-17 -3 -26 -9 -38 -24l-108 -142l126 -168l44 -6v-82h-239v81l24 3c15 3 16 13 7 26l-61 83h-1l-76 -108l38 -3v-82h-201v82l23 3c19 3 27 8 38 23l115 155l-119 156l-39 5v83h224v-83z
" />
    <glyph glyph-name="y" unicode="y" horiz-adv-x="549" 
d="M486 392l-145 -395c-51 -136 -98 -216 -219 -216c-49 0 -100 16 -131 35l33 100c24 -11 51 -21 88 -21c36 0 59 22 78 71l14 36l-153 416l-46 6v83h236v-84l-24 -3c-15 -2 -21 -11 -16 -28l76 -239h3l88 265l-45 3v86h218v-83l-22 -2c-20 -3 -26 -9 -33 -30z" />
    <glyph glyph-name="z" unicode="z" horiz-adv-x="485" 
d="M37 507h406v-78l-256 -338h129c20 0 28 5 28 28v43l105 -8v-154h-417v80l256 335h-117c-21 0 -29 -5 -29 -26v-45l-105 8v155z" />
    <glyph glyph-name="bracketleft" unicode="[" horiz-adv-x="315" 
d="M76 -172v892h223v-92h-95v-709h95v-91h-223z" />
    <glyph glyph-name="bracketright" unicode="]" horiz-adv-x="315" 
d="M15 720h222v-892h-222v91h94v709h-94v92z" />
    <glyph glyph-name="parenleft" unicode="(" horiz-adv-x="335" 
d="M60 266c0 155 51 320 136 468l110 -50c-69 -139 -107 -270 -107 -411c0 -143 39 -269 108 -406l-109 -54c-91 148 -138 298 -138 453z" />
    <glyph glyph-name="parenright" unicode=")" horiz-adv-x="335" 
d="M272 267c0 -155 -47 -305 -139 -454l-109 55c71 139 109 262 109 407c0 140 -38 272 -106 411l110 48c84 -147 135 -312 135 -467z" />
    <glyph glyph-name="braceleft" unicode="{" horiz-adv-x="338" 
d="M162 281c51 -17 68 -48 68 -119c0 -48 -12 -127 -12 -173c0 -45 5 -75 49 -75c11 0 24 1 39 4l11 -86c-32 -7 -63 -9 -86 -9c-100 0 -138 59 -138 131c0 44 5 101 10 176c4 68 -8 103 -64 108v86c56 5 69 38 66 111c-3 60 -7 112 -8 152c0 87 50 137 138 137
c23 0 54 -2 85 -10l-11 -85c-17 3 -28 5 -40 5c-43 0 -48 -26 -48 -71c0 -44 9 -109 9 -158c0 -64 -19 -104 -68 -124z" />
    <glyph glyph-name="braceright" unicode="}" horiz-adv-x="338" 
d="M171 281c-49 20 -68 60 -68 124c0 49 9 114 9 158c0 45 -5 71 -48 71c-12 0 -23 -2 -40 -5l-11 85c31 8 62 10 85 10c80 0 138 -41 138 -134c0 -43 -5 -91 -8 -155c-3 -73 10 -106 66 -111v-86c-56 -5 -68 -40 -64 -108c5 -75 10 -132 10 -176c0 -72 -38 -131 -138 -131
c-23 0 -54 2 -86 9l11 86c15 -3 28 -4 39 -4c44 0 49 30 49 75c0 46 -12 125 -12 173c0 71 17 102 68 119z" />
    <glyph glyph-name="backslash" unicode="\" horiz-adv-x="442" 
d="M13 717l120 43l301 -831l-120 -43z" />
    <glyph glyph-name="slash" unicode="/" horiz-adv-x="442" 
d="M133 -114l-119 44l300 830l121 -42z" />
    <glyph glyph-name="brokenbar" unicode="&#xa6;" horiz-adv-x="300" 
d="M89 -88v373h121v-373h-121zM89 402v345h121v-345h-121z" />
    <glyph glyph-name="bar" unicode="|" horiz-adv-x="299" 
d="M89 -88v835h121v-835h-121z" />
    <glyph glyph-name="asciicircum" unicode="^" horiz-adv-x="562" 
d="M519 299l-115 -18l-121 253l-120 -253l-114 18l188 380h96z" />
    <glyph glyph-name="underscore" unicode="_" horiz-adv-x="500" 
d="M0 -154v80h500v-80h-500z" />
    <glyph glyph-name="asciitilde" unicode="~" horiz-adv-x="643" 
d="M433 216c-90 0 -155 73 -211 73c-33 0 -59 -25 -88 -64l-83 63c39 63 90 114 159 114c83 0 143 -76 213 -76c31 0 58 17 86 64l83 -63c-39 -76 -95 -111 -159 -111z" />
    <glyph glyph-name="uni00A0" unicode="&#xa0;" horiz-adv-x="195" 
 />
    <glyph glyph-name="zero" unicode="0" horiz-adv-x="543" 
d="M276 657c144 0 234 -95 234 -329c0 -240 -87 -338 -241 -338c-157 0 -237 102 -237 334c0 231 99 333 244 333zM271 102c60 0 100 46 100 224c0 169 -38 217 -98 217c-64 0 -100 -53 -100 -229c0 -161 35 -212 98 -212z" />
    <glyph glyph-name="one" unicode="1" horiz-adv-x="462" 
d="M191 120v391l-127 -66l-43 78l198 121h112v-553l108 -5v-86h-363v83l89 5c19 3 26 5 26 32z" />
    <glyph glyph-name="two" unicode="2" horiz-adv-x="508" 
d="M243 657c136 0 216 -75 216 -183c0 -73 -35 -130 -91 -194l-160 -182h277v-98h-448v87l206 244c51 59 68 89 68 136c0 56 -37 79 -88 79c-27 0 -45 -4 -58 -7c-15 -5 -16 -13 -16 -29v-62l-110 8v156c47 25 121 45 204 45z" />
    <glyph glyph-name="three" unicode="3" horiz-adv-x="508" 
d="M44 461v151c60 29 132 45 208 45c139 0 201 -72 201 -160c0 -76 -42 -128 -95 -161c76 -24 104 -79 104 -151c0 -99 -68 -197 -228 -197c-91 0 -169 26 -209 53l41 105c45 -25 99 -46 155 -46c61 0 100 32 100 92c0 68 -48 84 -129 84h-47l10 93h96c29 17 59 53 59 104
s-32 73 -81 73c-25 0 -44 -3 -58 -8c-15 -5 -17 -12 -17 -28v-57z" />
    <glyph glyph-name="four" unicode="4" horiz-adv-x="540" 
d="M347 434h81v-166h86v-100h-87v-77l65 -5v-86h-270v84l44 4c19 3 26 7 26 31v50h-263v84l196 408l107 -53l-162 -340h123z" />
    <glyph glyph-name="five" unicode="5" horiz-adv-x="498" 
d="M70 300l42 344h203c21 0 26 7 26 27v40l109 -8v-159h-227l-20 -153c130 -8 251 -62 251 -200c0 -95 -59 -203 -239 -203c-74 0 -165 29 -202 56l42 103c39 -21 96 -47 156 -47c71 0 99 40 99 89c0 100 -148 111 -240 111z" />
    <glyph glyph-name="six" unicode="6" horiz-adv-x="527" 
d="M380 673l27 -105c-123 -19 -205 -83 -224 -198c37 25 88 42 135 42c109 0 173 -70 173 -194c0 -132 -76 -229 -224 -229c-160 0 -224 121 -224 288c0 180 73 364 337 396zM355 212c0 64 -26 99 -79 99c-35 0 -77 -17 -96 -36c-1 -120 21 -182 88 -182c52 0 87 38 87 119z
" />
    <glyph glyph-name="seven" unicode="7" horiz-adv-x="498" 
d="M336 544h-171c-19 0 -24 -7 -24 -27v-55l-109 8v174h451v-84l-255 -560h-150z" />
    <glyph glyph-name="eight" unicode="8" horiz-adv-x="508" 
d="M30 160c0 91 55 142 119 179c-52 27 -99 75 -99 146c0 98 80 171 211 171c149 0 199 -75 199 -150c0 -67 -43 -123 -96 -160c76 -39 120 -92 120 -168c0 -99 -69 -190 -233 -190c-173 0 -221 95 -221 172zM338 174c0 54 -49 82 -97 109c-42 -21 -84 -59 -84 -111
c0 -40 26 -84 93 -84c60 0 88 38 88 86zM261 566c-47 0 -77 -31 -77 -71s36 -72 87 -99c31 23 66 62 66 103s-32 67 -76 67z" />
    <glyph glyph-name="nine" unicode="9" horiz-adv-x="528" 
d="M143 -11l-27 104c128 16 212 67 231 182c-37 -27 -86 -41 -134 -41c-113 0 -176 69 -176 194c0 132 80 229 228 229c160 0 220 -121 220 -288c0 -179 -73 -356 -342 -380zM173 438c0 -64 24 -104 77 -104c43 0 77 17 97 36c3 121 -20 186 -87 186c-52 0 -87 -42 -87 -118
z" />
    <glyph glyph-name="dollar" unicode="$" horiz-adv-x="531" 
d="M240 113c55 0 106 17 106 82c0 54 -48 72 -113 88c-88 24 -185 57 -185 185c0 99 65 163 166 183v96h112v-91c55 -5 106 -15 145 -34v-150l-108 -8v55c0 15 -1 22 -16 27c-15 4 -40 7 -63 7c-46 0 -91 -18 -91 -71s48 -68 119 -89c87 -29 183 -63 183 -186
c0 -104 -62 -169 -169 -192v-123h-112v116c-60 3 -120 11 -169 34v156l109 8v-58c0 -15 1 -23 16 -27c15 -5 43 -8 70 -8z" />
    <glyph glyph-name="Euro" unicode="&#x20ac;" horiz-adv-x="548" 
d="M19 342v81h64c21 152 134 234 267 234c67 0 128 -19 169 -42v-149l-110 -8v49c0 16 -2 23 -15 28s-27 7 -41 7c-85 0 -123 -53 -131 -119h183v-81h-386zM19 210v81h386v-81h-183c8 -72 49 -109 130 -109c45 0 78 17 115 48l58 -88c-51 -47 -111 -74 -187 -74
c-156 0 -240 79 -256 223h-63z" />
    <glyph glyph-name="cent" unicode="&#xa2;" horiz-adv-x="501" 
d="M289 466c-69 0 -111 -46 -111 -153c0 -96 34 -152 114 -152c37 0 76 14 115 43l51 -92c-35 -27 -81 -51 -138 -60v-112h-112v115c-109 23 -172 104 -172 252c0 158 78 234 172 258v120h112v-113c47 -4 89 -16 124 -36v-150l-104 -7v54c0 16 -1 24 -16 28
c-11 3 -23 5 -35 5z" />
    <glyph glyph-name="sterling" unicode="&#xa3;" horiz-adv-x="573" 
d="M372 546c-61 0 -93 -35 -97 -106l-4 -62h169l-12 -87h-164c-11 -78 -14 -121 -84 -182l2 -3c19 7 60 19 92 19c53 0 103 -22 156 -22c25 0 53 2 85 13l-14 -114c-25 -7 -53 -10 -78 -10c-93 0 -159 34 -247 34c-43 0 -96 -12 -139 -32v108c43 20 82 61 90 133l6 55h-84
l12 88h77l4 60c13 168 107 219 222 219c57 0 118 -10 182 -41v-147l-109 -11v58c0 15 -3 20 -15 24c-11 4 -31 6 -50 6z" />
    <glyph glyph-name="yen" unicode="&#xa5;" horiz-adv-x="558" 
d="M64 287v82h103l-106 183l-42 4v88h251v-84l-27 -3c-19 -2 -24 -12 -15 -30l66 -131h2l77 157l-43 4v87h209v-84l-26 -3c-16 -3 -22 -11 -30 -27l-92 -161h107v-82h-146v-47h146v-82h-146v-67l68 -4v-87h-279v83l41 4c20 3 28 7 28 31v40h-146v82h146v47h-146z" />
    <glyph glyph-name="florin" unicode="&#x192;" horiz-adv-x="564" 
d="M73 278l17 111h112l12 71c19 108 53 197 200 197c56 0 114 -16 153 -39l-45 -89c-24 12 -58 22 -86 22c-45 0 -69 -21 -78 -70l-17 -92h143l-19 -111h-143l-50 -289c-19 -108 -55 -199 -209 -199c-47 0 -105 15 -144 38l44 90c24 -13 60 -23 88 -23c43 0 69 24 77 72
l55 311h-110z" />
    <glyph glyph-name="zero.tf" 
d="M272 657c144 0 232 -95 232 -329c0 -240 -84 -338 -239 -338c-157 0 -234 102 -234 334c0 231 97 333 241 333zM267 102c60 0 97 46 97 224c0 169 -35 217 -95 217c-64 0 -97 -53 -97 -229c0 -161 32 -212 95 -212z" />
    <glyph glyph-name="one.tf" 
d="M230 120v391l-127 -66l-43 78l198 121h112v-553l108 -5v-86h-363v83l89 5c19 3 26 5 26 32z" />
    <glyph glyph-name="two.tf" 
d="M251 657c136 0 216 -75 216 -183c0 -73 -35 -130 -91 -194l-160 -182h277v-98h-448v87l206 244c51 59 68 89 68 136c0 56 -37 79 -88 79c-27 0 -45 -4 -58 -7c-15 -5 -16 -13 -16 -29v-62l-110 8v156c47 25 121 45 204 45z" />
    <glyph glyph-name="three.tf" 
d="M54 461v151c60 29 132 45 208 45c139 0 201 -72 201 -160c0 -76 -42 -128 -95 -161c76 -24 104 -79 104 -151c0 -99 -68 -197 -228 -197c-91 0 -169 26 -209 53l41 105c45 -25 99 -46 155 -46c61 0 100 32 100 92c0 68 -48 84 -129 84h-47l10 93h96c29 17 59 53 59 104
s-32 73 -81 73c-25 0 -44 -3 -58 -8c-15 -5 -17 -12 -17 -28v-57z" />
    <glyph glyph-name="four.tf" 
d="M346 434h81v-166h86v-100h-87v-77l65 -5v-86h-270v84l44 4c19 3 26 7 26 31v50h-263v84l196 408l107 -53l-162 -340h123z" />
    <glyph glyph-name="five.tf" 
d="M87 300l42 344h203c21 0 26 7 26 27v40l109 -8v-159h-227l-20 -153c130 -8 251 -62 251 -200c0 -95 -59 -203 -239 -203c-74 0 -165 29 -202 56l42 103c39 -21 96 -47 156 -47c71 0 99 40 99 89c0 100 -148 111 -240 111z" />
    <glyph glyph-name="six.tf" 
d="M384 673l27 -105c-123 -19 -205 -83 -224 -198c37 25 88 42 135 42c109 0 173 -70 173 -194c0 -132 -76 -229 -224 -229c-160 0 -224 121 -224 288c0 180 73 364 337 396zM359 212c0 64 -26 99 -79 99c-35 0 -77 -17 -96 -36c-1 -120 21 -182 88 -182c52 0 87 38 87 119z
" />
    <glyph glyph-name="seven.tf" 
d="M352 544h-171c-19 0 -24 -7 -24 -27v-55l-109 8v174h451v-84l-255 -560h-150z" />
    <glyph glyph-name="eight.tf" 
d="M40 160c0 91 55 142 119 179c-52 27 -99 75 -99 146c0 98 80 171 211 171c149 0 199 -75 199 -150c0 -67 -43 -123 -96 -160c76 -39 120 -92 120 -168c0 -99 -69 -190 -233 -190c-173 0 -221 95 -221 172zM348 174c0 54 -49 82 -97 109c-42 -21 -84 -59 -84 -111
c0 -40 26 -84 93 -84c60 0 88 38 88 86zM271 566c-47 0 -77 -31 -77 -71s36 -72 87 -99c31 23 66 62 66 103s-32 67 -76 67z" />
    <glyph glyph-name="nine.tf" 
d="M146 -11l-27 104c128 16 212 67 231 182c-37 -27 -86 -41 -134 -41c-113 0 -176 69 -176 194c0 132 80 229 228 229c160 0 220 -121 220 -288c0 -179 -73 -356 -342 -380zM176 438c0 -64 24 -104 77 -104c43 0 77 17 97 36c3 121 -20 186 -87 186c-52 0 -87 -42 -87 -118
z" />
    <glyph glyph-name="dollar.tf" 
d="M237 113c55 0 106 17 106 82c0 54 -48 72 -113 88c-88 24 -185 57 -185 185c0 99 65 163 166 183v96h112v-91c55 -5 106 -15 145 -34v-150l-108 -8v55c0 15 -1 22 -16 27c-15 4 -40 7 -63 7c-46 0 -91 -18 -91 -71s48 -68 119 -89c87 -29 183 -63 183 -186
c0 -104 -62 -169 -169 -192v-123h-112v116c-60 3 -120 11 -169 34v156l109 8v-58c0 -15 1 -23 16 -27c15 -5 43 -8 70 -8z" />
    <glyph glyph-name="Euro.tf" 
d="M12 342v81h64c21 152 134 234 267 234c67 0 128 -19 169 -42v-149l-110 -8v49c0 16 -2 23 -15 28s-27 7 -41 7c-85 0 -123 -53 -131 -119h183v-81h-386zM12 210v81h386v-81h-183c8 -72 49 -109 130 -109c45 0 78 17 115 48l58 -88c-51 -47 -111 -74 -187 -74
c-156 0 -240 79 -256 223h-63z" />
    <glyph glyph-name="cent.tf" 
d="M312 466c-69 0 -111 -46 -111 -153c0 -96 34 -152 114 -152c37 0 76 14 115 43l51 -92c-35 -27 -81 -51 -138 -60v-112h-112v115c-109 23 -172 104 -172 252c0 158 78 234 172 258v120h112v-113c47 -4 89 -16 124 -36v-150l-104 -7v54c0 16 -1 24 -16 28
c-11 3 -23 5 -35 5z" />
    <glyph glyph-name="sterling.tf" 
d="M347 546c-61 0 -93 -35 -97 -106l-4 -62h169l-12 -87h-164c-11 -78 -14 -121 -84 -182l2 -3c19 7 60 19 92 19c53 0 103 -22 156 -22c25 0 53 2 85 13l-14 -114c-25 -7 -53 -10 -78 -10c-93 0 -159 34 -247 34c-43 0 -96 -12 -139 -32v108c43 20 82 61 90 133l6 55h-84
l12 88h77l4 60c13 168 107 219 222 219c57 0 118 -10 182 -41v-147l-109 -11v58c0 15 -3 20 -15 24c-11 4 -31 6 -50 6z" />
    <glyph glyph-name="yen.tf" 
d="M58 287v82h103l-106 183l-42 4v88h251v-84l-27 -3c-19 -2 -24 -12 -15 -30l66 -131h2l77 157l-43 4v87h209v-84l-26 -3c-16 -3 -22 -11 -30 -27l-92 -161h107v-82h-146v-47h146v-82h-146v-67l68 -4v-87h-279v83l41 4c20 3 28 7 28 31v40h-146v82h146v47h-146z" />
    <glyph glyph-name="florin.tf" horiz-adv-x="509" 
d="M46 278l17 111h112l12 71c19 108 53 197 200 197c56 0 114 -16 153 -39l-45 -89c-24 12 -58 22 -86 22c-45 0 -69 -21 -78 -70l-17 -92h143l-19 -111h-143l-50 -289c-19 -108 -55 -199 -209 -199c-47 0 -105 15 -144 38l44 90c24 -13 60 -23 88 -23c43 0 69 24 77 72
l55 311h-110z" />
    <glyph glyph-name="zero.osf" horiz-adv-x="539" 
d="M273 520c153 0 239 -84 239 -259c0 -179 -90 -275 -246 -275c-163 0 -239 106 -239 261c0 176 98 273 246 273zM268 90c58 0 102 45 102 169c0 111 -41 153 -100 153c-63 0 -102 -48 -102 -167c0 -104 40 -155 100 -155z" />
    <glyph glyph-name="one.osf" horiz-adv-x="480" 
d="M204 120v253l-126 -65l-42 78l198 121h111v-416l111 -5v-86h-372v83l94 6c19 1 26 4 26 31z" />
    <glyph glyph-name="two.osf" horiz-adv-x="514" 
d="M256 520c133 0 206 -61 206 -161c0 -80 -45 -132 -118 -184l-105 -76v-2h248v-97h-440v81l181 142c42 31 88 69 88 122c0 48 -34 66 -85 66c-21 0 -40 -3 -55 -6c-16 -4 -21 -11 -21 -30v-64l-110 8v157c44 23 124 44 211 44z" />
    <glyph glyph-name="three.osf" horiz-adv-x="488" 
d="M358 220c59 -55 93 -106 93 -167c0 -127 -114 -204 -371 -231l-25 106c157 21 253 53 253 125c0 35 -20 67 -51 98c-31 -12 -73 -25 -109 -32l-32 95c133 29 183 65 183 131c0 43 -26 64 -73 64c-19 0 -40 -3 -55 -7c-15 -5 -17 -12 -17 -28v-58l-109 8v150
c63 31 135 46 203 46c123 0 191 -64 191 -148c0 -56 -25 -109 -81 -152z" />
    <glyph glyph-name="four.osf" horiz-adv-x="532" 
d="M354 293h83v-184h87v-109h-87v-157h-140v157h-270v88l195 429l117 -55l-162 -353h120z" />
    <glyph glyph-name="five.osf" horiz-adv-x="476" 
d="M57 172l43 335h203c19 0 23 8 23 27v40l109 -8v-159h-223l-17 -131c135 -5 246 -56 246 -194c0 -145 -128 -238 -384 -263l-26 108c179 23 264 67 264 151c0 83 -95 97 -173 97c-24 0 -46 -2 -65 -3z" />
    <glyph glyph-name="six.osf" horiz-adv-x="538" 
d="M381 673l27 -105c-123 -19 -205 -83 -224 -198c37 25 88 42 135 42c109 0 173 -70 173 -194c0 -132 -76 -229 -224 -229c-160 0 -224 121 -224 288c0 180 73 364 337 396zM356 212c0 64 -26 99 -79 99c-35 0 -77 -17 -96 -36c-1 -120 21 -182 88 -182c52 0 87 38 87 119z
" />
    <glyph glyph-name="seven.osf" horiz-adv-x="508" 
d="M339 406h-170c-19 0 -24 -7 -24 -27v-55l-110 8v175h451v-84l-276 -582h-146z" />
    <glyph glyph-name="eight.osf" horiz-adv-x="540" 
d="M44 160c0 91 55 142 119 179c-52 27 -99 75 -99 146c0 98 80 171 211 171c149 0 199 -75 199 -150c0 -67 -43 -123 -96 -160c76 -39 120 -92 120 -168c0 -99 -69 -190 -233 -190c-173 0 -221 95 -221 172zM352 174c0 54 -49 82 -97 109c-42 -21 -84 -59 -84 -111
c0 -40 26 -84 93 -84c60 0 88 38 88 86zM275 566c-47 0 -77 -31 -77 -71s36 -72 87 -99c31 23 66 62 66 103s-32 67 -76 67z" />
    <glyph glyph-name="nine.osf" horiz-adv-x="537" 
d="M151 -148l-27 104c128 16 212 67 231 182c-37 -27 -86 -41 -134 -41c-113 0 -176 69 -176 194c0 132 80 229 228 229c160 0 220 -121 220 -288c0 -179 -73 -356 -342 -380zM181 301c0 -64 24 -104 77 -104c43 0 77 17 97 36c3 121 -20 186 -87 186
c-52 0 -87 -42 -87 -118z" />
    <glyph glyph-name="dollar.osf" 
d="M241 113c55 0 106 17 106 82c0 54 -48 72 -113 88c-88 24 -185 57 -185 185c0 99 65 163 166 183v96h112v-91c55 -5 106 -15 145 -34v-150l-108 -8v55c0 15 -1 22 -16 27c-15 4 -40 7 -63 7c-46 0 -91 -18 -91 -71s48 -68 119 -89c87 -29 183 -63 183 -186
c0 -104 -62 -169 -169 -192v-123h-112v116c-60 3 -120 11 -169 34v156l109 8v-58c0 -15 1 -23 16 -27c15 -5 43 -8 70 -8z" />
    <glyph glyph-name="Euro.osf" horiz-adv-x="550" 
d="M25 342v81h64c21 152 134 234 267 234c67 0 128 -19 169 -42v-149l-110 -8v49c0 16 -2 23 -15 28s-27 7 -41 7c-85 0 -123 -53 -131 -119h183v-81h-386zM25 210v81h386v-81h-183c8 -72 49 -109 130 -109c45 0 78 17 115 48l58 -88c-51 -47 -111 -74 -187 -74
c-156 0 -240 79 -256 223h-63z" />
    <glyph glyph-name="cent.osf" 
d="M314 401c-69 0 -111 -46 -111 -153c0 -96 34 -152 114 -152c37 0 76 14 115 43l51 -92c-35 -27 -81 -51 -138 -60v-112h-112v115c-109 23 -172 104 -172 252c0 158 78 234 172 258v120h112v-113c47 -4 89 -16 124 -36v-150l-104 -7v54c0 16 -1 24 -16 28
c-11 3 -23 5 -35 5z" />
    <glyph glyph-name="sterling.osf" horiz-adv-x="567" 
d="M371 546c-61 0 -93 -35 -97 -106l-4 -62h169l-12 -87h-164c-11 -78 -14 -121 -84 -182l2 -3c19 7 60 19 92 19c53 0 103 -22 156 -22c25 0 53 2 85 13l-14 -114c-25 -7 -53 -10 -78 -10c-93 0 -159 34 -247 34c-43 0 -96 -12 -139 -32v108c43 20 82 61 90 133l6 55h-84
l12 88h77l4 60c13 168 107 219 222 219c57 0 118 -10 182 -41v-147l-109 -11v58c0 15 -3 20 -15 24c-11 4 -31 6 -50 6z" />
    <glyph glyph-name="yen.osf" horiz-adv-x="542" 
d="M51 287v82h103l-106 183l-42 4v88h251v-84l-27 -3c-19 -2 -24 -12 -15 -30l66 -131h2l77 157l-43 4v87h209v-84l-26 -3c-16 -3 -22 -11 -30 -27l-92 -161h107v-82h-146v-47h146v-82h-146v-67l68 -4v-87h-279v83l41 4c20 3 28 7 28 31v40h-146v82h146v47h-146z" />
    <glyph glyph-name="florin.osf" horiz-adv-x="560" 
d="M81 278l17 111h112l12 71c19 108 53 197 200 197c56 0 114 -16 153 -39l-45 -89c-24 12 -58 22 -86 22c-45 0 -69 -21 -78 -70l-17 -92h143l-19 -111h-143l-50 -289c-19 -108 -55 -199 -209 -199c-47 0 -105 15 -144 38l44 90c24 -13 60 -23 88 -23c43 0 69 24 77 72
l55 311h-110z" />
    <glyph glyph-name="zero.tosf" unicode="&#xf81e;" 
d="M271 520c153 0 235 -84 235 -259c0 -179 -85 -275 -241 -275c-162 0 -235 106 -235 261c0 176 94 273 241 273zM267 90c57 0 97 45 97 169c0 111 -38 153 -95 153c-64 0 -97 -47 -97 -167c0 -104 34 -155 95 -155z" />
    <glyph glyph-name="one.tosf" unicode="&#xf81f;" 
d="M231 120v253l-126 -65l-42 78l198 121h111v-416l111 -5v-86h-372v83l94 6c19 1 26 4 26 31z" />
    <glyph glyph-name="two.tosf" unicode="&#xf820;" 
d="M265 520c133 0 206 -61 206 -161c0 -80 -45 -132 -118 -184l-105 -76v-2h248v-97h-440v81l181 142c42 31 88 69 88 122c0 48 -34 66 -85 66c-21 0 -40 -3 -55 -6c-16 -4 -21 -11 -21 -30v-64l-110 8v157c44 23 124 44 211 44z" />
    <glyph glyph-name="three.tosf" unicode="&#xf821;" 
d="M381 220c59 -55 93 -106 93 -167c0 -127 -114 -204 -371 -231l-25 106c157 21 253 53 253 125c0 35 -20 67 -51 98c-31 -12 -73 -25 -109 -32l-32 95c133 29 183 65 183 131c0 43 -26 64 -73 64c-19 0 -40 -3 -55 -7c-15 -5 -17 -12 -17 -28v-58l-109 8v150
c63 31 135 46 203 46c123 0 191 -64 191 -148c0 -56 -25 -109 -81 -152z" />
    <glyph glyph-name="four.tosf" unicode="&#xf822;" 
d="M347 293h83v-184h87v-109h-87v-157h-140v157h-270v88l195 429l117 -55l-162 -353h120z" />
    <glyph glyph-name="five.tosf" unicode="&#xf823;" 
d="M86 172l43 335h203c19 0 23 8 23 27v40l109 -8v-159h-223l-17 -131c135 -5 246 -56 246 -194c0 -145 -128 -238 -384 -263l-26 108c179 23 264 67 264 151c0 83 -95 97 -173 97c-24 0 -46 -2 -65 -3z" />
    <glyph glyph-name="six.tosf" unicode="&#xf824;" 
d="M386 673l27 -105c-123 -19 -205 -83 -224 -198c37 25 88 42 135 42c109 0 173 -70 173 -194c0 -132 -76 -229 -224 -229c-160 0 -224 121 -224 288c0 180 73 364 337 396zM361 212c0 64 -26 99 -79 99c-35 0 -77 -17 -96 -36c-1 -120 21 -182 88 -182c52 0 87 38 87 119z
" />
    <glyph glyph-name="seven.tosf" unicode="&#xf825;" 
d="M347 406h-170c-19 0 -24 -7 -24 -27v-55l-110 8v175h451v-84l-276 -582h-146z" />
    <glyph glyph-name="eight.tosf" unicode="&#xf826;" 
d="M41 160c0 91 55 142 119 179c-52 27 -99 75 -99 146c0 98 80 171 211 171c149 0 199 -75 199 -150c0 -67 -43 -123 -96 -160c76 -39 120 -92 120 -168c0 -99 -69 -190 -233 -190c-173 0 -221 95 -221 172zM349 174c0 54 -49 82 -97 109c-42 -21 -84 -59 -84 -111
c0 -40 26 -84 93 -84c60 0 88 38 88 86zM272 566c-47 0 -77 -31 -77 -71s36 -72 87 -99c31 23 66 62 66 103s-32 67 -76 67z" />
    <glyph glyph-name="nine.tosf" unicode="&#xf827;" 
d="M149 -148l-27 104c128 16 212 67 231 182c-37 -27 -86 -41 -134 -41c-113 0 -176 69 -176 194c0 132 80 229 228 229c160 0 220 -121 220 -288c0 -179 -73 -356 -342 -380zM179 301c0 -64 24 -104 77 -104c43 0 77 17 97 36c3 121 -20 186 -87 186
c-52 0 -87 -42 -87 -118z" />
    <glyph glyph-name="dollar.tosf" 
d="M233 113c55 0 106 17 106 82c0 54 -48 72 -113 88c-88 24 -185 57 -185 185c0 99 65 163 166 183v96h112v-91c55 -5 106 -15 145 -34v-150l-108 -8v55c0 15 -1 22 -16 27c-15 4 -40 7 -63 7c-46 0 -91 -18 -91 -71s48 -68 119 -89c87 -29 183 -63 183 -186
c0 -104 -62 -169 -169 -192v-123h-112v116c-60 3 -120 11 -169 34v156l109 8v-58c0 -15 1 -23 16 -27c15 -5 43 -8 70 -8z" />
    <glyph glyph-name="Euro.tosf" 
d="M26 342v81h64c21 152 134 234 267 234c67 0 128 -19 169 -42v-149l-110 -8v49c0 16 -2 23 -15 28s-27 7 -41 7c-85 0 -123 -53 -131 -119h183v-81h-386zM26 210v81h386v-81h-183c8 -72 49 -109 130 -109c45 0 78 17 115 48l58 -88c-51 -47 -111 -74 -187 -74
c-156 0 -240 79 -256 223h-63z" />
    <glyph glyph-name="cent.tosf" 
d="M317 402c-69 0 -111 -46 -111 -153c0 -96 34 -152 114 -152c37 0 76 14 115 43l51 -92c-35 -27 -81 -51 -138 -60v-112h-112v115c-109 23 -172 104 -172 252c0 158 78 234 172 258v120h112v-113c47 -4 89 -16 124 -36v-150l-104 -7v54c0 16 -1 24 -16 28
c-11 3 -23 5 -35 5z" />
    <glyph glyph-name="sterling.tosf" 
d="M367 546c-61 0 -93 -35 -97 -106l-4 -62h169l-12 -87h-164c-11 -78 -14 -121 -84 -182l2 -3c19 7 60 19 92 19c53 0 103 -22 156 -22c25 0 53 2 85 13l-14 -114c-25 -7 -53 -10 -78 -10c-93 0 -159 34 -247 34c-43 0 -96 -12 -139 -32v108c43 20 82 61 90 133l6 55h-84
l12 88h77l4 60c13 168 107 219 222 219c57 0 118 -10 182 -41v-147l-109 -11v58c0 15 -3 20 -15 24c-11 4 -31 6 -50 6z" />
    <glyph glyph-name="yen.tosf" 
d="M56 287v82h103l-106 183l-42 4v88h251v-84l-27 -3c-19 -2 -24 -12 -15 -30l66 -131h2l77 157l-43 4v87h209v-84l-26 -3c-16 -3 -22 -11 -30 -27l-92 -161h107v-82h-146v-47h146v-82h-146v-67l68 -4v-87h-279v83l41 4c20 3 28 7 28 31v40h-146v82h146v47h-146z" />
    <glyph glyph-name="florin.tosf" 
d="M68 278l17 111h112l12 71c19 108 53 197 200 197c56 0 114 -16 153 -39l-45 -89c-24 12 -58 22 -86 22c-45 0 -69 -21 -78 -70l-17 -92h143l-19 -111h-143l-50 -289c-19 -108 -55 -199 -209 -199c-47 0 -105 15 -144 38l44 90c24 -13 60 -23 88 -23c43 0 69 24 77 72
l55 311h-110z" />
    <glyph glyph-name="section" unicode="&#xa7;" horiz-adv-x="558" 
d="M351 122c17 15 30 33 30 60c0 67 -129 110 -186 153c-17 -15 -29 -33 -29 -56c0 -72 108 -98 185 -157zM309 663c59 0 133 -18 171 -37v-133l-104 -8v50c0 13 -4 21 -13 24c-12 5 -29 5 -42 5c-51 0 -77 -28 -77 -65c0 -108 262 -110 262 -283c0 -60 -26 -106 -86 -151
c20 -23 36 -54 36 -97c0 -76 -48 -174 -211 -174c-57 0 -138 16 -172 37v132l104 8v-47c0 -17 5 -23 16 -27c11 -3 28 -5 39 -5c52 0 77 31 77 72c0 106 -262 100 -262 285c0 60 34 111 86 144c-23 25 -34 61 -34 94c0 76 50 176 210 176z" />
    <glyph glyph-name="copyright" unicode="&#xa9;" horiz-adv-x="814" 
d="M763 332c0 -206 -149 -356 -361 -356c-218 0 -352 142 -352 350c0 201 145 351 352 351c213 0 361 -150 361 -345zM674 329c0 156 -116 271 -271 271c-158 0 -264 -117 -264 -274c0 -168 109 -272 264 -272c156 0 271 115 271 275zM409 206c41 0 68 19 96 42l43 -59
c-28 -29 -78 -58 -142 -58c-119 0 -177 77 -177 200c0 155 104 199 176 199c63 0 114 -30 150 -79l-54 -47c-24 27 -52 50 -96 50s-88 -22 -88 -122c0 -79 24 -126 92 -126z" />
    <glyph glyph-name="registered" unicode="&#xae;" horiz-adv-x="463" 
d="M286 464l37 -82h-49l-32 71c-4 9 -9 14 -16 14h-21v-85h-43v211h77c43 0 68 -19 68 -56c0 -31 -15 -49 -34 -58c7 -3 10 -10 13 -15zM205 502h19c24 0 36 10 36 31c0 23 -16 26 -39 26h-16v-57zM428 487c0 -113 -82 -192 -199 -192c-120 0 -194 80 -194 190
s80 192 194 192c117 0 199 -82 199 -190zM377 485c0 85 -63 147 -148 147c-88 0 -143 -60 -143 -147c0 -88 59 -147 143 -147c86 0 148 58 148 147z" />
    <glyph glyph-name="trademark" unicode="&#x2122;" horiz-adv-x="775" 
d="M474 665l74 -215h1l79 215h124v-58l-19 -2c-8 -1 -12 -7 -11 -17l14 -202l31 -1v-56h-139v54l17 3c11 1 17 7 17 20l-9 149h-1l-74 -200h-63l-73 198l-11 -166l33 -2v-56h-136v54l17 3c9 1 15 6 16 17l13 200l-29 2v60h129zM125 404v202h-39c-11 0 -11 -7 -11 -16v-30
l-56 4v101h301v-101l-56 -4v30c0 11 0 16 -15 16h-35v-219l40 -3v-55h-170v54l25 3c15 3 16 7 16 18z" />
    <glyph glyph-name="ordfeminine" unicode="&#xaa;" horiz-adv-x="429" 
d="M274 263v40h-4c-19 -24 -44 -47 -95 -47c-96 0 -131 78 -131 163c0 116 66 191 186 191c31 0 80 -5 132 -24v-240c0 -16 6 -21 19 -22l17 -2v-59h-124zM258 379v151c-11 3 -24 6 -40 6c-50 0 -70 -48 -70 -107s15 -99 59 -99c32 0 51 26 51 49z" />
    <glyph glyph-name="ordmasculine" unicode="&#xba;" horiz-adv-x="416" 
d="M207 332c39 0 58 33 58 100c0 69 -14 104 -59 104c-40 0 -56 -39 -56 -91c0 -61 10 -113 57 -113zM43 430c0 140 96 181 168 181c66 0 161 -29 161 -169c0 -121 -73 -186 -169 -186c-100 0 -160 62 -160 174z" />
    <glyph glyph-name="guillemotleft" unicode="&#xab;" horiz-adv-x="558" 
d="M453 458l53 -49l-114 -152l117 -146l-53 -49l-171 149c-17 15 -26 30 -26 47c0 19 7 33 27 50zM233 458l53 -49l-114 -152l117 -146l-53 -49l-171 149c-17 15 -26 30 -26 47c0 19 7 33 27 50z" />
    <glyph glyph-name="guillemotright" unicode="&#xbb;" horiz-adv-x="558" 
d="M315 62l-52 49l114 152l-117 146l53 49l171 -149c17 -15 26 -31 26 -47c0 -17 -9 -34 -27 -50zM95 62l-52 49l114 152l-117 146l53 49l171 -149c17 -15 26 -31 26 -47c0 -17 -9 -34 -27 -50z" />
    <glyph glyph-name="guilsinglleft" unicode="&#x2039;" horiz-adv-x="337" 
d="M233 458l53 -49l-114 -152l117 -146l-53 -49l-171 149c-17 15 -26 30 -26 47c0 19 7 33 27 50z" />
    <glyph glyph-name="guilsinglright" unicode="&#x203a;" horiz-adv-x="338" 
d="M95 62l-52 49l114 152l-117 146l53 49l171 -149c17 -15 26 -31 26 -47c0 -17 -9 -34 -27 -50z" />
    <glyph glyph-name="quoteleft" unicode="&#x2018;" horiz-adv-x="247" 
d="M63 615l63 125l77 -24l-35 -112c-7 -21 -1 -30 26 -30h26l-20 -96c-16 -3 -32 -6 -51 -6c-95 0 -129 59 -86 143z" />
    <glyph glyph-name="quoteright" unicode="&#x2019;" horiz-adv-x="247" 
d="M195 578l-62 -125l-77 25l35 111c7 23 -1 30 -26 30h-27l20 97c23 4 38 5 57 5c89 0 123 -62 80 -143z" />
    <glyph glyph-name="quotesinglbase" unicode="&#x201a;" horiz-adv-x="245" 
d="M193 -35l-62 -125l-77 25l35 111c7 23 -1 30 -26 30h-27l20 97c19 3 34 5 47 5c100 3 134 -58 90 -143z" />
    <glyph glyph-name="quotedblleft" unicode="&#x201c;" horiz-adv-x="451" 
d="M266 615l63 125l77 -24l-35 -112c-7 -21 -1 -30 26 -30h26l-20 -96c-16 -3 -32 -6 -51 -6c-95 0 -129 59 -86 143zM63 615l63 125l77 -24l-35 -112c-7 -21 -1 -30 26 -30h26l-20 -96c-16 -3 -32 -6 -51 -6c-95 0 -129 59 -86 143z" />
    <glyph glyph-name="quotedblright" unicode="&#x201d;" horiz-adv-x="451" 
d="M398 578l-62 -125l-77 25l35 111c7 23 -1 30 -26 30h-27l20 97c23 4 38 5 57 5c89 0 123 -62 80 -143zM195 578l-62 -125l-77 25l35 111c7 23 -1 30 -26 30h-27l20 97c23 4 38 5 57 5c89 0 123 -62 80 -143z" />
    <glyph glyph-name="quotedblbase" unicode="&#x201e;" horiz-adv-x="452" 
d="M400 -35l-62 -125l-77 25l35 111c7 23 -1 30 -26 30h-27l20 97c19 3 34 5 47 5c100 3 134 -58 90 -143zM193 -35l-62 -125l-77 25l35 111c7 23 -1 30 -26 30h-27l20 97c19 3 34 5 47 5c100 3 134 -58 90 -143z" />
    <glyph glyph-name="dagger" unicode="&#x2020;" horiz-adv-x="426" 
d="M60 458l-9 41c-8 33 14 58 45 51l91 -21l-25 132l34 8c44 11 66 -14 59 -42l-17 -100l133 28l10 -39c8 -33 -11 -59 -46 -52l-98 21l23 -204c3 -31 -17 -53 -60 -45l-42 10l28 240z" />
    <glyph glyph-name="daggerdbl" unicode="&#x2021;" horiz-adv-x="427" 
d="M60 462l-9 41c-8 33 14 58 45 51l91 -21l-25 124l34 8c44 9 66 -15 59 -43l-17 -91l132 28l9 -39c9 -33 -12 -59 -45 -52l-93 19v-103l124 29l10 -41c8 -35 -11 -57 -46 -50l-91 18l24 -124l-34 -8c-44 -11 -65 14 -60 42l17 92l-129 -26l-9 38c-8 35 14 60 45 53l91 -21
v104z" />
    <glyph glyph-name="bullet" unicode="&#x2022;" horiz-adv-x="500" 
d="M126 311c0 77 54 130 124 130c71 0 123 -50 123 -129c0 -77 -54 -130 -123 -130c-71 0 -124 49 -124 129z" />
    <glyph glyph-name="ellipsis" unicode="&#x2026;" horiz-adv-x="783" 
d="M585 62c0 43 29 75 78 75c52 0 80 -30 80 -74c0 -43 -26 -76 -77 -76c-55 0 -81 31 -81 75zM309 62c0 43 29 75 78 75c52 0 80 -30 80 -74c0 -43 -26 -76 -77 -76c-55 0 -81 31 -81 75zM40 62c0 43 29 75 78 75c52 0 80 -30 80 -74c0 -43 -26 -76 -77 -76
c-55 0 -81 31 -81 75z" />
    <glyph glyph-name="paragraph" unicode="&#xb6;" horiz-adv-x="569" 
d="M477 549v-463c0 -169 -43 -250 -257 -293l-29 116c118 27 152 68 152 159v497h-71v-352c-123 3 -229 66 -229 220c0 167 107 232 246 232h243v-84l-31 -3c-19 -1 -24 -6 -24 -29z" />
    <glyph glyph-name="periodcentered" unicode="&#xb7;" horiz-adv-x="311" 
d="M80 307c0 41 27 72 74 72c51 0 77 -28 77 -71c0 -41 -26 -74 -74 -74c-51 0 -77 30 -77 73z" />
    <glyph glyph-name="uni00AD" unicode="&#xad;" horiz-adv-x="322" 
d="M38 235v106h245v-106h-245z" />
    <glyph glyph-name="endash" unicode="&#x2013;" horiz-adv-x="500" 
d="M0 235v93h500v-93h-500z" />
    <glyph glyph-name="emdash" unicode="&#x2014;" horiz-adv-x="1000" 
d="M0 235v93h1000v-93h-1000z" />
    <glyph glyph-name="hyphen.case" horiz-adv-x="322" 
d="M29 269v106h262v-106h-262z" />
    <glyph glyph-name="Agrave" unicode="&#xc0;" horiz-adv-x="676" 
d="M246 0h-236v84l25 3c23 3 28 11 33 30l154 455l-53 5v88h245l202 -574l50 -4v-87h-257v84l32 3c19 3 23 11 16 30l-22 63h-209l-31 -90l51 -3v-87zM329 537l-83 -262h169l-82 262h-4zM236 911l168 -161l-33 -45l-155 79c-32 15 -43 32 -43 55c0 16 11 32 28 45z" />
    <glyph glyph-name="Aacute" unicode="&#xc1;" horiz-adv-x="676" 
d="M246 0h-236v84l25 3c23 3 28 11 33 30l154 455l-53 5v88h245l202 -574l50 -4v-87h-257v84l32 3c19 3 23 11 16 30l-22 63h-209l-31 -90l51 -3v-87zM329 537l-83 -262h169l-82 262h-4zM233 750l167 162l40 -33c15 -12 23 -22 23 -41c0 -23 -13 -39 -45 -54l-152 -79z" />
    <glyph glyph-name="Acircumflex" unicode="&#xc2;" horiz-adv-x="676" 
d="M246 0h-236v84l25 3c23 3 28 11 33 30l154 455l-53 5v88h245l202 -574l50 -4v-87h-257v84l32 3c19 3 23 11 16 30l-22 63h-209l-31 -90l51 -3v-87zM329 537l-83 -262h169l-82 262h-4zM193 704l-44 40l102 116c23 25 40 34 60 34c23 0 39 -11 68 -43l96 -106l-44 -41
l-120 86z" />
    <glyph glyph-name="Atilde" unicode="&#xc3;" horiz-adv-x="676" 
d="M246 0h-236v84l25 3c23 3 28 11 33 30l154 455l-53 5v88h245l202 -574l50 -4v-87h-257v84l32 3c19 3 23 11 16 30l-22 63h-209l-31 -90l51 -3v-87zM329 537l-83 -262h169l-82 262h-4zM194 728l-53 28c29 69 64 91 103 91c47 0 97 -28 133 -28c19 0 34 10 45 30l55 -30
c-23 -64 -54 -89 -101 -89c-43 0 -94 28 -131 28c-23 0 -35 -9 -51 -30z" />
    <glyph glyph-name="Adieresis" unicode="&#xc4;" horiz-adv-x="676" 
d="M246 0h-236v84l25 3c23 3 28 11 33 30l154 455l-53 5v88h245l202 -574l50 -4v-87h-257v84l32 3c19 3 23 11 16 30l-22 63h-209l-31 -90l51 -3v-87zM329 537l-83 -262h169l-82 262h-4zM340 789c0 40 30 72 77 72c45 0 76 -32 76 -72c0 -43 -30 -73 -77 -73s-76 30 -76 73z
M129 789c0 40 30 72 77 72c45 0 76 -32 76 -72c0 -43 -30 -73 -77 -73s-76 30 -76 73z" />
    <glyph glyph-name="Aring" unicode="&#xc5;" horiz-adv-x="676" 
d="M246 0h-236v84l25 3c23 3 28 11 33 30l154 455l-53 5v88h245l202 -574l50 -4v-87h-257v84l32 3c19 3 23 11 16 30l-22 63h-209l-31 -90l51 -3v-87zM329 537l-83 -262h169l-82 262h-4zM207 798c0 63 45 107 109 107c69 0 109 -46 109 -102c0 -65 -44 -111 -111 -111
c-69 0 -107 46 -107 106zM276 798c0 -27 13 -45 40 -45s39 18 39 45s-12 46 -39 46c-28 0 -40 -19 -40 -46z" />
    <glyph glyph-name="Aringacute" unicode="&#x1fa;" horiz-adv-x="676" 
d="M246 0h-236v84l25 3c23 3 28 11 33 30l154 455l-53 5v88h245l202 -574l50 -4v-87h-257v84l32 3c19 3 23 11 16 30l-22 63h-209l-31 -90l51 -3v-87zM329 537l-83 -262h169l-82 262h-4zM205 795c0 63 45 107 109 107c69 0 109 -46 109 -102c0 -65 -44 -111 -111 -111
c-69 0 -107 46 -107 106zM274 795c0 -27 13 -45 40 -45s39 18 39 45s-12 46 -39 46c-28 0 -40 -19 -40 -46zM226 947l167 162l40 -33c15 -12 23 -22 23 -41c0 -23 -13 -39 -45 -54l-152 -79z" />
    <glyph glyph-name="AE" unicode="&#xc6;" horiz-adv-x="849" 
d="M449 114l-23 66h-208l-30 -90l50 -3v-87h-236v84l28 3c15 3 23 5 28 22l157 463l-52 5v88h638v-162l-110 -8v44c0 19 -5 26 -25 26h-207l62 -173h240v-104h-222l65 -189h73c21 0 25 7 25 27v51l109 -8v-169h-409v84l28 3c15 1 26 8 19 27zM322 537l-83 -262h169l-84 262
h-2z" />
    <glyph glyph-name="AEacute" unicode="&#x1fc;" horiz-adv-x="846" 
d="M449 114l-23 66h-208l-30 -90l50 -3v-87h-236v84l28 3c15 3 23 5 28 22l157 463l-52 5v88h638v-162l-110 -8v44c0 19 -5 26 -25 26h-207l62 -173h240v-104h-222l65 -189h73c21 0 25 7 25 27v51l109 -8v-169h-409v84l28 3c15 1 26 8 19 27zM322 537l-83 -262h169l-84 262
h-2zM398 750l167 162l40 -33c15 -12 23 -22 23 -41c0 -23 -13 -39 -45 -54l-152 -79z" />
    <glyph glyph-name="Ccedilla" unicode="&#xc7;" horiz-adv-x="610" 
d="M431 556c-19 5 -45 8 -65 8c-117 0 -178 -79 -178 -224c0 -140 49 -238 182 -238c20 0 48 2 65 7c15 4 18 12 18 29v69l109 -8v-171c-48 -27 -115 -38 -187 -41l-11 -35c53 -3 94 -28 94 -79c0 -77 -69 -98 -125 -98c-37 0 -71 7 -94 18l18 60c15 -5 44 -13 67 -13
c33 0 50 11 50 32c0 29 -40 32 -91 32l30 86c-175 16 -273 129 -273 338c0 262 157 349 317 349c71 0 147 -13 200 -40v-167l-109 -8v66c0 16 -2 24 -17 28z" />
    <glyph glyph-name="Egrave" unicode="&#xc8;" horiz-adv-x="557" 
d="M33 0v83l23 3c31 3 36 5 36 34v454l-53 4v87h470v-162l-110 -8v44c0 19 -6 26 -25 26h-139v-173h234v-104h-234v-189h150c19 0 25 7 25 27v51l109 -8v-169h-486zM221 911l168 -161l-33 -45l-155 79c-32 15 -43 32 -43 55c0 16 11 32 28 45z" />
    <glyph glyph-name="Eacute" unicode="&#xc9;" horiz-adv-x="557" 
d="M33 0v83l23 3c31 3 36 5 36 34v454l-53 4v87h470v-162l-110 -8v44c0 19 -6 26 -25 26h-139v-173h234v-104h-234v-189h150c19 0 25 7 25 27v51l109 -8v-169h-486zM201 750l167 162l40 -33c15 -12 23 -22 23 -41c0 -23 -13 -39 -45 -54l-152 -79z" />
    <glyph glyph-name="Ecircumflex" unicode="&#xca;" horiz-adv-x="557" 
d="M33 0v83l23 3c31 3 36 5 36 34v454l-53 4v87h470v-162l-110 -8v44c0 19 -6 26 -25 26h-139v-173h234v-104h-234v-189h150c19 0 25 7 25 27v51l109 -8v-169h-486zM172 704l-44 40l102 116c23 25 40 34 60 34c23 0 39 -11 68 -43l96 -106l-44 -41l-120 86z" />
    <glyph glyph-name="Edieresis" unicode="&#xcb;" horiz-adv-x="557" 
d="M33 0v83l23 3c31 3 36 5 36 34v454l-53 4v87h470v-162l-110 -8v44c0 19 -6 26 -25 26h-139v-173h234v-104h-234v-189h150c19 0 25 7 25 27v51l109 -8v-169h-486zM313 789c0 40 30 72 77 72c45 0 76 -32 76 -72c0 -43 -30 -73 -77 -73s-76 30 -76 73zM102 789
c0 40 30 72 77 72c45 0 76 -32 76 -72c0 -43 -30 -73 -77 -73s-76 30 -76 73z" />
    <glyph glyph-name="Igrave" unicode="&#xcc;" horiz-adv-x="328" 
d="M92 120v455l-54 3v87h254v-84l-32 -3c-19 -3 -24 -8 -24 -31v-456l53 -4v-87h-253v84l30 3c19 3 26 8 26 33zM92 911l168 -161l-33 -45l-155 79c-32 15 -43 32 -43 55c0 16 11 32 28 45z" />
    <glyph glyph-name="Iacute" unicode="&#xcd;" horiz-adv-x="328" 
d="M92 120v455l-54 3v87h254v-84l-32 -3c-19 -3 -24 -8 -24 -31v-456l53 -4v-87h-253v84l30 3c19 3 26 8 26 33zM72 750l167 162l40 -33c15 -12 23 -22 23 -41c0 -23 -13 -39 -45 -54l-152 -79z" />
    <glyph glyph-name="Icircumflex" unicode="&#xce;" horiz-adv-x="328" 
d="M92 120v455l-54 3v87h254v-84l-32 -3c-19 -3 -24 -8 -24 -31v-456l53 -4v-87h-253v84l30 3c19 3 26 8 26 33zM47 704l-44 40l102 116c23 25 40 34 60 34c23 0 39 -11 68 -43l96 -106l-44 -41l-120 86z" />
    <glyph glyph-name="Idieresis" unicode="&#xcf;" horiz-adv-x="328" 
d="M92 120v455l-54 3v87h254v-84l-32 -3c-19 -3 -24 -8 -24 -31v-456l53 -4v-87h-253v84l30 3c19 3 26 8 26 33zM193 789c0 40 30 72 77 72c45 0 76 -32 76 -72c0 -43 -30 -73 -77 -73s-76 30 -76 73zM-18 789c0 40 30 72 77 72c45 0 76 -32 76 -72c0 -43 -30 -73 -77 -73
s-76 30 -76 73z" />
    <glyph glyph-name="Eth" unicode="&#xd0;" horiz-adv-x="684" 
d="M39 287v94h61v193l-53 4v87h277c194 0 318 -100 318 -310c0 -260 -150 -355 -314 -355h-283v84l30 3c17 3 25 7 25 28v172h-61zM243 563v-182h155v-94h-155v-184h76c113 0 178 71 178 236c0 184 -80 224 -179 224h-75z" />
    <glyph glyph-name="Ntilde" unicode="&#xd1;" horiz-adv-x="717" 
d="M632 547v-547h-132l-271 447h-2v-357l56 -4v-86h-247v84l32 3c17 3 24 6 24 29v459l-53 3v87h193l264 -441h2v351l-56 3v87h246v-84l-32 -4c-19 -3 -24 -7 -24 -30zM247 728l-53 28c29 69 64 91 103 91c47 0 97 -28 133 -28c19 0 34 10 45 30l55 -30
c-23 -64 -54 -89 -101 -89c-43 0 -94 28 -131 28c-23 0 -35 -9 -51 -30z" />
    <glyph glyph-name="Ograve" unicode="&#xd2;" horiz-adv-x="668" 
d="M629 331c0 -228 -117 -344 -298 -344c-184 0 -292 116 -292 344c0 256 159 346 304 346c153 0 286 -93 286 -346zM187 337c0 -105 22 -229 151 -229c114 0 143 108 143 220c0 93 -23 227 -146 227c-112 0 -148 -108 -148 -218zM280 911l168 -161l-33 -45l-155 79
c-32 15 -43 32 -43 55c0 16 11 32 28 45z" />
    <glyph glyph-name="Oacute" unicode="&#xd3;" horiz-adv-x="668" 
d="M629 331c0 -228 -117 -344 -298 -344c-184 0 -292 116 -292 344c0 256 159 346 304 346c153 0 286 -93 286 -346zM187 337c0 -105 22 -229 151 -229c114 0 143 108 143 220c0 93 -23 227 -146 227c-112 0 -148 -108 -148 -218zM233 750l167 162l40 -33
c15 -12 23 -22 23 -41c0 -23 -13 -39 -45 -54l-152 -79z" />
    <glyph glyph-name="Ocircumflex" unicode="&#xd4;" horiz-adv-x="668" 
d="M629 331c0 -228 -117 -344 -298 -344c-184 0 -292 116 -292 344c0 256 159 346 304 346c153 0 286 -93 286 -346zM187 337c0 -105 22 -229 151 -229c114 0 143 108 143 220c0 93 -23 227 -146 227c-112 0 -148 -108 -148 -218zM219 704l-44 40l102 116c23 25 40 34 60 34
c23 0 39 -11 68 -43l96 -106l-44 -41l-120 86z" />
    <glyph glyph-name="Otilde" unicode="&#xd5;" horiz-adv-x="668" 
d="M629 331c0 -228 -117 -344 -298 -344c-184 0 -292 116 -292 344c0 256 159 346 304 346c153 0 286 -93 286 -346zM187 337c0 -105 22 -229 151 -229c114 0 143 108 143 220c0 93 -23 227 -146 227c-112 0 -148 -108 -148 -218zM223 728l-53 28c29 69 64 91 103 91
c47 0 97 -28 133 -28c19 0 34 10 45 30l55 -30c-23 -64 -54 -89 -101 -89c-43 0 -94 28 -131 28c-23 0 -35 -9 -51 -30z" />
    <glyph glyph-name="Odieresis" unicode="&#xd6;" horiz-adv-x="668" 
d="M629 331c0 -228 -117 -344 -298 -344c-184 0 -292 116 -292 344c0 256 159 346 304 346c153 0 286 -93 286 -346zM187 337c0 -105 22 -229 151 -229c114 0 143 108 143 220c0 93 -23 227 -146 227c-112 0 -148 -108 -148 -218zM369 789c0 40 30 72 77 72
c45 0 76 -32 76 -72c0 -43 -30 -73 -77 -73s-76 30 -76 73zM158 789c0 40 30 72 77 72c45 0 76 -32 76 -72c0 -43 -30 -73 -77 -73s-76 30 -76 73z" />
    <glyph glyph-name="Oslash" unicode="&#xd8;" horiz-adv-x="668" 
d="M629 331c0 -228 -117 -344 -298 -344c-37 0 -70 4 -98 13l-52 -104l-98 46l55 110c-64 57 -99 150 -99 279c0 256 159 346 304 346c34 0 67 -5 98 -15l44 89l100 -45l-50 -99c57 -55 94 -143 94 -276zM187 337c0 -48 4 -99 21 -142l175 351c-14 6 -30 9 -48 9
c-112 0 -148 -108 -148 -218zM481 328c0 41 -5 89 -20 130l-171 -343c13 -5 29 -7 48 -7c114 0 143 108 143 220z" />
    <glyph glyph-name="Oslashacute" unicode="&#x1fe;" horiz-adv-x="668" 
d="M629 331c0 -228 -117 -344 -298 -344c-37 0 -70 4 -98 13l-52 -104l-98 46l55 110c-64 57 -99 150 -99 279c0 256 159 346 304 346c34 0 67 -5 98 -15l44 89l100 -45l-50 -99c57 -55 94 -143 94 -276zM187 337c0 -48 4 -99 21 -142l175 351c-14 6 -30 9 -48 9
c-112 0 -148 -108 -148 -218zM481 328c0 41 -5 89 -20 130l-171 -343c13 -5 29 -7 48 -7c114 0 143 108 143 220zM283 750l167 162l40 -33c15 -12 23 -22 23 -41c0 -23 -13 -39 -45 -54l-152 -79z" />
    <glyph glyph-name="Ugrave" unicode="&#xd9;" horiz-adv-x="681" 
d="M597 547v-348c0 -133 -105 -212 -257 -212c-168 0 -257 68 -257 228v359l-53 3v88h253v-85l-32 -3c-17 -3 -24 -6 -24 -29v-336c0 -92 50 -118 122 -118c71 0 115 34 115 113v368l-49 3v87h237v-84l-30 -3c-17 -3 -25 -8 -25 -31zM283 911l168 -161l-33 -45l-155 79
c-32 15 -43 32 -43 55c0 16 11 32 28 45z" />
    <glyph glyph-name="Uacute" unicode="&#xda;" horiz-adv-x="681" 
d="M597 547v-348c0 -133 -105 -212 -257 -212c-168 0 -257 68 -257 228v359l-53 3v88h253v-85l-32 -3c-17 -3 -24 -6 -24 -29v-336c0 -92 50 -118 122 -118c71 0 115 34 115 113v368l-49 3v87h237v-84l-30 -3c-17 -3 -25 -8 -25 -31zM247 750l167 162l40 -33
c15 -12 23 -22 23 -41c0 -23 -13 -39 -45 -54l-152 -79z" />
    <glyph glyph-name="Ucircumflex" unicode="&#xdb;" horiz-adv-x="681" 
d="M597 547v-348c0 -133 -105 -212 -257 -212c-168 0 -257 68 -257 228v359l-53 3v88h253v-85l-32 -3c-17 -3 -24 -6 -24 -29v-336c0 -92 50 -118 122 -118c71 0 115 34 115 113v368l-49 3v87h237v-84l-30 -3c-17 -3 -25 -8 -25 -31zM227 704l-44 40l102 116
c23 25 40 34 60 34c23 0 39 -11 68 -43l96 -106l-44 -41l-120 86z" />
    <glyph glyph-name="Udieresis" unicode="&#xdc;" horiz-adv-x="681" 
d="M597 547v-348c0 -133 -105 -212 -257 -212c-168 0 -257 68 -257 228v359l-53 3v88h253v-85l-32 -3c-17 -3 -24 -6 -24 -29v-336c0 -92 50 -118 122 -118c71 0 115 34 115 113v368l-49 3v87h237v-84l-30 -3c-17 -3 -25 -8 -25 -31zM371 789c0 40 30 72 77 72
c45 0 76 -32 76 -72c0 -43 -30 -73 -77 -73s-76 30 -76 73zM160 789c0 40 30 72 77 72c45 0 76 -32 76 -72c0 -43 -30 -73 -77 -73s-76 30 -76 73z" />
    <glyph glyph-name="Yacute" unicode="&#xdd;" horiz-adv-x="584" 
d="M219 118v131l-177 324l-40 4v88h257v-84l-26 -3c-21 -2 -26 -13 -15 -34l87 -176h2l105 206l-46 4v87h212v-84l-21 -2c-19 -3 -26 -12 -37 -32l-157 -294v-162l66 -4v-87h-279v83l41 4c20 3 28 7 28 31zM214 750l167 162l40 -33c15 -12 23 -22 23 -41
c0 -23 -13 -39 -45 -54l-152 -79z" />
    <glyph glyph-name="Thorn" unicode="&#xde;" horiz-adv-x="587" 
d="M234 146v-55l93 -4v-87h-294v84l32 4c20 3 24 8 24 33v454l-53 3v87h292v-84l-71 -4c-17 -1 -23 -6 -23 -25v-14h88c133 0 247 -33 247 -185c0 -145 -114 -207 -254 -207h-81zM234 246h57c80 0 130 21 130 95c0 88 -53 96 -136 96h-51v-191z" />
    <glyph glyph-name="germandbls" unicode="&#xdf;" horiz-adv-x="621" 
d="M378 85c7 -3 17 -2 22 -2c37 0 63 20 63 59c0 85 -162 76 -162 201c0 108 126 144 126 216c0 45 -41 62 -101 62c-71 0 -105 -34 -105 -98v-523h-195v79l32 4c19 3 24 8 24 31v404c0 104 44 206 249 206c159 0 228 -66 228 -150c0 -104 -128 -146 -128 -206
c0 -70 165 -75 165 -216c0 -108 -72 -166 -180 -166c-67 0 -131 18 -147 29v134l100 8v-57c0 -9 1 -12 9 -15z" />
    <glyph glyph-name="agrave" unicode="&#xe0;" horiz-adv-x="560" 
d="M484 484v-374c0 -20 5 -27 22 -28l28 -2v-80h-162l-4 50l-4 1c-24 -37 -69 -64 -133 -64c-148 0 -200 108 -200 244c0 176 88 289 269 289c35 0 108 -7 184 -36zM346 166v241c-13 5 -37 10 -62 10c-87 0 -112 -84 -112 -179c0 -77 18 -149 90 -149c55 0 84 37 84 77z
M250 798l121 -198l-43 -36l-132 114c-23 19 -30 37 -30 53c0 25 16 39 45 51z" />
    <glyph glyph-name="aacute" unicode="&#xe1;" horiz-adv-x="560" 
d="M484 484v-374c0 -20 5 -27 22 -28l28 -2v-80h-162l-4 50l-4 1c-24 -37 -69 -64 -133 -64c-148 0 -200 108 -200 244c0 176 88 289 269 289c35 0 108 -7 184 -36zM346 166v241c-13 5 -37 10 -62 10c-87 0 -112 -84 -112 -179c0 -77 18 -149 90 -149c55 0 84 37 84 77z
M203 600l120 198l47 -19c25 -11 37 -23 37 -46c0 -19 -11 -38 -32 -55l-129 -114z" />
    <glyph glyph-name="acircumflex" unicode="&#xe2;" horiz-adv-x="560" 
d="M484 484v-374c0 -20 5 -27 22 -28l28 -2v-80h-162l-4 50l-4 1c-24 -37 -69 -64 -133 -64c-148 0 -200 108 -200 244c0 176 88 289 269 289c35 0 108 -7 184 -36zM346 166v241c-13 5 -37 10 -62 10c-87 0 -112 -84 -112 -179c0 -77 18 -149 90 -149c55 0 84 37 84 77z
M166 564l-47 37l103 139c20 27 36 40 63 40s40 -10 61 -37l106 -142l-46 -38l-121 105z" />
    <glyph glyph-name="atilde" unicode="&#xe3;" horiz-adv-x="560" 
d="M484 484v-374c0 -20 5 -27 22 -28l28 -2v-80h-162l-4 50l-4 1c-24 -37 -69 -64 -133 -64c-148 0 -200 108 -200 244c0 176 88 289 269 289c35 0 108 -7 184 -36zM346 166v241c-13 5 -37 10 -62 10c-87 0 -112 -84 -112 -179c0 -77 18 -149 90 -149c55 0 84 37 84 77z
M181 597l-53 28c29 69 64 91 103 91c47 0 97 -28 133 -28c19 0 34 10 45 29l55 -30c-23 -63 -54 -88 -101 -88c-43 0 -94 27 -131 27c-23 0 -35 -8 -51 -29z" />
    <glyph glyph-name="adieresis" unicode="&#xe4;" horiz-adv-x="560" 
d="M484 484v-374c0 -20 5 -27 22 -28l28 -2v-80h-162l-4 50l-4 1c-24 -37 -69 -64 -133 -64c-148 0 -200 108 -200 244c0 176 88 289 269 289c35 0 108 -7 184 -36zM346 166v241c-13 5 -37 10 -62 10c-87 0 -112 -84 -112 -179c0 -77 18 -149 90 -149c55 0 84 37 84 77z
M321 650c0 40 30 72 77 72c45 0 76 -32 76 -72c0 -43 -30 -73 -77 -73s-76 30 -76 73zM114 650c0 40 30 72 77 72c45 0 76 -32 76 -72c0 -43 -30 -73 -77 -73s-76 30 -76 73z" />
    <glyph glyph-name="aring" unicode="&#xe5;" horiz-adv-x="560" 
d="M484 484v-374c0 -20 5 -27 22 -28l28 -2v-80h-162l-4 50l-4 1c-24 -37 -69 -64 -133 -64c-148 0 -200 108 -200 244c0 176 88 289 269 289c35 0 108 -7 184 -36zM346 166v241c-13 5 -37 10 -62 10c-87 0 -112 -84 -112 -179c0 -77 18 -149 90 -149c55 0 84 37 84 77z
M180 674c0 63 45 107 109 107c69 0 109 -46 109 -102c0 -65 -44 -111 -111 -111c-69 0 -107 46 -107 106zM249 674c0 -27 13 -45 40 -45s39 18 39 45s-12 46 -39 46c-28 0 -40 -19 -40 -46z" />
    <glyph glyph-name="aringacute" unicode="&#x1fb;" horiz-adv-x="560" 
d="M484 484v-374c0 -20 5 -27 22 -28l28 -2v-80h-162l-4 50l-4 1c-24 -37 -69 -64 -133 -64c-148 0 -200 108 -200 244c0 176 88 289 269 289c35 0 108 -7 184 -36zM346 166v241c-13 5 -37 10 -62 10c-87 0 -112 -84 -112 -179c0 -77 18 -149 90 -149c55 0 84 37 84 77z
M185 650c0 63 45 107 109 107c69 0 109 -46 109 -102c0 -65 -44 -111 -111 -111c-69 0 -107 46 -107 106zM254 650c0 -27 13 -45 40 -45s39 18 39 45s-12 46 -39 46c-28 0 -40 -19 -40 -46zM187 799l167 162l40 -33c15 -12 23 -22 23 -41c0 -23 -13 -39 -45 -54l-152 -79z
" />
    <glyph glyph-name="ae" unicode="&#xe6;" horiz-adv-x="764" 
d="M610 367c0 36 -24 52 -56 52c-69 0 -104 -64 -107 -131c99 -5 163 14 163 79zM309 241c0 60 15 113 44 160c-19 9 -44 16 -72 16c-81 0 -109 -80 -109 -171c0 -87 22 -157 93 -157c31 0 52 11 68 26c-17 36 -24 77 -24 126zM562 520c101 0 170 -48 170 -145
c0 -149 -133 -177 -283 -174c5 -65 44 -108 117 -108c51 0 95 21 123 40l40 -95c-13 -10 -84 -52 -182 -52c-77 0 -133 21 -169 60c-31 -32 -80 -60 -147 -60c-148 0 -200 116 -200 248c0 175 91 286 264 286c43 0 91 -11 138 -34c35 21 78 34 129 34z" />
    <glyph glyph-name="aeacute" unicode="&#x1fd;" horiz-adv-x="764" 
d="M610 367c0 36 -24 52 -56 52c-69 0 -104 -64 -107 -131c99 -5 163 14 163 79zM309 241c0 60 15 113 44 160c-19 9 -44 16 -72 16c-81 0 -109 -80 -109 -171c0 -87 22 -157 93 -157c31 0 52 11 68 26c-17 36 -24 77 -24 126zM562 520c101 0 170 -48 170 -145
c0 -149 -133 -177 -283 -174c5 -65 44 -108 117 -108c51 0 95 21 123 40l40 -95c-13 -10 -84 -52 -182 -52c-77 0 -133 21 -169 60c-31 -32 -80 -60 -147 -60c-148 0 -200 116 -200 248c0 175 91 286 264 286c43 0 91 -11 138 -34c35 21 78 34 129 34zM349 600l120 198
l47 -19c25 -11 37 -23 37 -46c0 -19 -11 -38 -32 -55l-129 -114z" />
    <glyph glyph-name="ccedilla" unicode="&#xe7;" horiz-adv-x="479" 
d="M285 412c-69 0 -111 -50 -111 -157c0 -96 34 -157 114 -157c37 0 76 14 115 43l51 -92c-39 -32 -98 -58 -167 -62l-11 -35c53 -3 94 -28 94 -79c0 -77 -69 -98 -125 -98c-37 0 -71 7 -94 18l18 60c15 -5 44 -13 67 -13c33 0 50 11 50 32c0 29 -40 32 -91 32l30 85
c-121 17 -193 103 -193 260c0 200 124 271 248 271c60 0 117 -13 160 -38v-150l-104 -7v54c0 16 -1 24 -16 28c-11 3 -23 5 -35 5z" />
    <glyph glyph-name="egrave" unicode="&#xe8;" horiz-adv-x="488" 
d="M285 520c104 0 170 -46 170 -146c0 -143 -125 -180 -282 -175c5 -58 36 -106 113 -106c56 0 98 21 126 40l40 -95c-13 -8 -81 -52 -184 -52c-171 0 -236 110 -236 254c0 153 89 280 253 280zM333 367c0 37 -23 52 -55 52c-66 0 -103 -60 -106 -128c100 -4 161 13 161 76z
M225 798l121 -198l-43 -36l-132 114c-23 19 -30 37 -30 53c0 25 16 39 45 51z" />
    <glyph glyph-name="eacute" unicode="&#xe9;" horiz-adv-x="488" 
d="M285 520c104 0 170 -46 170 -146c0 -143 -125 -180 -282 -175c5 -58 36 -106 113 -106c56 0 98 21 126 40l40 -95c-13 -8 -81 -52 -184 -52c-171 0 -236 110 -236 254c0 153 89 280 253 280zM333 367c0 37 -23 52 -55 52c-66 0 -103 -60 -106 -128c100 -4 161 13 161 76z
M189 600l120 198l47 -19c25 -11 37 -23 37 -46c0 -19 -11 -38 -32 -55l-129 -114z" />
    <glyph glyph-name="ecircumflex" unicode="&#xea;" horiz-adv-x="488" 
d="M285 520c104 0 170 -46 170 -146c0 -143 -125 -180 -282 -175c5 -58 36 -106 113 -106c56 0 98 21 126 40l40 -95c-13 -8 -81 -52 -184 -52c-171 0 -236 110 -236 254c0 153 89 280 253 280zM333 367c0 37 -23 52 -55 52c-66 0 -103 -60 -106 -128c100 -4 161 13 161 76z
M150 564l-47 37l103 139c20 27 36 40 63 40s40 -10 61 -37l106 -142l-46 -38l-121 105z" />
    <glyph glyph-name="edieresis" unicode="&#xeb;" horiz-adv-x="488" 
d="M285 520c104 0 170 -46 170 -146c0 -143 -125 -180 -282 -175c5 -58 36 -106 113 -106c56 0 98 21 126 40l40 -95c-13 -8 -81 -52 -184 -52c-171 0 -236 110 -236 254c0 153 89 280 253 280zM333 367c0 37 -23 52 -55 52c-66 0 -103 -60 -106 -128c100 -4 161 13 161 76z
M297 650c0 40 30 72 77 72c45 0 76 -32 76 -72c0 -43 -30 -73 -77 -73s-76 30 -76 73zM90 650c0 40 30 72 77 72c45 0 76 -32 76 -72c0 -43 -30 -73 -77 -73s-76 30 -76 73z" />
    <glyph glyph-name="igrave" unicode="&#xec;" horiz-adv-x="298" 
d="M92 798l121 -198l-43 -36l-132 114c-23 19 -30 37 -30 53c0 25 16 39 45 51zM222 507v-421l52 -3v-83h-247v79l33 3c19 3 23 8 23 33v276c0 21 -5 28 -24 29l-33 3v84h196z" />
    <glyph glyph-name="iacute" unicode="&#xed;" horiz-adv-x="298" 
d="M55 600l120 198l47 -19c25 -11 37 -23 37 -46c0 -19 -11 -38 -32 -55l-129 -114zM222 507v-421l52 -3v-83h-247v79l33 3c19 3 23 8 23 33v276c0 21 -5 28 -24 29l-33 3v84h196z" />
    <glyph glyph-name="icircumflex" unicode="&#xee;" horiz-adv-x="298" 
d="M222 507v-421l52 -3v-83h-247v79l33 3c19 3 23 8 23 33v276c0 21 -5 28 -24 29l-33 3v84h196zM16 564l-47 37l103 139c20 27 36 40 63 40s40 -10 61 -37l106 -142l-46 -38l-121 105z" />
    <glyph glyph-name="idieresis" unicode="&#xef;" horiz-adv-x="298" 
d="M165 650c0 40 30 72 77 72c45 0 76 -32 76 -72c0 -43 -30 -73 -77 -73s-76 30 -76 73zM-42 650c0 40 30 72 77 72c45 0 76 -32 76 -72c0 -43 -30 -73 -77 -73s-76 30 -76 73zM222 507v-421l52 -3v-83h-247v79l33 3c19 3 23 8 23 33v276c0 21 -5 28 -24 29l-33 3v84h196z
" />
    <glyph glyph-name="eth" unicode="&#xf0;" horiz-adv-x="515" 
d="M317 649l98 69l54 -77l-81 -55c65 -83 92 -193 92 -302c0 -170 -66 -300 -228 -300c-147 0 -222 85 -222 226c0 139 79 234 203 234c35 0 80 -8 116 -39c-19 55 -35 94 -62 125l-84 -53l-50 70l68 44c-39 20 -86 32 -114 37l31 88c73 -11 132 -34 179 -67zM166 208
c0 -81 29 -121 88 -121c60 0 97 59 97 172c0 17 -1 35 -3 53c-25 19 -61 32 -89 32c-70 0 -93 -62 -93 -136z" />
    <glyph glyph-name="ntilde" unicode="&#xf1;" horiz-adv-x="587" 
d="M375 115v204c0 56 -12 89 -68 89c-55 0 -87 -44 -87 -95v-227l45 -3v-83h-240v79l32 3c19 3 24 8 24 31v278c0 21 -5 28 -24 29l-33 3v84h185v-68h2c27 47 75 81 150 81c99 0 154 -51 154 -170v-264l48 -3v-83h-243v79l30 3c19 3 25 8 25 33zM179 597l-53 28
c29 69 64 91 103 91c47 0 97 -28 133 -28c19 0 34 10 45 29l55 -30c-23 -63 -54 -88 -101 -88c-43 0 -94 27 -131 27c-23 0 -35 -8 -51 -29z" />
    <glyph glyph-name="ograve" unicode="&#xf2;" horiz-adv-x="534" 
d="M32 252c0 212 136 268 242 268c76 0 228 -22 228 -254c0 -195 -100 -280 -244 -280c-143 0 -226 83 -226 266zM266 91c65 0 90 60 90 160c0 108 -21 165 -89 165c-65 0 -90 -56 -90 -148c0 -91 12 -177 89 -177zM238 798l121 -198l-43 -36l-132 114c-23 19 -30 37 -30 53
c0 25 16 39 45 51z" />
    <glyph glyph-name="oacute" unicode="&#xf3;" horiz-adv-x="534" 
d="M32 252c0 212 136 268 242 268c76 0 228 -22 228 -254c0 -195 -100 -280 -244 -280c-143 0 -226 83 -226 266zM266 91c65 0 90 60 90 160c0 108 -21 165 -89 165c-65 0 -90 -56 -90 -148c0 -91 12 -177 89 -177zM189 600l120 198l47 -19c25 -11 37 -23 37 -46
c0 -19 -11 -38 -32 -55l-129 -114z" />
    <glyph glyph-name="ocircumflex" unicode="&#xf4;" horiz-adv-x="534" 
d="M32 252c0 212 136 268 242 268c76 0 228 -22 228 -254c0 -195 -100 -280 -244 -280c-143 0 -226 83 -226 266zM266 91c65 0 90 60 90 160c0 108 -21 165 -89 165c-65 0 -90 -56 -90 -148c0 -91 12 -177 89 -177zM152 564l-47 37l103 139c20 27 36 40 63 40s40 -10 61 -37
l106 -142l-46 -38l-121 105z" />
    <glyph glyph-name="otilde" unicode="&#xf5;" horiz-adv-x="534" 
d="M32 252c0 212 136 268 242 268c76 0 228 -22 228 -254c0 -195 -100 -280 -244 -280c-143 0 -226 83 -226 266zM266 91c65 0 90 60 90 160c0 108 -21 165 -89 165c-65 0 -90 -56 -90 -148c0 -91 12 -177 89 -177zM153 597l-53 28c29 69 64 91 103 91c47 0 97 -28 133 -28
c19 0 34 10 45 29l55 -30c-23 -63 -54 -88 -101 -88c-43 0 -94 27 -131 27c-23 0 -35 -8 -51 -29z" />
    <glyph glyph-name="odieresis" unicode="&#xf6;" horiz-adv-x="534" 
d="M32 252c0 212 136 268 242 268c76 0 228 -22 228 -254c0 -195 -100 -280 -244 -280c-143 0 -226 83 -226 266zM266 91c65 0 90 60 90 160c0 108 -21 165 -89 165c-65 0 -90 -56 -90 -148c0 -91 12 -177 89 -177zM297 650c0 40 30 72 77 72c45 0 76 -32 76 -72
c0 -43 -30 -73 -77 -73s-76 30 -76 73zM90 650c0 40 30 72 77 72c45 0 76 -32 76 -72c0 -43 -30 -73 -77 -73s-76 30 -76 73z" />
    <glyph glyph-name="oslash" unicode="&#xf8;" horiz-adv-x="534" 
d="M348 511l37 72l81 -38l-38 -74c43 -36 74 -98 74 -205c0 -195 -100 -280 -244 -280c-29 0 -54 3 -76 10l-42 -83l-80 39l44 86c-47 43 -72 113 -72 214c0 212 136 268 242 268c20 0 47 -2 74 -9zM266 91c65 0 90 60 90 160c0 27 -2 51 -5 72l-117 -227c10 -3 21 -5 32 -5
zM267 416c-65 0 -90 -56 -90 -148c0 -28 1 -56 4 -80l115 223c-9 3 -18 5 -29 5z" />
    <glyph glyph-name="oslashacute" unicode="&#x1ff;" horiz-adv-x="534" 
d="M348 511l37 72l81 -38l-38 -74c43 -36 74 -98 74 -205c0 -195 -100 -280 -244 -280c-29 0 -54 3 -76 10l-42 -83l-80 39l44 86c-47 43 -72 113 -72 214c0 212 136 268 242 268c20 0 47 -2 74 -9zM266 91c65 0 90 60 90 160c0 27 -2 51 -5 72l-117 -227c10 -3 21 -5 32 -5
zM267 416c-65 0 -90 -56 -90 -148c0 -28 1 -56 4 -80l115 223c-9 3 -18 5 -29 5zM213 600l120 198l47 -19c25 -11 37 -23 37 -46c0 -19 -11 -38 -32 -55l-129 -114z" />
    <glyph glyph-name="ugrave" unicode="&#xf9;" horiz-adv-x="586" 
d="M508 507v-392c0 -23 3 -29 22 -32l27 -3v-80h-177v64h-3c-29 -51 -81 -78 -148 -78c-103 0 -155 57 -155 170v235c0 23 -7 28 -24 29l-28 3v84h192v-321c0 -59 11 -89 66 -89c52 0 89 41 89 98v196c0 21 -5 28 -24 29l-24 2v85h187zM244 798l121 -198l-43 -36l-132 114
c-23 19 -30 37 -30 53c0 25 16 39 45 51z" />
    <glyph glyph-name="uacute" unicode="&#xfa;" horiz-adv-x="586" 
d="M508 507v-392c0 -23 3 -29 22 -32l27 -3v-80h-177v64h-3c-29 -51 -81 -78 -148 -78c-103 0 -155 57 -155 170v235c0 23 -7 28 -24 29l-28 3v84h192v-321c0 -59 11 -89 66 -89c52 0 89 41 89 98v196c0 21 -5 28 -24 29l-24 2v85h187zM206 600l120 198l47 -19
c25 -11 37 -23 37 -46c0 -19 -11 -38 -32 -55l-129 -114z" />
    <glyph glyph-name="ucircumflex" unicode="&#xfb;" horiz-adv-x="586" 
d="M508 507v-392c0 -23 3 -29 22 -32l27 -3v-80h-177v64h-3c-29 -51 -81 -78 -148 -78c-103 0 -155 57 -155 170v235c0 23 -7 28 -24 29l-28 3v84h192v-321c0 -59 11 -89 66 -89c52 0 89 41 89 98v196c0 21 -5 28 -24 29l-24 2v85h187zM166 564l-47 37l103 139
c20 27 36 40 63 40s40 -10 61 -37l106 -142l-46 -38l-121 105z" />
    <glyph glyph-name="udieresis" unicode="&#xfc;" horiz-adv-x="586" 
d="M508 507v-392c0 -23 3 -29 22 -32l27 -3v-80h-177v64h-3c-29 -51 -81 -78 -148 -78c-103 0 -155 57 -155 170v235c0 23 -7 28 -24 29l-28 3v84h192v-321c0 -59 11 -89 66 -89c52 0 89 41 89 98v196c0 21 -5 28 -24 29l-24 2v85h187zM305 650c0 40 30 72 77 72
c45 0 76 -32 76 -72c0 -43 -30 -73 -77 -73s-76 30 -76 73zM98 650c0 40 30 72 77 72c45 0 76 -32 76 -72c0 -43 -30 -73 -77 -73s-76 30 -76 73z" />
    <glyph glyph-name="yacute" unicode="&#xfd;" horiz-adv-x="549" 
d="M486 392l-145 -395c-51 -136 -98 -216 -219 -216c-49 0 -100 16 -131 35l33 100c24 -11 51 -21 88 -21c36 0 59 22 78 71l14 36l-153 416l-46 6v83h236v-84l-24 -3c-15 -2 -21 -11 -16 -28l76 -239h3l88 265l-45 3v86h218v-83l-22 -2c-20 -3 -26 -9 -33 -30zM225 600
l120 198l47 -19c25 -11 37 -23 37 -46c0 -19 -11 -38 -32 -55l-129 -114z" />
    <glyph glyph-name="thorn" unicode="&#xfe;" horiz-adv-x="561" 
d="M77 -92v690c0 19 -8 28 -24 29l-33 2v84h194v-264h2c32 51 78 71 134 71c117 0 180 -90 180 -251c0 -175 -73 -283 -214 -283c-36 0 -73 10 -100 25v-130l86 -5v-83h-280v79l31 4c19 3 24 7 24 32zM217 336v-222c20 -15 49 -24 74 -24c75 0 98 71 98 162
c0 82 -15 162 -88 162c-58 0 -84 -46 -84 -78z" />
    <glyph glyph-name="ydieresis" unicode="&#xff;" horiz-adv-x="549" 
d="M486 392l-145 -395c-51 -136 -98 -216 -219 -216c-49 0 -100 16 -131 35l33 100c24 -11 51 -21 88 -21c36 0 59 22 78 71l14 36l-153 416l-46 6v83h236v-84l-24 -3c-15 -2 -21 -11 -16 -28l76 -239h3l88 265l-45 3v86h218v-83l-22 -2c-20 -3 -26 -9 -33 -30zM305 650
c0 40 30 72 77 72c45 0 76 -32 76 -72c0 -43 -30 -73 -77 -73s-76 30 -76 73zM98 650c0 40 30 72 77 72c45 0 76 -32 76 -72c0 -43 -30 -73 -77 -73s-76 30 -76 73z" />
    <glyph glyph-name="Amacron" unicode="&#x100;" horiz-adv-x="676" 
d="M246 0h-236v84l25 3c23 3 28 11 33 30l154 455l-53 5v88h245l202 -574l50 -4v-87h-257v84l32 3c19 3 23 11 16 30l-22 63h-209l-31 -90l51 -3v-87zM329 537l-83 -262h169l-82 262h-4zM158 730v98h300v-98h-300z" />
    <glyph glyph-name="amacron" unicode="&#x101;" horiz-adv-x="560" 
d="M484 484v-374c0 -20 5 -27 22 -28l28 -2v-80h-162l-4 50l-4 1c-24 -37 -69 -64 -133 -64c-148 0 -200 108 -200 244c0 176 88 289 269 289c35 0 108 -7 184 -36zM346 166v241c-13 5 -37 10 -62 10c-87 0 -112 -84 -112 -179c0 -77 18 -149 90 -149c55 0 84 37 84 77z
M146 607v98h300v-98h-300z" />
    <glyph glyph-name="Abreve" unicode="&#x102;" horiz-adv-x="676" 
d="M246 0h-236v84l25 3c23 3 28 11 33 30l154 455l-53 5v88h245l202 -574l50 -4v-87h-257v84l32 3c19 3 23 11 16 30l-22 63h-209l-31 -90l51 -3v-87zM329 537l-83 -262h169l-82 262h-4zM409 882l79 -29c-21 -72 -73 -134 -172 -134c-106 0 -156 68 -169 132l82 31
c17 -52 44 -77 91 -77c41 0 68 20 89 77z" />
    <glyph glyph-name="abreve" unicode="&#x103;" horiz-adv-x="560" 
d="M484 484v-374c0 -20 5 -27 22 -28l28 -2v-80h-162l-4 50l-4 1c-24 -37 -69 -64 -133 -64c-148 0 -200 108 -200 244c0 176 88 289 269 289c35 0 108 -7 184 -36zM346 166v241c-13 5 -37 10 -62 10c-87 0 -112 -84 -112 -179c0 -77 18 -149 90 -149c55 0 84 37 84 77z
M382 733l78 -20c-24 -86 -74 -148 -171 -148c-107 0 -152 72 -168 148l81 19c19 -60 46 -81 91 -81c39 0 69 21 89 82z" />
    <glyph glyph-name="Aogonek" unicode="&#x104;" horiz-adv-x="676" 
d="M246 0h-236v84l25 3c23 3 28 11 33 30l154 455l-53 5v88h245l202 -574l50 -4v-87c-60 -28 -104 -63 -104 -102c0 -19 9 -33 38 -33c20 0 36 4 49 11l24 -72c-19 -11 -59 -23 -98 -23c-84 0 -111 47 -111 92c0 64 53 102 94 127h-149v84l32 3c19 3 23 11 16 30l-22 63
h-209l-31 -90l51 -3v-87zM329 537l-83 -262h169l-82 262h-4z" />
    <glyph glyph-name="aogonek" unicode="&#x105;" horiz-adv-x="560" 
d="M484 484v-374c0 -20 5 -27 22 -28l28 -2v-80c-48 -28 -93 -63 -93 -102c0 -19 9 -33 38 -33c20 0 36 4 49 11l24 -72c-19 -11 -59 -23 -98 -23c-84 0 -111 47 -111 92c0 64 53 102 94 127h-65l-4 50l-4 1c-24 -37 -69 -64 -133 -64c-148 0 -200 108 -200 244
c0 176 88 289 269 289c35 0 108 -7 184 -36zM346 166v241c-13 5 -37 10 -62 10c-87 0 -112 -84 -112 -179c0 -77 18 -149 90 -149c55 0 84 37 84 77z" />
    <glyph glyph-name="Cacute" unicode="&#x106;" horiz-adv-x="610" 
d="M431 556c-19 5 -45 8 -65 8c-117 0 -178 -79 -178 -224c0 -140 49 -238 182 -238c20 0 48 2 65 7c15 4 18 12 18 29v69l109 -8v-171c-51 -27 -124 -41 -201 -41c-204 0 -321 114 -321 341c0 262 157 349 317 349c71 0 147 -13 200 -40v-167l-109 -8v66c0 16 -2 24 -17 28
zM246 750l167 162l40 -33c15 -12 23 -22 23 -41c0 -23 -13 -39 -45 -54l-152 -79z" />
    <glyph glyph-name="cacute" unicode="&#x107;" horiz-adv-x="479" 
d="M285 412c-69 0 -111 -50 -111 -157c0 -96 34 -157 114 -157c37 0 76 14 115 43l51 -92c-43 -35 -107 -63 -184 -63c-149 0 -238 88 -238 263c0 200 124 271 248 271c60 0 117 -13 160 -38v-150l-104 -7v54c0 16 -1 24 -16 28c-11 3 -23 5 -35 5zM181 600l120 198l47 -19
c25 -11 37 -23 37 -46c0 -19 -11 -38 -32 -55l-129 -114z" />
    <glyph glyph-name="Ccircumflex" unicode="&#x108;" horiz-adv-x="610" 
d="M431 556c-19 5 -45 8 -65 8c-117 0 -178 -79 -178 -224c0 -140 49 -238 182 -238c20 0 48 2 65 7c15 4 18 12 18 29v69l109 -8v-171c-51 -27 -124 -41 -201 -41c-204 0 -321 114 -321 341c0 262 157 349 317 349c71 0 147 -13 200 -40v-167l-109 -8v66c0 16 -2 24 -17 28
zM228 704l-44 40l102 116c23 25 40 34 60 34c23 0 39 -11 68 -43l96 -106l-44 -41l-120 86z" />
    <glyph glyph-name="ccircumflex" unicode="&#x109;" horiz-adv-x="479" 
d="M285 412c-69 0 -111 -50 -111 -157c0 -96 34 -157 114 -157c37 0 76 14 115 43l51 -92c-43 -35 -107 -63 -184 -63c-149 0 -238 88 -238 263c0 200 124 271 248 271c60 0 117 -13 160 -38v-150l-104 -7v54c0 16 -1 24 -16 28c-11 3 -23 5 -35 5zM146 564l-47 37l103 139
c20 27 36 40 63 40s40 -10 61 -37l106 -142l-46 -38l-121 105z" />
    <glyph glyph-name="Cdotaccent" unicode="&#x10a;" horiz-adv-x="610" 
d="M431 556c-19 5 -45 8 -65 8c-117 0 -178 -79 -178 -224c0 -140 49 -238 182 -238c20 0 48 2 65 7c15 4 18 12 18 29v69l109 -8v-171c-51 -27 -124 -41 -201 -41c-204 0 -321 114 -321 341c0 262 157 349 317 349c71 0 147 -13 200 -40v-167l-109 -8v66c0 16 -2 24 -17 28
zM264 799c0 43 32 77 83 77c49 0 84 -30 84 -74c0 -47 -35 -79 -84 -79c-51 0 -83 32 -83 76z" />
    <glyph glyph-name="cdotaccent" unicode="&#x10b;" horiz-adv-x="479" 
d="M285 412c-69 0 -111 -50 -111 -157c0 -96 34 -157 114 -157c37 0 76 14 115 43l51 -92c-43 -35 -107 -63 -184 -63c-149 0 -238 88 -238 263c0 200 124 271 248 271c60 0 117 -13 160 -38v-150l-104 -7v54c0 16 -1 24 -16 28c-11 3 -23 5 -35 5zM185 650
c0 43 32 77 83 77c49 0 84 -30 84 -74c0 -47 -35 -79 -84 -79c-51 0 -83 32 -83 76z" />
    <glyph glyph-name="Ccaron" unicode="&#x10c;" horiz-adv-x="610" 
d="M431 556c-19 5 -45 8 -65 8c-117 0 -178 -79 -178 -224c0 -140 49 -238 182 -238c20 0 48 2 65 7c15 4 18 12 18 29v69l109 -8v-171c-51 -27 -124 -41 -201 -41c-204 0 -321 114 -321 341c0 262 157 349 317 349c71 0 147 -13 200 -40v-167l-109 -8v66c0 16 -2 24 -17 28
zM226 894l119 -87l119 87l44 -40l-104 -117c-23 -25 -39 -33 -59 -33s-37 8 -60 33l-104 117z" />
    <glyph glyph-name="ccaron" unicode="&#x10d;" horiz-adv-x="479" 
d="M285 412c-69 0 -111 -50 -111 -157c0 -96 34 -157 114 -157c37 0 76 14 115 43l51 -92c-43 -35 -107 -63 -184 -63c-149 0 -238 88 -238 263c0 200 124 271 248 271c60 0 117 -13 160 -38v-150l-104 -7v54c0 16 -1 24 -16 28c-11 3 -23 5 -35 5zM386 780l47 -37
l-105 -142c-20 -27 -34 -38 -61 -38s-40 10 -61 38l-107 141l47 38l121 -104z" />
    <glyph glyph-name="Dcaron" unicode="&#x10e;" horiz-adv-x="676" 
d="M37 0v84l30 3c17 3 25 7 25 28v459l-53 4v87h277c194 0 318 -100 318 -310c0 -260 -150 -355 -314 -355h-283zM235 563v-460h76c113 0 178 71 178 236c0 184 -80 224 -179 224h-75zM187 894l119 -87l119 87l44 -40l-104 -117c-23 -25 -39 -33 -59 -33s-37 8 -60 33
l-104 117z" />
    <glyph glyph-name="dcaron" unicode="&#x10f;" horiz-adv-x="646" 
d="M484 713v-601c0 -23 3 -28 22 -29l28 -3v-80h-162l-4 50l-4 1c-32 -47 -82 -64 -134 -64c-152 0 -198 117 -198 248c0 161 82 285 235 285c27 0 53 -4 79 -12v89c0 19 -8 28 -24 29l-33 3v84h195zM263 90c52 0 83 32 83 81v232c-16 8 -38 14 -65 14
c-81 0 -109 -78 -109 -169c0 -86 18 -158 91 -158zM510 536l32 207c15 1 33 2 49 2c52 0 65 -40 46 -76l-73 -150z" />
    <glyph glyph-name="Dcroat" unicode="&#x110;" horiz-adv-x="684" 
d="M39 287v94h61v193l-53 4v87h277c194 0 318 -100 318 -310c0 -260 -150 -355 -314 -355h-283v84l30 3c17 3 25 7 25 28v172h-61zM243 563v-182h155v-94h-155v-184h76c113 0 178 71 178 236c0 184 -80 224 -179 224h-75z" />
    <glyph glyph-name="dcroat" unicode="&#x111;" horiz-adv-x="561" 
d="M484 539v-427c0 -23 3 -28 22 -29l28 -3v-80h-162l-4 50c-1 0 -3 1 -4 1c-32 -47 -82 -64 -134 -64c-152 0 -198 116 -198 240c0 147 82 263 235 263c27 0 53 -4 79 -12v61h-155v87h155v87h138v-87h59v-87h-59zM263 90c64 0 83 57 83 101v182c-16 8 -38 14 -65 14
c-75 0 -109 -58 -109 -151c0 -80 18 -146 91 -146z" />
    <glyph glyph-name="Emacron" unicode="&#x112;" horiz-adv-x="557" 
d="M33 0v83l23 3c31 3 36 5 36 34v454l-53 4v87h470v-162l-110 -8v44c0 19 -6 26 -25 26h-139v-173h234v-104h-234v-189h150c19 0 25 7 25 27v51l109 -8v-169h-486zM138 730v98h300v-98h-300z" />
    <glyph glyph-name="emacron" unicode="&#x113;" horiz-adv-x="488" 
d="M285 520c104 0 170 -46 170 -146c0 -143 -125 -180 -282 -175c5 -58 36 -106 113 -106c56 0 98 21 126 40l40 -95c-13 -8 -81 -52 -184 -52c-171 0 -236 110 -236 254c0 153 89 280 253 280zM333 367c0 37 -23 52 -55 52c-66 0 -103 -60 -106 -128c100 -4 161 13 161 76z
M128 607v98h300v-98h-300z" />
    <glyph glyph-name="Ebreve" unicode="&#x114;" horiz-adv-x="557" 
d="M33 0v83l23 3c31 3 36 5 36 34v454l-53 4v87h470v-162l-110 -8v44c0 19 -6 26 -25 26h-139v-173h234v-104h-234v-189h150c19 0 25 7 25 27v51l109 -8v-169h-486zM382 882l79 -29c-21 -72 -73 -134 -172 -134c-106 0 -156 68 -169 132l82 31c17 -52 44 -77 91 -77
c41 0 68 20 89 77z" />
    <glyph glyph-name="ebreve" unicode="&#x115;" horiz-adv-x="488" 
d="M285 520c104 0 170 -46 170 -146c0 -143 -125 -180 -282 -175c5 -58 36 -106 113 -106c56 0 98 21 126 40l40 -95c-13 -8 -81 -52 -184 -52c-171 0 -236 110 -236 254c0 153 89 280 253 280zM333 367c0 37 -23 52 -55 52c-66 0 -103 -60 -106 -128c100 -4 161 13 161 76z
M367 733l78 -20c-24 -86 -74 -148 -171 -148c-107 0 -152 72 -168 148l81 19c19 -60 46 -81 91 -81c39 0 69 21 89 82z" />
    <glyph glyph-name="Edotaccent" unicode="&#x116;" horiz-adv-x="557" 
d="M33 0v83l23 3c31 3 36 5 36 34v454l-53 4v87h470v-162l-110 -8v44c0 19 -6 26 -25 26h-139v-173h234v-104h-234v-189h150c19 0 25 7 25 27v51l109 -8v-169h-486zM217 799c0 43 32 77 83 77c49 0 84 -30 84 -74c0 -47 -35 -79 -84 -79c-51 0 -83 32 -83 76z" />
    <glyph glyph-name="edotaccent" unicode="&#x117;" horiz-adv-x="488" 
d="M285 520c104 0 170 -46 170 -146c0 -143 -125 -180 -282 -175c5 -58 36 -106 113 -106c56 0 98 21 126 40l40 -95c-13 -8 -81 -52 -184 -52c-171 0 -236 110 -236 254c0 153 89 280 253 280zM333 367c0 37 -23 52 -55 52c-66 0 -103 -60 -106 -128c100 -4 161 13 161 76z
M188 650c0 43 32 77 83 77c49 0 84 -30 84 -74c0 -47 -35 -79 -84 -79c-51 0 -83 32 -83 76z" />
    <glyph glyph-name="Eogonek" unicode="&#x118;" horiz-adv-x="557" 
d="M33 0v83l23 3c31 3 36 5 36 34v454l-53 4v87h470v-162l-110 -8v44c0 19 -6 26 -25 26h-139v-173h234v-104h-234v-189h150c19 0 25 7 25 27v51l109 -8v-169c-48 -28 -93 -63 -93 -102c0 -19 9 -33 38 -33c20 0 36 4 49 11l24 -72c-19 -11 -59 -23 -98 -23
c-84 0 -111 47 -111 92c0 64 53 102 94 127h-389z" />
    <glyph glyph-name="eogonek" unicode="&#x119;" horiz-adv-x="488" 
d="M285 520c104 0 170 -46 170 -146c0 -143 -125 -180 -282 -175c5 -58 36 -106 113 -106c56 0 98 21 126 40l40 -95c-8 -7 -42 -26 -90 -46s-89 -55 -89 -94c0 -19 9 -33 38 -33c20 0 36 4 49 11l24 -72c-19 -11 -59 -23 -98 -23c-84 0 -111 47 -111 92c0 53 37 89 73 114
c-156 8 -216 114 -216 253c0 153 89 280 253 280zM333 367c0 37 -23 52 -55 52c-66 0 -103 -60 -106 -128c100 -4 161 13 161 76z" />
    <glyph glyph-name="Ecaron" unicode="&#x11a;" horiz-adv-x="557" 
d="M33 0v83l23 3c31 3 36 5 36 34v454l-53 4v87h470v-162l-110 -8v44c0 19 -6 26 -25 26h-139v-173h234v-104h-234v-189h150c19 0 25 7 25 27v51l109 -8v-169h-486zM174 894l119 -87l119 87l44 -40l-104 -117c-23 -25 -39 -33 -59 -33s-37 8 -60 33l-104 117z" />
    <glyph glyph-name="ecaron" unicode="&#x11b;" horiz-adv-x="488" 
d="M285 520c104 0 170 -46 170 -146c0 -143 -125 -180 -282 -175c5 -58 36 -106 113 -106c56 0 98 21 126 40l40 -95c-13 -8 -81 -52 -184 -52c-171 0 -236 110 -236 254c0 153 89 280 253 280zM333 367c0 37 -23 52 -55 52c-66 0 -103 -60 -106 -128c100 -4 161 13 161 76z
M389 780l47 -37l-105 -142c-20 -27 -34 -38 -61 -38s-40 10 -61 38l-107 141l47 38l121 -104z" />
    <glyph glyph-name="Gcircumflex" unicode="&#x11c;" horiz-adv-x="663" 
d="M351 99c33 0 72 8 96 19v142l-64 3v87h250v-84l-27 -3c-17 -3 -25 -9 -25 -28v-183c-56 -39 -142 -64 -234 -64c-193 0 -307 111 -307 343c0 258 157 346 330 346c83 0 161 -18 206 -41v-166l-109 -8v65c0 16 -2 24 -17 29c-19 4 -47 7 -74 7c-131 0 -188 -90 -188 -226
c0 -151 48 -238 163 -238zM238 704l-44 40l102 116c23 25 40 34 60 34c23 0 39 -11 68 -43l96 -106l-44 -41l-120 86z" />
    <glyph glyph-name="gcircumflex" unicode="&#x11d;" horiz-adv-x="551" 
d="M356 29v45c-24 -35 -69 -58 -125 -58c-137 0 -198 96 -198 237c0 168 95 267 260 267c45 0 122 -8 194 -37v-434c0 -120 -30 -263 -242 -263c-61 0 -142 11 -184 35v140l107 8v-45c0 -20 4 -27 21 -32c14 -5 31 -7 52 -7c84 0 115 45 115 144zM349 202v205
c-21 7 -44 11 -69 11c-72 0 -106 -63 -106 -159c0 -73 12 -142 91 -142c53 0 84 34 84 85zM160 564l-47 37l103 139c20 27 36 40 63 40s40 -10 61 -37l106 -142l-46 -38l-121 105z" />
    <glyph glyph-name="Gbreve" unicode="&#x11e;" horiz-adv-x="663" 
d="M351 99c33 0 72 8 96 19v142l-64 3v87h250v-84l-27 -3c-17 -3 -25 -9 -25 -28v-183c-56 -39 -142 -64 -234 -64c-193 0 -307 111 -307 343c0 258 157 346 330 346c83 0 161 -18 206 -41v-166l-109 -8v65c0 16 -2 24 -17 29c-19 4 -47 7 -74 7c-131 0 -188 -90 -188 -226
c0 -151 48 -238 163 -238zM449 882l79 -29c-21 -72 -73 -134 -172 -134c-106 0 -156 68 -169 132l82 31c17 -52 44 -77 91 -77c41 0 68 20 89 77z" />
    <glyph glyph-name="gbreve" unicode="&#x11f;" horiz-adv-x="551" 
d="M356 29v45c-24 -35 -69 -58 -125 -58c-137 0 -198 96 -198 237c0 168 95 267 260 267c45 0 122 -8 194 -37v-434c0 -120 -30 -263 -242 -263c-61 0 -142 11 -184 35v140l107 8v-45c0 -20 4 -27 21 -32c14 -5 31 -7 52 -7c84 0 115 45 115 144zM349 202v205
c-21 7 -44 11 -69 11c-72 0 -106 -63 -106 -159c0 -73 12 -142 91 -142c53 0 84 34 84 85zM371 733l78 -20c-24 -86 -74 -148 -171 -148c-107 0 -152 72 -168 148l81 19c19 -60 46 -81 91 -81c39 0 69 21 89 82z" />
    <glyph glyph-name="Gdotaccent" unicode="&#x120;" horiz-adv-x="663" 
d="M351 99c33 0 72 8 96 19v142l-64 3v87h250v-84l-27 -3c-17 -3 -25 -9 -25 -28v-183c-56 -39 -142 -64 -234 -64c-193 0 -307 111 -307 343c0 258 157 346 330 346c83 0 161 -18 206 -41v-166l-109 -8v65c0 16 -2 24 -17 29c-19 4 -47 7 -74 7c-131 0 -188 -90 -188 -226
c0 -151 48 -238 163 -238zM274 799c0 43 32 77 83 77c49 0 84 -30 84 -74c0 -47 -35 -79 -84 -79c-51 0 -83 32 -83 76z" />
    <glyph glyph-name="gdotaccent" unicode="&#x121;" horiz-adv-x="551" 
d="M356 29v45c-24 -35 -69 -58 -125 -58c-137 0 -198 96 -198 237c0 168 95 267 260 267c45 0 122 -8 194 -37v-434c0 -120 -30 -263 -242 -263c-61 0 -142 11 -184 35v140l107 8v-45c0 -20 4 -27 21 -32c14 -5 31 -7 52 -7c84 0 115 45 115 144zM349 202v205
c-21 7 -44 11 -69 11c-72 0 -106 -63 -106 -159c0 -73 12 -142 91 -142c53 0 84 34 84 85zM198 650c0 43 32 77 83 77c49 0 84 -30 84 -74c0 -47 -35 -79 -84 -79c-51 0 -83 32 -83 76z" />
    <glyph glyph-name="Gcommaaccent" unicode="&#x122;" horiz-adv-x="663" 
d="M351 99c33 0 72 8 96 19v142l-64 3v87h250v-84l-27 -3c-17 -3 -25 -9 -25 -28v-183c-56 -39 -142 -64 -234 -64c-193 0 -307 111 -307 343c0 258 157 346 330 346c83 0 161 -18 206 -41v-166l-109 -8v65c0 16 -2 24 -17 29c-19 4 -47 7 -74 7c-131 0 -188 -90 -188 -226
c0 -151 48 -238 163 -238zM372 -183l-52 -110l-66 23l27 94c5 17 -3 26 -22 26h-21l19 83c18 4 34 6 48 6c72 0 99 -55 67 -122z" />
    <glyph glyph-name="gcommaaccent" unicode="&#x123;" horiz-adv-x="551" 
d="M356 29v45c-24 -35 -69 -58 -125 -58c-137 0 -198 96 -198 237c0 168 95 267 260 267c45 0 122 -8 194 -37v-434c0 -120 -30 -263 -242 -263c-61 0 -142 11 -184 35v140l107 8v-45c0 -20 4 -27 21 -32c14 -5 31 -7 52 -7c84 0 115 45 115 144zM349 202v205
c-21 7 -44 11 -69 11c-72 0 -106 -63 -106 -159c0 -73 12 -142 91 -142c53 0 84 34 84 85zM228 687l52 110l66 -22l-27 -94c-5 -18 3 -27 22 -27h21l-19 -82c-17 -5 -33 -7 -48 -7c-72 0 -99 55 -67 122z" />
    <glyph glyph-name="Hcircumflex" unicode="&#x124;" horiz-adv-x="729" 
d="M92 119v455l-53 3v88h253v-85l-31 -3c-19 -3 -25 -6 -25 -29v-156h257v182l-50 4v87h248v-84l-29 -3c-19 -3 -25 -8 -25 -31v-456l52 -4v-87h-252v84l31 4c19 3 25 8 25 31v168h-257v-197l52 -4v-86h-251v84l30 3c19 3 25 8 25 32zM242 704l-44 40l102 116
c23 25 40 34 60 34c23 0 39 -11 68 -43l96 -106l-44 -41l-120 86z" />
    <glyph glyph-name="hcircumflex" unicode="&#x125;" horiz-adv-x="583" 
d="M371 115v206c0 55 -12 87 -69 87c-52 0 -86 -41 -86 -96v-226l46 -3v-83h-240v79l30 3c19 3 25 8 25 33v482c0 21 -5 28 -24 29l-33 3v84h194v-274c33 61 90 81 142 81c113 0 155 -65 155 -170v-264l48 -3v-83h-243v79l30 3c19 3 25 8 25 33zM4 740l-44 40l102 116
c23 25 40 34 60 34c23 0 39 -11 68 -43l96 -106l-44 -41l-120 86z" />
    <glyph glyph-name="Hbar" unicode="&#x126;" horiz-adv-x="729" 
d="M92 119v310h-71v90h71v55l-53 3v88h253v-85l-31 -3c-19 -3 -25 -6 -25 -29v-29h257v55l-50 4v87h248v-84l-29 -3c-19 -3 -25 -8 -25 -31v-28h71v-90h-71v-338l52 -4v-87h-252v84l31 4c19 3 25 8 25 31v148h-257v-177l52 -4v-86h-251v84l30 3c19 3 25 8 25 32zM236 429
v-57h257v57h-257z" />
    <glyph glyph-name="hbar" unicode="&#x127;" horiz-adv-x="583" 
d="M7 539v87h69v87h138v-87h148v-87h-148v-130c28 49 75 82 143 82c103 0 154 -57 154 -171v-234l50 -4v-82h-216v51c19 11 26 17 26 42v198c0 55 -12 87 -69 87c-52 0 -86 -41 -86 -96v-196l46 -3v-83h-240v79l30 3c19 3 25 8 25 33l-1 424h-69z" />
    <glyph glyph-name="Itilde" unicode="&#x128;" horiz-adv-x="328" 
d="M92 120v455l-54 3v87h254v-84l-32 -3c-19 -3 -24 -8 -24 -31v-456l53 -4v-87h-253v84l30 3c19 3 26 8 26 33zM51 728l-53 28c29 69 64 91 103 91c47 0 97 -28 133 -28c19 0 34 10 45 30l55 -30c-23 -64 -54 -89 -101 -89c-43 0 -94 28 -131 28c-23 0 -35 -9 -51 -30z" />
    <glyph glyph-name="itilde" unicode="&#x129;" horiz-adv-x="298" 
d="M17 597l-53 28c29 69 64 91 103 91c47 0 97 -28 133 -28c19 0 34 10 45 29l55 -30c-23 -63 -54 -88 -101 -88c-43 0 -94 27 -131 27c-23 0 -35 -8 -51 -29zM222 507v-421l52 -3v-83h-247v79l33 3c19 3 23 8 23 33v276c0 21 -5 28 -24 29l-33 3v84h196z" />
    <glyph glyph-name="Imacron" unicode="&#x12a;" horiz-adv-x="328" 
d="M92 120v455l-54 3v87h254v-84l-32 -3c-19 -3 -24 -8 -24 -31v-456l53 -4v-87h-253v84l30 3c19 3 26 8 26 33zM12 730v98h300v-98h-300z" />
    <glyph glyph-name="imacron" unicode="&#x12b;" horiz-adv-x="298" 
d="M-22 607v98h300v-98h-300zM222 507v-421l52 -3v-83h-247v79l33 3c19 3 23 8 23 33v276c0 21 -5 28 -24 29l-33 3v84h196z" />
    <glyph glyph-name="Ibreve" unicode="&#x12c;" horiz-adv-x="328" 
d="M92 120v455l-54 3v87h254v-84l-32 -3c-19 -3 -24 -8 -24 -31v-456l53 -4v-87h-253v84l30 3c19 3 26 8 26 33zM253 882l79 -29c-21 -72 -73 -134 -172 -134c-106 0 -156 68 -169 132l82 31c17 -52 44 -77 91 -77c41 0 68 20 89 77z" />
    <glyph glyph-name="ibreve" unicode="&#x12d;" horiz-adv-x="298" 
d="M223 733l78 -20c-24 -86 -74 -148 -171 -148c-107 0 -152 72 -168 148l81 19c19 -60 46 -81 91 -81c39 0 69 21 89 82zM222 507v-421l52 -3v-83h-247v79l33 3c19 3 23 8 23 33v276c0 21 -5 28 -24 29l-33 3v84h196z" />
    <glyph glyph-name="Iogonek" unicode="&#x12e;" horiz-adv-x="328" 
d="M92 120v455l-54 3v87h254v-84l-32 -3c-19 -3 -24 -8 -24 -31v-456l53 -4v-87c-52 -28 -97 -63 -97 -102c0 -19 9 -33 38 -33c20 0 36 4 49 11l24 -72c-19 -11 -59 -23 -98 -23c-84 0 -111 47 -111 92c0 64 53 102 94 127h-152v84l30 3c19 3 26 8 26 33z" />
    <glyph glyph-name="iogonek" unicode="&#x12f;" horiz-adv-x="298" 
d="M222 507v-421l52 -3v-83c-46 -30 -93 -62 -93 -102c0 -19 9 -33 38 -33c20 0 36 4 49 11l24 -72c-19 -11 -59 -23 -98 -23c-84 0 -111 47 -111 92c0 64 53 102 94 127h-150v79l33 3c19 3 23 8 23 33v276c0 21 -5 28 -24 29l-33 3v84h196zM55 650c0 43 32 77 83 77
c49 0 84 -30 84 -74c0 -47 -35 -79 -84 -79c-51 0 -83 32 -83 76z" />
    <glyph glyph-name="Idotaccent" unicode="&#x130;" horiz-adv-x="328" 
d="M92 120v455l-54 3v87h254v-84l-32 -3c-19 -3 -24 -8 -24 -31v-456l53 -4v-87h-253v84l30 3c19 3 26 8 26 33zM78 799c0 43 32 77 83 77c49 0 84 -30 84 -74c0 -47 -35 -79 -84 -79c-51 0 -83 32 -83 76z" />
    <glyph glyph-name="idotaccent" horiz-adv-x="298" 
d="M222 507v-421l52 -3v-83h-247v79l33 3c19 3 23 8 23 33v276c0 21 -5 28 -24 29l-33 3v84h196zM55 650c0 43 32 77 83 77c49 0 84 -30 84 -74c0 -47 -35 -79 -84 -79c-51 0 -83 32 -83 76z" />
    <glyph glyph-name="dotlessi" unicode="&#x131;" horiz-adv-x="298" 
d="M222 507v-421l52 -3v-83h-247v79l33 3c19 3 23 8 23 33v276c0 21 -5 28 -24 29l-33 3v84h196z" />
    <glyph glyph-name="IJ" unicode="&#x132;" horiz-adv-x="818" 
d="M78 120v455l-54 3v87h254v-84l-32 -3c-19 -3 -24 -8 -24 -31v-456l53 -4v-87h-253v84l30 3c19 3 26 8 26 33zM735 549v-316c0 -29 -1 -77 -6 -109c-15 -89 -72 -137 -199 -137c-73 0 -145 17 -182 36v174l110 8v-75c0 -17 1 -24 16 -28c12 -5 34 -7 47 -7
c59 0 70 36 70 88v391l-64 4v87h264v-84l-31 -3c-19 -3 -25 -6 -25 -29z" />
    <glyph glyph-name="Jcircumflex" unicode="&#x134;" horiz-adv-x="503" 
d="M421 549v-316c0 -29 -1 -77 -6 -109c-15 -89 -72 -137 -199 -137c-73 0 -145 17 -182 36v174l110 8v-75c0 -17 1 -24 16 -28c12 -5 34 -7 47 -7c59 0 70 36 70 88v391l-64 4v87h264v-84l-31 -3c-19 -3 -25 -6 -25 -29zM230 704l-44 40l102 116c23 25 40 34 60 34
c23 0 39 -11 68 -43l96 -106l-44 -41l-120 86z" />
    <glyph glyph-name="jcircumflex" unicode="&#x135;" horiz-adv-x="289" 
d="M218 507v-539c0 -87 -11 -184 -160 -184c-45 0 -102 13 -141 36l37 99c24 -13 47 -19 70 -19c35 0 54 20 54 76v414c0 21 -5 29 -24 30l-33 3v84h197zM-1 564l-47 37l103 139c20 27 36 40 63 40s40 -10 61 -37l106 -142l-46 -38l-121 105z" />
    <glyph glyph-name="Kcommaaccent" unicode="&#x136;" horiz-adv-x="651" 
d="M276 0h-239v84l31 4c19 3 23 9 23 28v458l-53 3v88h246v-85l-26 -2c-17 -3 -24 -8 -24 -27v-203l191 225v3l-45 3v86h225v-84l-27 -3c-19 -3 -27 -12 -40 -27l-129 -156l173 -305l55 -3v-87h-273v84l35 4c19 3 19 14 11 27l-98 174l-78 -91v-109l42 -3v-86zM372 -183
l-52 -110l-66 23l27 94c5 17 -3 26 -22 26h-21l19 83c18 4 34 6 48 6c72 0 99 -55 67 -122z" />
    <glyph glyph-name="kcommaaccent" unicode="&#x137;" horiz-adv-x="551" 
d="M216 211v-125l45 -3v-83h-239v79l32 3c17 3 23 8 23 31v484c0 21 -4 28 -23 29l-34 3v84h196v-406c61 8 132 51 132 97c0 13 -8 16 -21 19l-26 3v81h221v-82l-45 -6c-7 -48 -34 -98 -82 -137l91 -196l54 -3v-83h-168l-96 225c-20 -8 -39 -11 -60 -14zM343 -183l-52 -110
l-66 23l27 94c5 17 -3 26 -22 26h-21l19 83c18 4 34 6 48 6c72 0 99 -55 67 -122z" />
    <glyph glyph-name="kgreenlandic" unicode="&#x138;" horiz-adv-x="551" 
d="M216 211v-125l45 -3v-83h-239v79l32 3c17 3 23 8 23 31v278c0 21 -4 28 -23 29l-34 3v84h196v-206c61 8 135 57 135 103c0 13 -8 16 -21 19l-26 3v81h218v-82l-45 -6c-7 -48 -35 -98 -83 -137l92 -196l54 -3v-83h-168l-96 225c-20 -8 -39 -11 -60 -14z" />
    <glyph glyph-name="Lacute" unicode="&#x139;" horiz-adv-x="552" 
d="M92 119v456l-54 3v87h258v-83l-35 -4c-19 -3 -26 -9 -26 -33v-446h145c21 1 27 7 27 27v66l109 -8v-184h-480v84l31 4c19 3 25 7 25 31zM63 749l167 162l40 -33c15 -12 23 -22 23 -41c0 -23 -13 -39 -45 -54l-152 -79z" />
    <glyph glyph-name="lacute" unicode="&#x13a;" horiz-adv-x="291" 
d="M218 713v-627l52 -3v-83h-246v79l32 4c19 3 23 7 23 32v482c0 21 -5 28 -24 29l-33 3v84h196zM17 790l167 162l40 -33c15 -12 23 -22 23 -41c0 -23 -13 -39 -45 -54l-152 -79z" />
    <glyph glyph-name="Lcommaaccent" unicode="&#x13b;" horiz-adv-x="552" 
d="M92 119v456l-54 3v87h258v-83l-35 -4c-19 -3 -26 -9 -26 -33v-446h145c21 1 27 7 27 27v66l109 -8v-184h-480v84l31 4c19 3 25 7 25 31zM324 -183l-52 -110l-66 23l27 94c5 17 -3 26 -22 26h-21l19 83c18 4 34 6 48 6c72 0 99 -55 67 -122z" />
    <glyph glyph-name="lcommaaccent" unicode="&#x13c;" horiz-adv-x="291" 
d="M218 713v-627l52 -3v-83h-246v79l32 4c19 3 23 7 23 32v482c0 21 -5 28 -24 29l-33 3v84h196zM196 -183l-52 -110l-66 23l27 94c5 17 -3 26 -22 26h-21l19 83c18 4 34 6 48 6c72 0 99 -55 67 -122z" />
    <glyph glyph-name="Lcaron" unicode="&#x13d;" horiz-adv-x="552" 
d="M92 119v456l-54 3v87h258v-83l-35 -4c-19 -3 -26 -9 -26 -33v-446h145c21 1 27 7 27 27v66l109 -8v-184h-480v84l31 4c19 3 25 7 25 31zM340 502l32 207c15 1 33 2 49 2c52 0 65 -40 46 -76l-73 -150z" />
    <glyph glyph-name="lcaron" unicode="&#x13e;" horiz-adv-x="376" 
d="M218 713v-627l52 -3v-83h-246v79l32 4c19 3 23 7 23 32v482c0 21 -5 28 -24 29l-33 3v84h196zM240 539l32 207c15 1 33 2 49 2c52 0 65 -40 46 -76l-73 -150z" />
    <glyph glyph-name="Ldot" unicode="&#x13f;" horiz-adv-x="552" 
d="M92 119v456l-54 3v87h258v-83l-35 -4c-19 -3 -26 -9 -26 -33v-446h145c21 1 27 7 27 27v66l109 -8v-184h-480v84l31 4c19 3 25 7 25 31zM323 366c0 43 32 77 83 77c49 0 84 -30 84 -74c0 -47 -35 -79 -84 -79c-51 0 -83 32 -83 76z" />
    <glyph glyph-name="ldot" unicode="&#x140;" horiz-adv-x="435" 
d="M218 713v-627l52 -3v-83h-246v79l32 4c19 3 23 7 23 32v482c0 21 -5 28 -24 29l-33 3v84h196zM279 364c0 43 32 77 83 77c49 0 84 -30 84 -74c0 -47 -35 -79 -84 -79c-51 0 -83 32 -83 76z" />
    <glyph glyph-name="Lslash" unicode="&#x141;" horiz-adv-x="552" 
d="M92 119v137l-59 -30l-34 92l93 46v211l-54 3v87h258v-83l-35 -4c-19 -3 -26 -9 -26 -33v-127l149 73l34 -91l-183 -90v-211h145c21 1 27 7 27 27v66l109 -8v-184h-480v84l31 4c19 3 25 7 25 31z" />
    <glyph glyph-name="lslash" unicode="&#x142;" horiz-adv-x="336" 
d="M235 713v-258l62 39l39 -84l-101 -63v-261l52 -3v-83h-246v79l32 4c19 3 23 7 23 32v169l-57 -36l-39 84l96 60v205c0 21 -5 28 -24 29l-33 3v84h196z" />
    <glyph glyph-name="Nacute" unicode="&#x143;" horiz-adv-x="717" 
d="M632 547v-547h-132l-271 447h-2v-357l56 -4v-86h-247v84l32 3c17 3 24 6 24 29v459l-53 3v87h193l264 -441h2v351l-56 3v87h246v-84l-32 -4c-19 -3 -24 -7 -24 -30zM273 750l167 162l40 -33c15 -12 23 -22 23 -41c0 -23 -13 -39 -45 -54l-152 -79z" />
    <glyph glyph-name="nacute" unicode="&#x144;" horiz-adv-x="587" 
d="M375 115v204c0 56 -12 89 -68 89c-55 0 -87 -44 -87 -95v-227l45 -3v-83h-240v79l32 3c19 3 24 8 24 31v278c0 21 -5 28 -24 29l-33 3v84h185v-68h2c27 47 75 81 150 81c99 0 154 -51 154 -170v-264l48 -3v-83h-243v79l30 3c19 3 25 8 25 33zM218 600l120 198l47 -19
c25 -11 37 -23 37 -46c0 -19 -11 -38 -32 -55l-129 -114z" />
    <glyph glyph-name="Ncommaaccent" unicode="&#x145;" horiz-adv-x="717" 
d="M632 547v-547h-132l-271 447h-2v-357l56 -4v-86h-247v84l32 3c17 3 24 6 24 29v459l-53 3v87h193l264 -441h2v351l-56 3v87h246v-84l-32 -4c-19 -3 -24 -7 -24 -30zM424 -183l-52 -110l-66 23l27 94c5 17 -3 26 -22 26h-21l19 83c18 4 34 6 48 6c72 0 99 -55 67 -122z
" />
    <glyph glyph-name="ncommaaccent" unicode="&#x146;" horiz-adv-x="587" 
d="M375 115v204c0 56 -12 89 -68 89c-55 0 -87 -44 -87 -95v-227l45 -3v-83h-240v79l32 3c19 3 24 8 24 31v278c0 21 -5 28 -24 29l-33 3v84h185v-68h2c27 47 75 81 150 81c99 0 154 -51 154 -170v-264l48 -3v-83h-243v79l30 3c19 3 25 8 25 33zM337 -183l-52 -110l-66 23
l27 94c5 17 -3 26 -22 26h-21l19 83c18 4 34 6 48 6c72 0 99 -55 67 -122z" />
    <glyph glyph-name="Ncaron" unicode="&#x147;" horiz-adv-x="717" 
d="M632 547v-547h-132l-271 447h-2v-357l56 -4v-86h-247v84l32 3c17 3 24 6 24 29v459l-53 3v87h193l264 -441h2v351l-56 3v87h246v-84l-32 -4c-19 -3 -24 -7 -24 -30zM239 894l119 -87l119 87l44 -40l-104 -117c-23 -25 -39 -33 -59 -33s-37 8 -60 33l-104 117z" />
    <glyph glyph-name="ncaron" unicode="&#x148;" horiz-adv-x="587" 
d="M375 115v204c0 56 -12 89 -68 89c-55 0 -87 -44 -87 -95v-227l45 -3v-83h-240v79l32 3c19 3 24 8 24 31v278c0 21 -5 28 -24 29l-33 3v84h185v-68h2c27 47 75 81 150 81c99 0 154 -51 154 -170v-264l48 -3v-83h-243v79l30 3c19 3 25 8 25 33zM415 780l47 -37l-105 -142
c-20 -27 -34 -38 -61 -38s-40 10 -61 38l-107 141l47 38l121 -104z" />
    <glyph glyph-name="napostrophe" unicode="&#x149;" horiz-adv-x="652" 
d="M440 115v204c0 56 -12 89 -68 89c-55 0 -87 -44 -87 -95v-227l45 -3v-83h-240v79l32 3c19 3 24 8 24 31v278c0 21 -5 28 -24 29l-33 3v84h185v-68h2c27 47 75 81 150 81c99 0 154 -51 154 -170v-264l48 -3v-83h-243v79l30 3c19 3 25 8 25 33zM-9 487l34 211h42
c55 0 58 -40 42 -77l-70 -150z" />
    <glyph glyph-name="Eng" unicode="&#x14a;" horiz-adv-x="717" 
d="M632 547v-579c0 -98 -27 -187 -174 -187c-67 0 -136 23 -171 50l44 94c20 -15 54 -29 97 -29c52 0 70 30 70 82v27l-269 444h-2v-359l56 -4v-86h-247v84l32 3c17 3 24 6 24 29v459l-53 3v87h192l265 -444h2v354l-56 3v87h246v-84l-32 -4c-17 -3 -24 -6 -24 -30z" />
    <glyph glyph-name="eng" unicode="&#x14b;" horiz-adv-x="587" 
d="M81 113v278c0 21 -5 28 -24 29l-33 3v84h185v-68h2c27 47 75 81 150 81c99 0 154 -51 154 -170v-376c0 -96 -10 -191 -157 -191c-45 0 -105 13 -144 36l36 97c25 -13 49 -19 72 -19c41 0 53 22 53 98v324c0 55 -13 89 -68 89s-87 -44 -87 -95v-227l45 -3v-83h-240v79
l32 3c19 3 24 8 24 31z" />
    <glyph glyph-name="Omacron" unicode="&#x14c;" horiz-adv-x="668" 
d="M629 331c0 -228 -117 -344 -298 -344c-184 0 -292 116 -292 344c0 256 159 346 304 346c153 0 286 -93 286 -346zM187 337c0 -105 22 -229 151 -229c114 0 143 108 143 220c0 93 -23 227 -146 227c-112 0 -148 -108 -148 -218zM189 730v98h300v-98h-300z" />
    <glyph glyph-name="omacron" unicode="&#x14d;" horiz-adv-x="534" 
d="M32 252c0 212 136 268 242 268c76 0 228 -22 228 -254c0 -195 -100 -280 -244 -280c-143 0 -226 83 -226 266zM266 91c65 0 90 60 90 160c0 108 -21 165 -89 165c-65 0 -90 -56 -90 -148c0 -91 12 -177 89 -177zM123 607v98h300v-98h-300z" />
    <glyph glyph-name="Obreve" unicode="&#x14e;" horiz-adv-x="668" 
d="M629 331c0 -228 -117 -344 -298 -344c-184 0 -292 116 -292 344c0 256 159 346 304 346c153 0 286 -93 286 -346zM187 337c0 -105 22 -229 151 -229c114 0 143 108 143 220c0 93 -23 227 -146 227c-112 0 -148 -108 -148 -218zM425 882l79 -29
c-21 -72 -73 -134 -172 -134c-106 0 -156 68 -169 132l82 31c17 -52 44 -77 91 -77c41 0 68 20 89 77z" />
    <glyph glyph-name="obreve" unicode="&#x14f;" horiz-adv-x="534" 
d="M32 252c0 212 136 268 242 268c76 0 228 -22 228 -254c0 -195 -100 -280 -244 -280c-143 0 -226 83 -226 266zM266 91c65 0 90 60 90 160c0 108 -21 165 -89 165c-65 0 -90 -56 -90 -148c0 -91 12 -177 89 -177zM361 733l78 -20c-24 -86 -74 -148 -171 -148
c-107 0 -152 72 -168 148l81 19c19 -60 46 -81 91 -81c39 0 69 21 89 82z" />
    <glyph glyph-name="Ohungarumlaut" unicode="&#x150;" horiz-adv-x="668" 
d="M629 331c0 -228 -117 -344 -298 -344c-184 0 -292 116 -292 344c0 256 159 346 304 346c153 0 286 -93 286 -346zM187 337c0 -105 22 -229 151 -229c114 0 143 108 143 220c0 93 -23 227 -146 227c-112 0 -148 -108 -148 -218zM377 745l169 160l40 -33
c15 -11 22 -22 22 -41c0 -23 -13 -38 -45 -54l-154 -77zM171 743l160 167l42 -30c17 -11 25 -25 25 -42c0 -21 -14 -39 -42 -54l-150 -84z" />
    <glyph glyph-name="ohungarumlaut" unicode="&#x151;" horiz-adv-x="534" 
d="M32 252c0 212 136 268 242 268c76 0 228 -22 228 -254c0 -195 -100 -280 -244 -280c-143 0 -226 83 -226 266zM266 91c65 0 90 60 90 160c0 108 -21 165 -89 165c-65 0 -90 -56 -90 -148c0 -91 12 -177 89 -177zM123 596l109 204l46 -16c25 -8 39 -19 42 -43
c1 -18 -8 -37 -29 -58l-122 -120zM294 600l119 198l45 -18c27 -11 39 -22 39 -47c0 -19 -11 -37 -33 -56l-128 -113z" />
    <glyph glyph-name="OE" unicode="&#x152;" horiz-adv-x="908" 
d="M725 565h-136v-173h233v-104h-233v-188h151c19 0 21 7 21 26v51l110 -8v-169h-441c-32 -9 -67 -14 -105 -14c-181 0 -285 117 -285 345c0 256 159 345 300 345c31 0 66 -4 94 -11h426v-162l-109 -8v44c0 17 -9 26 -26 26zM187 337c0 -109 24 -233 154 -233
c40 0 84 9 103 24v401c-20 13 -55 27 -100 27c-121 0 -157 -110 -157 -219z" />
    <glyph glyph-name="oe" unicode="&#x153;" horiz-adv-x="804" 
d="M649 368c0 37 -25 51 -56 51c-67 0 -102 -63 -107 -131c99 -5 163 15 163 80zM266 91c65 0 90 60 90 160c0 108 -21 165 -89 165c-65 0 -90 -56 -90 -148c0 -91 12 -177 89 -177zM607 520c99 0 164 -46 164 -146c0 -142 -123 -178 -283 -173c5 -63 40 -108 116 -108
c52 0 96 22 124 41l40 -95c-14 -8 -80 -53 -177 -53c-88 0 -140 33 -171 77c-37 -48 -92 -77 -169 -77c-135 0 -219 83 -219 266c0 212 137 268 237 268c61 0 125 -19 164 -86c35 51 94 86 174 86z" />
    <glyph glyph-name="Racute" unicode="&#x154;" horiz-adv-x="647" 
d="M37 0v84l31 3c19 3 24 8 24 32v455l-53 3v88h282c149 0 250 -48 250 -182c0 -102 -62 -153 -133 -174c40 -11 56 -36 72 -67l77 -152l46 -3v-87h-251v84l32 3c16 2 20 12 11 29l-48 94c-15 31 -29 46 -70 46h-72v-167l44 -3v-86h-242zM235 351h80c69 0 109 37 109 112
c0 81 -43 100 -129 100h-60v-212zM225 750l167 162l40 -33c15 -12 23 -22 23 -41c0 -23 -13 -39 -45 -54l-152 -79z" />
    <glyph glyph-name="racute" unicode="&#x155;" horiz-adv-x="469" 
d="M296 408c-48 0 -77 -40 -77 -93v-228l83 -4v-83h-277v79l32 3c21 3 24 10 24 33v277c0 20 -6 27 -23 28l-34 3v84h183v-77h2c16 40 59 90 142 90c29 0 65 -5 92 -17v-180l-113 -8v66c0 16 -2 21 -9 24c-6 2 -14 3 -25 3zM164 600l120 198l47 -19c25 -11 37 -23 37 -46
c0 -19 -11 -38 -32 -55l-129 -114z" />
    <glyph glyph-name="Rcommaaccent" unicode="&#x156;" horiz-adv-x="647" 
d="M37 0v84l31 3c19 3 24 8 24 32v455l-53 3v88h282c149 0 250 -48 250 -182c0 -102 -62 -153 -133 -174c40 -11 56 -36 72 -67l77 -152l46 -3v-87h-251v84l32 3c16 2 20 12 11 29l-48 94c-15 31 -29 46 -70 46h-72v-167l44 -3v-86h-242zM235 351h80c69 0 109 37 109 112
c0 81 -43 100 -129 100h-60v-212zM375 -183l-52 -110l-66 23l27 94c5 17 -3 26 -22 26h-21l19 83c18 4 34 6 48 6c72 0 99 -55 67 -122z" />
    <glyph glyph-name="rcommaaccent" unicode="&#x157;" horiz-adv-x="469" 
d="M296 408c-48 0 -77 -40 -77 -93v-228l83 -4v-83h-277v79l32 3c21 3 24 10 24 33v277c0 20 -6 27 -23 28l-34 3v84h183v-77h2c16 40 59 90 142 90c29 0 65 -5 92 -17v-180l-113 -8v66c0 16 -2 21 -9 24c-6 2 -14 3 -25 3zM203 -183l-52 -110l-66 23l27 94
c5 17 -3 26 -22 26h-21l19 83c18 4 34 6 48 6c72 0 99 -55 67 -122z" />
    <glyph glyph-name="Rcaron" unicode="&#x158;" horiz-adv-x="647" 
d="M37 0v84l31 3c19 3 24 8 24 32v455l-53 3v88h282c149 0 250 -48 250 -182c0 -102 -62 -153 -133 -174c40 -11 56 -36 72 -67l77 -152l46 -3v-87h-251v84l32 3c16 2 20 12 11 29l-48 94c-15 31 -29 46 -70 46h-72v-167l44 -3v-86h-242zM235 351h80c69 0 109 37 109 112
c0 81 -43 100 -129 100h-60v-212zM179 894l119 -87l119 87l44 -40l-104 -117c-23 -25 -39 -33 -59 -33s-37 8 -60 33l-104 117z" />
    <glyph glyph-name="rcaron" unicode="&#x159;" horiz-adv-x="469" 
d="M296 408c-48 0 -77 -40 -77 -93v-228l83 -4v-83h-277v79l32 3c21 3 24 10 24 33v277c0 20 -6 27 -23 28l-34 3v84h183v-77h2c16 40 59 90 142 90c29 0 65 -5 92 -17v-180l-113 -8v66c0 16 -2 21 -9 24c-6 2 -14 3 -25 3zM351 780l47 -37l-105 -142
c-20 -27 -34 -38 -61 -38s-40 10 -61 38l-107 141l47 38l121 -104z" />
    <glyph glyph-name="Sacute" unicode="&#x15a;" horiz-adv-x="543" 
d="M246 98c58 0 109 20 109 88c0 57 -49 76 -115 95c-90 24 -189 64 -189 194c0 128 95 202 239 202c72 0 144 -14 193 -38v-159l-109 -8v58c0 16 -2 24 -17 29c-15 4 -41 7 -64 7c-48 0 -93 -18 -93 -74c0 -58 48 -73 120 -97c91 -29 187 -62 187 -195
c0 -136 -93 -213 -254 -213c-68 0 -145 9 -205 37v166l111 8v-63c0 -16 1 -24 16 -28c15 -5 44 -9 71 -9zM190 750l167 162l40 -33c15 -12 23 -22 23 -41c0 -23 -13 -39 -45 -54l-152 -79z" />
    <glyph glyph-name="sacute" unicode="&#x15b;" horiz-adv-x="457" 
d="M297 419c-15 5 -33 6 -49 6c-40 0 -70 -17 -70 -52c0 -45 43 -53 96 -69c73 -22 152 -45 152 -149c0 -108 -82 -169 -211 -169c-61 0 -138 13 -177 34v133l100 8v-45c0 -15 3 -21 15 -25c13 -5 34 -9 54 -9c47 0 78 15 78 58s-39 53 -95 66c-72 19 -148 42 -148 150
c0 107 89 164 209 164c55 0 115 -12 159 -36v-125l-99 -8v41c0 16 -2 23 -14 27zM161 600l120 198l47 -19c25 -11 37 -23 37 -46c0 -19 -11 -38 -32 -55l-129 -114z" />
    <glyph glyph-name="Scircumflex" unicode="&#x15c;" horiz-adv-x="543" 
d="M246 98c58 0 109 20 109 88c0 57 -49 76 -115 95c-90 24 -189 64 -189 194c0 128 95 202 239 202c72 0 144 -14 193 -38v-159l-109 -8v58c0 16 -2 24 -17 29c-15 4 -41 7 -64 7c-48 0 -93 -18 -93 -74c0 -58 48 -73 120 -97c91 -29 187 -62 187 -195
c0 -136 -93 -213 -254 -213c-68 0 -145 9 -205 37v166l111 8v-63c0 -16 1 -24 16 -28c15 -5 44 -9 71 -9zM167 704l-44 40l102 116c23 25 40 34 60 34c23 0 39 -11 68 -43l96 -106l-44 -41l-120 86z" />
    <glyph glyph-name="scircumflex" unicode="&#x15d;" horiz-adv-x="457" 
d="M297 419c-15 5 -33 6 -49 6c-40 0 -70 -17 -70 -52c0 -45 43 -53 96 -69c73 -22 152 -45 152 -149c0 -108 -82 -169 -211 -169c-61 0 -138 13 -177 34v133l100 8v-45c0 -15 3 -21 15 -25c13 -5 34 -9 54 -9c47 0 78 15 78 58s-39 53 -95 66c-72 19 -148 42 -148 150
c0 107 89 164 209 164c55 0 115 -12 159 -36v-125l-99 -8v41c0 16 -2 23 -14 27zM119 564l-47 37l103 139c20 27 36 40 63 40s40 -10 61 -37l106 -142l-46 -38l-121 105z" />
    <glyph glyph-name="Scedilla" unicode="&#x15e;" horiz-adv-x="543" 
d="M246 98c58 0 109 20 109 88c0 57 -49 76 -115 95c-90 24 -189 64 -189 194c0 128 95 202 239 202c72 0 144 -14 193 -38v-159l-109 -8v58c0 16 -2 24 -17 29c-15 4 -41 7 -64 7c-48 0 -93 -18 -93 -74c0 -58 48 -73 120 -97c91 -29 187 -62 187 -195
c0 -124 -76 -198 -211 -210l-11 -38c53 -3 94 -28 94 -79c0 -77 -69 -98 -125 -98c-37 0 -71 7 -94 18l18 60c15 -5 44 -13 67 -13c33 0 50 11 50 32c0 29 -40 32 -91 32l29 83c-64 3 -130 12 -185 37v166l111 8v-63c0 -16 1 -24 16 -28c15 -5 44 -9 71 -9z" />
    <glyph glyph-name="scedilla" unicode="&#x15f;" horiz-adv-x="457" 
d="M297 419c-15 5 -33 6 -49 6c-40 0 -70 -17 -70 -52c0 -45 43 -53 96 -69c73 -22 152 -45 152 -149c0 -97 -66 -156 -174 -167l-11 -36c53 -3 94 -28 94 -79c0 -77 -69 -98 -125 -98c-37 0 -71 7 -94 18l18 60c15 -5 44 -13 67 -13c33 0 50 11 50 32c0 29 -40 32 -91 32
l29 83c-56 3 -116 14 -151 33v133l100 8v-45c0 -15 3 -21 15 -25c13 -5 34 -9 54 -9c47 0 78 15 78 58s-39 53 -95 66c-72 19 -148 42 -148 150c0 107 89 164 209 164c55 0 115 -12 159 -36v-125l-99 -8v41c0 16 -2 23 -14 27z" />
    <glyph glyph-name="Scaron" unicode="&#x160;" horiz-adv-x="543" 
d="M246 98c58 0 109 20 109 88c0 57 -49 76 -115 95c-90 24 -189 64 -189 194c0 128 95 202 239 202c72 0 144 -14 193 -38v-159l-109 -8v58c0 16 -2 24 -17 29c-15 4 -41 7 -64 7c-48 0 -93 -18 -93 -74c0 -58 48 -73 120 -97c91 -29 187 -62 187 -195
c0 -136 -93 -213 -254 -213c-68 0 -145 9 -205 37v166l111 8v-63c0 -16 1 -24 16 -28c15 -5 44 -9 71 -9zM163 894l119 -87l119 87l44 -40l-104 -117c-23 -25 -39 -33 -59 -33s-37 8 -60 33l-104 117z" />
    <glyph glyph-name="scaron" unicode="&#x161;" horiz-adv-x="457" 
d="M297 419c-15 5 -33 6 -49 6c-40 0 -70 -17 -70 -52c0 -45 43 -53 96 -69c73 -22 152 -45 152 -149c0 -108 -82 -169 -211 -169c-61 0 -138 13 -177 34v133l100 8v-45c0 -15 3 -21 15 -25c13 -5 34 -9 54 -9c47 0 78 15 78 58s-39 53 -95 66c-72 19 -148 42 -148 150
c0 107 89 164 209 164c55 0 115 -12 159 -36v-125l-99 -8v41c0 16 -2 23 -14 27zM356 780l47 -37l-105 -142c-20 -27 -34 -38 -61 -38s-40 10 -61 38l-107 141l47 38l121 -104z" />
    <glyph glyph-name="Scommaaccent" unicode="&#x218;" horiz-adv-x="543" 
d="M246 98c58 0 109 20 109 88c0 57 -49 76 -115 95c-90 24 -189 64 -189 194c0 128 95 202 239 202c72 0 144 -14 193 -38v-159l-109 -8v58c0 16 -2 24 -17 29c-15 4 -41 7 -64 7c-48 0 -93 -18 -93 -74c0 -58 48 -73 120 -97c91 -29 187 -62 187 -195
c0 -136 -93 -213 -254 -213c-68 0 -145 9 -205 37v166l111 8v-63c0 -16 1 -24 16 -28c15 -5 44 -9 71 -9zM303 -183l-52 -110l-66 23l27 94c5 17 -3 26 -22 26h-21l19 83c18 4 34 6 48 6c72 0 99 -55 67 -122z" />
    <glyph glyph-name="scommaaccent" unicode="&#x219;" horiz-adv-x="457" 
d="M297 419c-15 5 -33 6 -49 6c-40 0 -70 -17 -70 -52c0 -45 43 -53 96 -69c73 -22 152 -45 152 -149c0 -108 -82 -169 -211 -169c-61 0 -138 13 -177 34v133l100 8v-45c0 -15 3 -21 15 -25c13 -5 34 -9 54 -9c47 0 78 15 78 58s-39 53 -95 66c-72 19 -148 42 -148 150
c0 107 89 164 209 164c55 0 115 -12 159 -36v-125l-99 -8v41c0 16 -2 23 -14 27zM267 -183l-52 -110l-66 23l27 94c5 17 -3 26 -22 26h-21l19 83c18 4 34 6 48 6c72 0 99 -55 67 -122z" />
    <glyph glyph-name="uni021A" unicode="&#x21a;" horiz-adv-x="603" 
d="M231 119v446h-77c-20 0 -25 -9 -25 -26v-62l-109 8v180h563v-180l-109 -8v61c0 19 -5 27 -26 27h-74v-474l72 -4v-87h-288v82l46 5c21 3 27 8 27 32zM353 -183l-52 -110l-66 23l27 94c5 17 -3 26 -22 26h-21l19 83c18 4 34 6 48 6c72 0 99 -55 67 -122z" />
    <glyph glyph-name="uni021B" unicode="&#x21b;" horiz-adv-x="388" 
d="M9 410l12 86c72 13 99 66 120 126h77v-115h124l-5 -97h-119v-239c0 -59 21 -75 61 -75c27 0 51 8 67 17l23 -95c-28 -19 -76 -32 -128 -32c-156 0 -164 94 -164 179v245h-68zM264 -183l-52 -110l-66 23l27 94c5 17 -3 26 -22 26h-21l19 83c18 4 34 6 48 6
c72 0 99 -55 67 -122z" />
    <glyph glyph-name="Tcaron" unicode="&#x164;" horiz-adv-x="603" 
d="M231 119v446h-77c-20 0 -25 -9 -25 -26v-62l-109 8v180h563v-180l-109 -8v61c0 19 -5 27 -26 27h-74v-474l72 -4v-87h-288v82l46 5c21 3 27 8 27 32zM182 894l119 -87l119 87l44 -40l-104 -117c-23 -25 -39 -33 -59 -33s-37 8 -60 33l-104 117z" />
    <glyph glyph-name="tcaron" unicode="&#x165;" horiz-adv-x="388" 
d="M9 410l12 86c72 13 99 66 120 126h77v-115h124l-5 -97h-119v-239c0 -59 21 -75 61 -75c27 0 51 8 67 17l23 -95c-28 -19 -76 -32 -128 -32c-156 0 -164 94 -164 179v245h-68zM266 564l32 207c15 1 33 2 49 2c52 0 65 -40 46 -76l-73 -150z" />
    <glyph glyph-name="Tbar" unicode="&#x166;" horiz-adv-x="603" 
d="M122 275v89h109v201h-77c-20 0 -25 -9 -25 -26v-62l-109 8v180h563v-180l-109 -8v61c0 19 -5 27 -26 27h-74v-201h109v-89h-109v-184l72 -4v-87h-288v84l46 3c21 3 27 8 27 32v156h-109z" />
    <glyph glyph-name="tbar" unicode="&#x167;" horiz-adv-x="388" 
d="M9 410l12 86c72 13 99 66 120 126h77v-115h124l-5 -97h-119v-87h118v-93h-118v-59c0 -57 21 -75 61 -75c27 0 51 8 67 17l23 -95c-28 -19 -76 -32 -128 -32c-156 0 -164 94 -164 179v65h-65v93h65v87h-68z" />
    <glyph glyph-name="uni0162" unicode="&#x162;" horiz-adv-x="603" 
d="M231 119v446h-77c-20 0 -25 -9 -25 -26v-62l-109 8v180h563v-180l-109 -8v61c0 19 -5 27 -26 27h-74v-474l72 -4v-87h-116l-15 -48c53 -3 94 -28 94 -79c0 -77 -69 -98 -125 -98c-37 0 -71 7 -94 18l18 60c15 -5 44 -13 67 -13c33 0 50 11 50 32c0 29 -40 32 -91 32
l34 96h-110v82l46 5c21 3 27 8 27 32z" />
    <glyph glyph-name="uni0163" unicode="&#x163;" horiz-adv-x="388" 
d="M9 410l12 86c72 13 99 66 120 126h77v-115h124l-5 -97h-119v-239c0 -59 21 -75 61 -75c27 0 51 8 67 17l23 -95c-28 -19 -76 -32 -128 -32h-2l-10 -34c53 -3 94 -28 94 -79c0 -77 -69 -98 -125 -98c-37 0 -71 7 -94 18l18 60c15 -5 44 -13 67 -13c33 0 50 11 50 32
c0 29 -40 32 -91 32l31 89c-96 21 -102 100 -102 172v245h-68z" />
    <glyph glyph-name="Utilde" unicode="&#x168;" horiz-adv-x="681" 
d="M597 547v-348c0 -133 -105 -212 -257 -212c-168 0 -257 68 -257 228v359l-53 3v88h253v-85l-32 -3c-17 -3 -24 -6 -24 -29v-336c0 -92 50 -118 122 -118c71 0 115 34 115 113v368l-49 3v87h237v-84l-30 -3c-17 -3 -25 -8 -25 -31zM229 728l-53 28c29 69 64 91 103 91
c47 0 97 -28 133 -28c19 0 34 10 45 30l55 -30c-23 -64 -54 -89 -101 -89c-43 0 -94 28 -131 28c-23 0 -35 -9 -51 -30z" />
    <glyph glyph-name="utilde" unicode="&#x169;" horiz-adv-x="586" 
d="M508 507v-392c0 -23 3 -29 22 -32l27 -3v-80h-177v64h-3c-29 -51 -81 -78 -148 -78c-103 0 -155 57 -155 170v235c0 23 -7 28 -24 29l-28 3v84h192v-321c0 -59 11 -89 66 -89c52 0 89 41 89 98v196c0 21 -5 28 -24 29l-24 2v85h187zM172 597l-53 28c29 69 64 91 103 91
c47 0 97 -28 133 -28c19 0 34 10 45 29l55 -30c-23 -63 -54 -88 -101 -88c-43 0 -94 27 -131 27c-23 0 -35 -8 -51 -29z" />
    <glyph glyph-name="Umacron" unicode="&#x16a;" horiz-adv-x="681" 
d="M597 547v-348c0 -133 -105 -212 -257 -212c-168 0 -257 68 -257 228v359l-53 3v88h253v-85l-32 -3c-17 -3 -24 -6 -24 -29v-336c0 -92 50 -118 122 -118c71 0 115 34 115 113v368l-49 3v87h237v-84l-30 -3c-17 -3 -25 -8 -25 -31zM192 730v98h300v-98h-300z" />
    <glyph glyph-name="umacron" unicode="&#x16b;" horiz-adv-x="586" 
d="M508 507v-392c0 -23 3 -29 22 -32l27 -3v-80h-177v64h-3c-29 -51 -81 -78 -148 -78c-103 0 -155 57 -155 170v235c0 23 -7 28 -24 29l-28 3v84h192v-321c0 -59 11 -89 66 -89c52 0 89 41 89 98v196c0 21 -5 28 -24 29l-24 2v85h187zM128 607v98h300v-98h-300z" />
    <glyph glyph-name="Ubreve" unicode="&#x16c;" horiz-adv-x="681" 
d="M597 547v-348c0 -133 -105 -212 -257 -212c-168 0 -257 68 -257 228v359l-53 3v88h253v-85l-32 -3c-17 -3 -24 -6 -24 -29v-336c0 -92 50 -118 122 -118c71 0 115 34 115 113v368l-49 3v87h237v-84l-30 -3c-17 -3 -25 -8 -25 -31zM438 882l79 -29
c-21 -72 -73 -134 -172 -134c-106 0 -156 68 -169 132l82 31c17 -52 44 -77 91 -77c41 0 68 20 89 77z" />
    <glyph glyph-name="ubreve" unicode="&#x16d;" horiz-adv-x="586" 
d="M508 507v-392c0 -23 3 -29 22 -32l27 -3v-80h-177v64h-3c-29 -51 -81 -78 -148 -78c-103 0 -155 57 -155 170v235c0 23 -7 28 -24 29l-28 3v84h192v-321c0 -59 11 -89 66 -89c52 0 89 41 89 98v196c0 21 -5 28 -24 29l-24 2v85h187zM375 733l78 -20
c-24 -86 -74 -148 -171 -148c-107 0 -152 72 -168 148l81 19c19 -60 46 -81 91 -81c39 0 69 21 89 82z" />
    <glyph glyph-name="Uring" unicode="&#x16e;" horiz-adv-x="681" 
d="M597 547v-348c0 -133 -105 -212 -257 -212c-168 0 -257 68 -257 228v359l-53 3v88h253v-85l-32 -3c-17 -3 -24 -6 -24 -29v-336c0 -92 50 -118 122 -118c71 0 115 34 115 113v368l-49 3v87h237v-84l-30 -3c-17 -3 -25 -8 -25 -31zM238 810c0 63 45 107 109 107
c69 0 109 -46 109 -102c0 -65 -44 -111 -111 -111c-69 0 -107 46 -107 106zM307 810c0 -27 13 -45 40 -45s39 18 39 45s-12 46 -39 46c-28 0 -40 -19 -40 -46z" />
    <glyph glyph-name="uring" unicode="&#x16f;" horiz-adv-x="586" 
d="M508 507v-392c0 -23 3 -29 22 -32l27 -3v-80h-177v64h-3c-29 -51 -81 -78 -148 -78c-103 0 -155 57 -155 170v235c0 23 -7 28 -24 29l-28 3v84h192v-321c0 -59 11 -89 66 -89c52 0 89 41 89 98v196c0 21 -5 28 -24 29l-24 2v85h187zM176 674c0 63 45 107 109 107
c69 0 109 -46 109 -102c0 -65 -44 -111 -111 -111c-69 0 -107 46 -107 106zM245 674c0 -27 13 -45 40 -45s39 18 39 45s-12 46 -39 46c-28 0 -40 -19 -40 -46z" />
    <glyph glyph-name="Uhungarumlaut" unicode="&#x170;" horiz-adv-x="681" 
d="M597 547v-348c0 -133 -105 -212 -257 -212c-168 0 -257 68 -257 228v359l-53 3v88h253v-85l-32 -3c-17 -3 -24 -6 -24 -29v-336c0 -92 50 -118 122 -118c71 0 115 34 115 113v368l-49 3v87h237v-84l-30 -3c-17 -3 -25 -8 -25 -31zM369 745l169 160l40 -33
c15 -11 22 -22 22 -41c0 -23 -13 -38 -45 -54l-154 -77zM163 743l160 167l42 -30c17 -11 25 -25 25 -42c0 -21 -14 -39 -42 -54l-150 -84z" />
    <glyph glyph-name="uhungarumlaut" unicode="&#x171;" horiz-adv-x="586" 
d="M508 507v-392c0 -23 3 -29 22 -32l27 -3v-80h-177v64h-3c-29 -51 -81 -78 -148 -78c-103 0 -155 57 -155 170v235c0 23 -7 28 -24 29l-28 3v84h192v-321c0 -59 11 -89 66 -89c52 0 89 41 89 98v196c0 21 -5 28 -24 29l-24 2v85h187zM149 596l109 204l46 -16
c25 -8 39 -19 42 -43c1 -18 -8 -37 -29 -58l-122 -120zM320 600l119 198l45 -18c27 -11 39 -22 39 -47c0 -19 -11 -37 -33 -56l-128 -113z" />
    <glyph glyph-name="Uogonek" unicode="&#x172;" horiz-adv-x="681" 
d="M597 547v-348c0 -97 -46 -156 -139 -201c-48 -24 -97 -60 -97 -100c0 -19 9 -33 38 -33c20 0 36 4 49 11l24 -72c-19 -11 -59 -23 -98 -23c-84 0 -111 47 -111 92c0 53 37 90 73 114c-167 1 -253 68 -253 228v359l-53 3v88h253v-85l-32 -3c-17 -3 -24 -6 -24 -29v-336
c0 -92 50 -118 122 -118c71 0 115 34 115 113v368l-49 3v87h237v-84l-30 -3c-17 -3 -25 -8 -25 -31z" />
    <glyph glyph-name="uogonek" unicode="&#x173;" horiz-adv-x="586" 
d="M508 507v-392c0 -23 3 -29 22 -32l27 -3v-80c-47 -29 -92 -63 -92 -102c0 -19 9 -33 38 -33c20 0 36 4 49 11l24 -72c-19 -11 -59 -23 -98 -23c-84 0 -111 47 -111 92c0 64 53 102 94 127h-81v64h-3c-29 -51 -81 -78 -148 -78c-103 0 -155 57 -155 170v235
c0 23 -7 28 -24 29l-28 3v84h192v-321c0 -59 11 -89 66 -89c52 0 89 41 89 98v196c0 21 -5 28 -24 29l-24 2v85h187z" />
    <glyph glyph-name="Wcircumflex" unicode="&#x174;" horiz-adv-x="899" 
d="M834 546l-124 -546h-155l-102 429h-4l-100 -429h-158l-132 572l-49 5v88h250v-85l-29 -3c-19 -3 -28 -12 -24 -35l76 -362h2l98 433h143l98 -424h3l80 385l-53 4v87h235v-84l-22 -2c-19 -3 -28 -9 -33 -33zM327 704l-44 40l102 116c23 25 40 34 60 34c23 0 39 -11 68 -43
l96 -106l-44 -41l-120 86z" />
    <glyph glyph-name="wcircumflex" unicode="&#x175;" horiz-adv-x="801" 
d="M352 494h121l93 -354h2l65 278l-48 3v86h209v-82l-29 -3c-19 -3 -23 -9 -28 -29l-103 -393h-144l-84 331h-1l-85 -331h-151l-113 419l-49 6v82h234v-83l-32 -3c-15 -2 -21 -11 -17 -26l63 -253h2zM280 564l-47 37l103 139c20 27 36 40 63 40s40 -10 61 -37l106 -142
l-46 -38l-121 105z" />
    <glyph glyph-name="Wgrave" unicode="&#x1e80;" horiz-adv-x="899" 
d="M834 546l-124 -546h-155l-102 429h-4l-100 -429h-158l-132 572l-49 5v88h250v-85l-29 -3c-19 -3 -28 -12 -24 -35l76 -362h2l98 433h143l98 -424h3l80 385l-53 4v87h235v-84l-22 -2c-19 -3 -28 -9 -33 -33zM388 911l168 -161l-33 -45l-155 79c-32 15 -43 32 -43 55
c0 16 11 32 28 45z" />
    <glyph glyph-name="wgrave" unicode="&#x1e81;" horiz-adv-x="801" 
d="M352 494h121l93 -354h2l65 278l-48 3v86h209v-82l-29 -3c-19 -3 -23 -9 -28 -29l-103 -393h-144l-84 331h-1l-85 -331h-151l-113 419l-49 6v82h234v-83l-32 -3c-15 -2 -21 -11 -17 -26l63 -253h2zM378 798l121 -198l-43 -36l-132 114c-23 19 -30 37 -30 53
c0 25 16 39 45 51z" />
    <glyph glyph-name="Wacute" unicode="&#x1e82;" horiz-adv-x="899" 
d="M834 546l-124 -546h-155l-102 429h-4l-100 -429h-158l-132 572l-49 5v88h250v-85l-29 -3c-19 -3 -28 -12 -24 -35l76 -362h2l98 433h143l98 -424h3l80 385l-53 4v87h235v-84l-22 -2c-19 -3 -28 -9 -33 -33zM361 750l167 162l40 -33c15 -12 23 -22 23 -41
c0 -23 -13 -39 -45 -54l-152 -79z" />
    <glyph glyph-name="wacute" unicode="&#x1e83;" horiz-adv-x="801" 
d="M352 494h121l93 -354h2l65 278l-48 3v86h209v-82l-29 -3c-19 -3 -23 -9 -28 -29l-103 -393h-144l-84 331h-1l-85 -331h-151l-113 419l-49 6v82h234v-83l-32 -3c-15 -2 -21 -11 -17 -26l63 -253h2zM344 600l120 198l47 -19c25 -11 37 -23 37 -46c0 -19 -11 -38 -32 -55
l-129 -114z" />
    <glyph glyph-name="Wdieresis" unicode="&#x1e84;" horiz-adv-x="899" 
d="M834 546l-124 -546h-155l-102 429h-4l-100 -429h-158l-132 572l-49 5v88h250v-85l-29 -3c-19 -3 -28 -12 -24 -35l76 -362h2l98 433h143l98 -424h3l80 385l-53 4v87h235v-84l-22 -2c-19 -3 -28 -9 -33 -33zM478 789c0 40 30 72 77 72c45 0 76 -32 76 -72
c0 -43 -30 -73 -77 -73s-76 30 -76 73zM267 789c0 40 30 72 77 72c45 0 76 -32 76 -72c0 -43 -30 -73 -77 -73s-76 30 -76 73z" />
    <glyph glyph-name="wdieresis" unicode="&#x1e85;" horiz-adv-x="801" 
d="M352 494h121l93 -354h2l65 278l-48 3v86h209v-82l-29 -3c-19 -3 -23 -9 -28 -29l-103 -393h-144l-84 331h-1l-85 -331h-151l-113 419l-49 6v82h234v-83l-32 -3c-15 -2 -21 -11 -17 -26l63 -253h2zM430 650c0 40 30 72 77 72c45 0 76 -32 76 -72c0 -43 -30 -73 -77 -73
s-76 30 -76 73zM223 650c0 40 30 72 77 72c45 0 76 -32 76 -72c0 -43 -30 -73 -77 -73s-76 30 -76 73z" />
    <glyph glyph-name="Ygrave" unicode="&#x1ef2;" horiz-adv-x="584" 
d="M219 118v131l-177 324l-40 4v88h257v-84l-26 -3c-21 -2 -26 -13 -15 -34l87 -176h2l105 206l-46 4v87h212v-84l-21 -2c-19 -3 -26 -12 -37 -32l-157 -294v-162l66 -4v-87h-279v83l41 4c20 3 28 7 28 31zM231 911l168 -161l-33 -45l-155 79c-32 15 -43 32 -43 55
c0 16 11 32 28 45z" />
    <glyph glyph-name="ygrave" unicode="&#x1ef3;" horiz-adv-x="549" 
d="M486 392l-145 -395c-51 -136 -98 -216 -219 -216c-49 0 -100 16 -131 35l33 100c24 -11 51 -21 88 -21c36 0 59 22 78 71l14 36l-153 416l-46 6v83h236v-84l-24 -3c-15 -2 -21 -11 -16 -28l76 -239h3l88 265l-45 3v86h218v-83l-22 -2c-20 -3 -26 -9 -33 -30zM227 798
l121 -198l-43 -36l-132 114c-23 19 -30 37 -30 53c0 25 16 39 45 51z" />
    <glyph glyph-name="Ycircumflex" unicode="&#x176;" horiz-adv-x="584" 
d="M219 118v131l-177 324l-40 4v88h257v-84l-26 -3c-21 -2 -26 -13 -15 -34l87 -176h2l105 206l-46 4v87h212v-84l-21 -2c-19 -3 -26 -12 -37 -32l-157 -294v-162l66 -4v-87h-279v83l41 4c20 3 28 7 28 31zM179 704l-44 40l102 116c23 25 40 34 60 34c23 0 39 -11 68 -43
l96 -106l-44 -41l-120 86z" />
    <glyph glyph-name="ycircumflex" unicode="&#x177;" horiz-adv-x="549" 
d="M486 392l-145 -395c-51 -136 -98 -216 -219 -216c-49 0 -100 16 -131 35l33 100c24 -11 51 -21 88 -21c36 0 59 22 78 71l14 36l-153 416l-46 6v83h236v-84l-24 -3c-15 -2 -21 -11 -16 -28l76 -239h3l88 265l-45 3v86h218v-83l-22 -2c-20 -3 -26 -9 -33 -30zM156 564
l-47 37l103 139c20 27 36 40 63 40s40 -10 61 -37l106 -142l-46 -38l-121 105z" />
    <glyph glyph-name="Ydieresis" unicode="&#x178;" horiz-adv-x="584" 
d="M219 118v131l-177 324l-40 4v88h257v-84l-26 -3c-21 -2 -26 -13 -15 -34l87 -176h2l105 206l-46 4v87h212v-84l-21 -2c-19 -3 -26 -12 -37 -32l-157 -294v-162l66 -4v-87h-279v83l41 4c20 3 28 7 28 31zM325 789c0 40 30 72 77 72c45 0 76 -32 76 -72
c0 -43 -30 -73 -77 -73s-76 30 -76 73zM114 789c0 40 30 72 77 72c45 0 76 -32 76 -72c0 -43 -30 -73 -77 -73s-76 30 -76 73z" />
    <glyph glyph-name="Zacute" unicode="&#x179;" horiz-adv-x="563" 
d="M37 0v96l312 470h-170c-23 0 -28 -8 -28 -29v-68l-110 8v188h473v-96l-312 -471h190c20 0 27 7 27 28v69l110 -8v-187h-492zM194 752l167 162l40 -33c15 -12 23 -22 23 -41c0 -23 -13 -39 -45 -54l-152 -79z" />
    <glyph glyph-name="zacute" unicode="&#x17a;" horiz-adv-x="485" 
d="M37 507h406v-78l-256 -338h129c20 0 28 5 28 28v43l105 -8v-154h-417v80l256 335h-117c-21 0 -29 -5 -29 -26v-45l-105 8v155zM161 600l120 198l47 -19c25 -11 37 -23 37 -46c0 -19 -11 -38 -32 -55l-129 -114z" />
    <glyph glyph-name="Zdotaccent" unicode="&#x17b;" horiz-adv-x="563" 
d="M37 0v96l312 470h-170c-23 0 -28 -8 -28 -29v-68l-110 8v188h473v-96l-312 -471h190c20 0 27 7 27 28v69l110 -8v-187h-492zM199 799c0 43 32 77 83 77c49 0 84 -30 84 -74c0 -47 -35 -79 -84 -79c-51 0 -83 32 -83 76z" />
    <glyph glyph-name="zdotaccent" unicode="&#x17c;" horiz-adv-x="485" 
d="M37 507h406v-78l-256 -338h129c20 0 28 5 28 28v43l105 -8v-154h-417v80l256 335h-117c-21 0 -29 -5 -29 -26v-45l-105 8v155zM155 650c0 43 32 77 83 77c49 0 84 -30 84 -74c0 -47 -35 -79 -84 -79c-51 0 -83 32 -83 76z" />
    <glyph glyph-name="Zcaron" unicode="&#x17d;" horiz-adv-x="563" 
d="M37 0v96l312 470h-170c-23 0 -28 -8 -28 -29v-68l-110 8v188h473v-96l-312 -471h190c20 0 27 7 27 28v69l110 -8v-187h-492zM164 894l119 -87l119 87l44 -40l-104 -117c-23 -25 -39 -33 -59 -33s-37 8 -60 33l-104 117z" />
    <glyph glyph-name="zcaron" unicode="&#x17e;" horiz-adv-x="485" 
d="M37 507h406v-78l-256 -338h129c20 0 28 5 28 28v43l105 -8v-154h-417v80l256 335h-117c-21 0 -29 -5 -29 -26v-45l-105 8v155zM362 780l47 -37l-105 -142c-20 -27 -34 -38 -61 -38s-40 10 -61 38l-107 141l47 38l121 -104z" />
    <glyph glyph-name="longs" unicode="&#x17f;" horiz-adv-x="372" 
d="M22 412v95h67v33c0 98 33 184 173 184c51 0 109 -16 148 -36l-33 -90c-30 14 -58 21 -85 21c-43 0 -64 -22 -64 -75v-457l80 -4v-83h-274v79l31 3c19 3 24 8 24 33v297h-67z" />
    <glyph glyph-name="dotlessj" unicode="&#x237;" horiz-adv-x="289" 
d="M218 507v-539c0 -87 -11 -184 -160 -184c-45 0 -102 13 -141 36l37 99c24 -13 47 -19 70 -19c35 0 54 20 54 76v414c0 21 -5 29 -24 30l-33 3v84h197z" />
    <glyph glyph-name="circumflex" unicode="&#x2c6;" horiz-adv-x="500" 
d="M129 564l-47 37l103 139c20 27 36 40 63 40s40 -10 61 -37l106 -142l-46 -38l-121 105z" />
    <glyph glyph-name="caron" unicode="&#x2c7;" horiz-adv-x="500" 
d="M366 780l47 -37l-105 -142c-20 -27 -34 -38 -61 -38s-40 10 -61 38l-107 141l47 38l121 -104z" />
    <glyph glyph-name="uni02C9" unicode="&#x2c9;" horiz-adv-x="500" 
d="M98 607v98h300v-98h-300z" />
    <glyph glyph-name="breve" unicode="&#x2d8;" horiz-adv-x="500" 
d="M342 733l78 -20c-24 -86 -74 -148 -171 -148c-107 0 -152 72 -168 148l81 19c19 -60 46 -81 91 -81c39 0 69 21 89 82z" />
    <glyph glyph-name="dieresis" unicode="&#xa8;" horiz-adv-x="500" 
d="M281 650c0 40 30 72 77 72c45 0 76 -32 76 -72c0 -43 -30 -73 -77 -73s-76 30 -76 73zM74 650c0 40 30 72 77 72c45 0 76 -32 76 -72c0 -43 -30 -73 -77 -73s-76 30 -76 73z" />
    <glyph glyph-name="macron" unicode="&#xaf;" horiz-adv-x="500" 
d="M98 607v98h300v-98h-300z" />
    <glyph glyph-name="degree" unicode="&#xb0;" horiz-adv-x="298" 
d="M31 599c0 69 47 121 118 121c74 0 117 -54 117 -115c0 -72 -48 -125 -120 -125c-73 0 -115 52 -115 119zM99 599c0 -33 17 -58 50 -58c32 0 50 26 50 58c0 35 -17 59 -50 59c-35 0 -50 -24 -50 -59z" />
    <glyph glyph-name="acute" unicode="&#xb4;" horiz-adv-x="500" 
d="M144 600l120 198l47 -19c25 -11 37 -23 37 -46c0 -19 -11 -38 -32 -55l-129 -114z" />
    <glyph glyph-name="grave" unicode="`" horiz-adv-x="500" 
d="M233 798l121 -198l-43 -36l-132 114c-23 19 -30 37 -30 53c0 25 16 39 45 51z" />
    <glyph glyph-name="cedilla" unicode="&#xb8;" horiz-adv-x="500" 
d="M212 3h62l-16 -51c53 -3 94 -28 94 -79c0 -77 -69 -98 -125 -98c-37 0 -71 7 -94 18l18 60c15 -5 44 -13 67 -13c33 0 50 11 50 32c0 29 -40 32 -91 32z" />
    <glyph glyph-name="dotaccent" unicode="&#x2d9;" horiz-adv-x="500" 
d="M167 650c0 43 32 77 83 77c49 0 84 -30 84 -74c0 -47 -35 -79 -84 -79c-51 0 -83 32 -83 76z" />
    <glyph glyph-name="ring" unicode="&#x2da;" horiz-adv-x="500" 
d="M141 674c0 63 45 107 109 107c69 0 109 -46 109 -102c0 -65 -44 -111 -111 -111c-69 0 -107 46 -107 106zM210 674c0 -27 13 -45 40 -45s39 18 39 45s-12 46 -39 46c-28 0 -40 -19 -40 -46z" />
    <glyph glyph-name="ogonek" unicode="&#x2db;" horiz-adv-x="500" 
d="M228 5l84 3l4 -7c-46 -30 -93 -62 -93 -103c0 -19 9 -33 38 -33c20 0 36 4 49 11l24 -72c-19 -11 -59 -23 -98 -23c-84 0 -111 47 -111 92c0 67 61 108 103 132z" />
    <glyph glyph-name="tilde" unicode="&#x2dc;" horiz-adv-x="500" 
d="M136 597l-53 28c29 69 64 91 103 91c47 0 97 -28 133 -28c19 0 34 10 45 29l55 -30c-23 -63 -54 -88 -101 -88c-43 0 -94 27 -131 27c-23 0 -35 -8 -51 -29z" />
    <glyph glyph-name="hungarumlaut" unicode="&#x2dd;" horiz-adv-x="500" 
d="M79 596l109 204l46 -16c25 -8 39 -19 42 -43c1 -18 -8 -37 -29 -58l-122 -120zM250 600l119 198l45 -18c27 -11 39 -22 39 -47c0 -19 -11 -37 -33 -56l-128 -113z" />
    <glyph glyph-name="perthousand" unicode="&#x2030;" horiz-adv-x="939" 
d="M773 295c79 0 136 -48 136 -153c0 -107 -58 -157 -142 -157c-87 0 -135 51 -135 155s60 155 141 155zM769 49c28 0 51 21 51 92c0 68 -21 89 -49 89c-31 0 -51 -23 -51 -94c0 -64 18 -87 49 -87zM463 295c79 0 137 -48 137 -153c0 -107 -58 -157 -142 -157
c-87 0 -136 51 -136 155c0 103 61 155 141 155zM459 49c28 0 52 21 52 92c0 68 -21 89 -50 89c-31 0 -50 -23 -50 -94c0 -64 19 -87 48 -87zM172 657c79 0 136 -48 136 -153c0 -107 -58 -157 -142 -157c-87 0 -135 51 -135 155s60 155 141 155zM168 410c28 0 52 22 52 93
c0 68 -22 89 -50 89c-31 0 -51 -23 -51 -94c0 -64 18 -88 49 -88zM125 102l-60 74l440 368l62 -74z" />
    <glyph glyph-name="percent" unicode="%" horiz-adv-x="809" 
d="M620 349c93 0 156 -55 156 -178c0 -125 -61 -186 -162 -186s-155 59 -155 182s65 182 161 182zM616 55c34 0 61 26 61 113c0 84 -24 111 -59 111c-37 0 -61 -29 -61 -116c0 -80 24 -108 59 -108zM195 657c93 0 156 -56 156 -179c0 -125 -61 -186 -162 -186
s-155 59 -155 182s65 183 161 183zM191 362c34 0 61 26 61 113c0 84 -24 111 -59 111c-37 0 -61 -30 -61 -115c0 -81 24 -109 59 -109zM302 -11l-89 39l292 626l91 -38z" />
    <glyph glyph-name="fraction" unicode="&#x2044;" horiz-adv-x="155" 
d="M-46 -43l-79 36l324 693l81 -35z" />
    <glyph glyph-name="zerosuperior" unicode="&#x2070;" horiz-adv-x="367" 
d="M186 737c92 0 160 -52 160 -198c0 -139 -61 -203 -165 -203c-100 0 -161 57 -161 200c0 137 67 201 166 201zM183 414c40 0 65 30 65 124c0 91 -25 122 -65 122c-43 0 -66 -35 -66 -128c0 -88 22 -118 66 -118z" />
    <glyph glyph-name="onesuperior" unicode="&#xb9;" horiz-adv-x="341" 
d="M67 417l52 3c15 1 22 7 22 23v185l-78 -34l-31 64l128 73h80v-310l68 -4v-76h-241v76z" />
    <glyph glyph-name="twosuperior" unicode="&#xb2;" horiz-adv-x="349" 
d="M30 600v100c47 24 92 37 143 37c92 0 133 -44 133 -104c0 -48 -22 -81 -58 -122l-79 -89h149v-81h-281v63l123 140c24 27 39 51 39 76c0 27 -17 39 -44 39c-12 0 -25 -1 -34 -4c-12 -4 -14 -9 -14 -25v-36z" />
    <glyph glyph-name="threesuperior" unicode="&#xb3;" horiz-adv-x="333" 
d="M33 611v96c41 19 88 30 131 30c84 0 128 -43 128 -98c0 -39 -22 -68 -54 -91c43 -19 59 -50 59 -89c0 -64 -45 -123 -145 -123c-56 0 -104 16 -131 31l26 72c28 -15 63 -26 95 -26c36 0 59 11 59 48c0 31 -24 46 -72 46h-30l6 64h54c20 11 35 26 35 54
c0 31 -24 37 -43 37c-13 0 -19 -2 -30 -5c-9 -3 -14 -8 -14 -20v-32z" />
    <glyph glyph-name="foursuperior" unicode="&#x2074;" horiz-adv-x="372" 
d="M231 598h58v-103h57v-73h-58v-81h-96v83h-161v57l121 262l79 -37l-102 -211h65l3 32z" />
    <glyph glyph-name="fivesuperior" unicode="&#x2075;" horiz-adv-x="329" 
d="M47 525l28 206h114c16 0 20 6 20 22v23l75 -6v-114h-144l-9 -68c101 -5 166 -32 166 -122c0 -62 -33 -130 -153 -130c-57 0 -115 23 -128 33l28 72c21 -12 59 -28 96 -28c43 0 59 19 59 50c0 55 -72 62 -152 62z" />
    <glyph glyph-name="sixsuperior" unicode="&#x2076;" horiz-adv-x="358" 
d="M248 750l21 -71c-87 -11 -127 -51 -139 -108c25 16 54 26 87 26c72 0 115 -46 115 -123s-48 -138 -147 -138c-97 0 -149 65 -149 177c0 107 51 218 212 237zM242 467c0 39 -14 61 -53 61c-21 0 -43 -9 -59 -20c0 -48 9 -98 59 -98c29 0 53 17 53 57z" />
    <glyph glyph-name="sevensuperior" unicode="&#x2077;" horiz-adv-x="318" 
d="M211 663h-93c-16 0 -19 -7 -19 -22v-30l-76 6v114h289v-56l-153 -334h-101z" />
    <glyph glyph-name="eightsuperior" unicode="&#x2078;" horiz-adv-x="340" 
d="M23 439c0 54 40 91 78 107c-35 16 -65 46 -65 89c0 57 50 102 137 102c95 0 129 -46 129 -90c0 -41 -27 -70 -62 -93c49 -24 78 -56 78 -104c0 -59 -43 -114 -151 -114c-113 0 -144 56 -144 103zM221 447c0 28 -30 47 -59 60c-28 -12 -50 -34 -50 -61
c0 -21 14 -43 55 -43c37 0 54 21 54 44zM172 676c-31 0 -45 -16 -45 -35c0 -20 18 -36 51 -53c20 15 39 34 39 55c0 19 -14 33 -45 33z" />
    <glyph glyph-name="ninesuperior" unicode="&#x2079;" horiz-adv-x="358" 
d="M113 321l-21 73c84 12 133 56 141 107c-27 -16 -53 -25 -88 -25c-72 0 -116 47 -116 123c0 78 51 138 148 138s148 -65 148 -177c0 -109 -44 -215 -212 -239zM119 605c0 -39 16 -60 55 -60c21 0 43 8 58 19c0 45 -11 99 -60 99c-28 0 -53 -17 -53 -58z" />
    <glyph glyph-name="zeroinferior" unicode="&#x2080;" horiz-adv-x="367" 
d="M186 316c92 0 160 -52 160 -198c0 -139 -61 -203 -165 -203c-100 0 -161 57 -161 200c0 137 67 201 166 201zM183 -7c40 0 65 30 65 124c0 91 -25 122 -65 122c-43 0 -66 -35 -66 -128c0 -88 22 -118 66 -118z" />
    <glyph glyph-name="oneinferior" unicode="&#x2081;" horiz-adv-x="341" 
d="M67 -4l52 3c15 1 22 7 22 23v185l-78 -34l-31 64l128 73h80v-310l68 -4v-76h-241v76z" />
    <glyph glyph-name="twoinferior" unicode="&#x2082;" horiz-adv-x="349" 
d="M30 179v100c47 24 92 37 143 37c92 0 133 -44 133 -104c0 -48 -22 -81 -58 -122l-79 -89h149v-81h-281v63l123 140c24 27 39 51 39 76c0 27 -17 39 -44 39c-12 0 -25 -1 -34 -4c-12 -4 -14 -9 -14 -25v-36z" />
    <glyph glyph-name="threeinferior" unicode="&#x2083;" horiz-adv-x="333" 
d="M33 190v96c41 19 88 30 131 30c84 0 128 -43 128 -98c0 -39 -22 -68 -54 -91c43 -19 59 -50 59 -89c0 -64 -45 -123 -145 -123c-56 0 -104 16 -131 31l26 72c28 -15 63 -26 95 -26c36 0 59 11 59 48c0 31 -24 46 -72 46h-30l6 64h54c20 11 35 26 35 54
c0 31 -24 37 -43 37c-13 0 -19 -2 -30 -5c-9 -3 -14 -8 -14 -20v-32z" />
    <glyph glyph-name="fourinferior" unicode="&#x2084;" horiz-adv-x="372" 
d="M231 177h58v-103h57v-73h-58v-81h-96v83h-161v57l121 262l79 -37l-102 -211h65l3 32z" />
    <glyph glyph-name="fiveinferior" unicode="&#x2085;" horiz-adv-x="329" 
d="M47 104l28 206h114c16 0 20 6 20 22v23l75 -6v-114h-144l-9 -68c101 -5 166 -32 166 -122c0 -62 -33 -130 -153 -130c-57 0 -115 23 -128 33l28 72c21 -12 59 -28 96 -28c43 0 59 19 59 50c0 55 -72 62 -152 62z" />
    <glyph glyph-name="sixinferior" unicode="&#x2086;" horiz-adv-x="358" 
d="M248 329l21 -71c-87 -11 -127 -51 -139 -108c25 16 54 26 87 26c72 0 115 -46 115 -123s-48 -138 -147 -138c-97 0 -149 65 -149 177c0 107 51 218 212 237zM242 46c0 39 -14 61 -53 61c-21 0 -43 -9 -59 -20c0 -48 9 -98 59 -98c29 0 53 17 53 57z" />
    <glyph glyph-name="seveninferior" unicode="&#x2087;" horiz-adv-x="318" 
d="M211 242h-93c-16 0 -19 -7 -19 -22v-30l-76 6v114h289v-56l-153 -334h-101z" />
    <glyph glyph-name="eightinferior" unicode="&#x2088;" horiz-adv-x="340" 
d="M23 18c0 54 40 91 78 107c-35 16 -65 46 -65 89c0 57 50 102 137 102c95 0 129 -46 129 -90c0 -41 -27 -70 -62 -93c49 -24 78 -56 78 -104c0 -59 -43 -114 -151 -114c-113 0 -144 56 -144 103zM221 26c0 28 -30 47 -59 60c-28 -12 -50 -34 -50 -61c0 -21 14 -43 55 -43
c37 0 54 21 54 44zM172 255c-31 0 -45 -16 -45 -35c0 -20 18 -36 51 -53c20 15 39 34 39 55c0 19 -14 33 -45 33z" />
    <glyph glyph-name="nineinferior" unicode="&#x2089;" horiz-adv-x="358" 
d="M113 -100l-21 73c84 12 133 56 141 107c-27 -16 -53 -25 -88 -25c-72 0 -116 47 -116 123c0 78 51 138 148 138s148 -65 148 -177c0 -109 -44 -215 -212 -239zM119 184c0 -39 16 -60 55 -60c21 0 43 8 58 19c0 45 -11 99 -60 99c-28 0 -53 -17 -53 -58z" />
    <glyph glyph-name="zero.num" horiz-adv-x="367" 
d="M186 657c92 0 160 -52 160 -198c0 -139 -61 -203 -165 -203c-100 0 -161 57 -161 200c0 137 67 201 166 201zM183 334c40 0 65 30 65 124c0 91 -25 122 -65 122c-43 0 -66 -35 -66 -128c0 -88 22 -118 66 -118z" />
    <glyph glyph-name="one.num" horiz-adv-x="341" 
d="M67 337l52 3c15 1 22 7 22 23v185l-78 -34l-31 64l128 73h80v-310l68 -4v-76h-241v76z" />
    <glyph glyph-name="two.num" horiz-adv-x="349" 
d="M30 520v100c47 24 92 37 143 37c92 0 133 -44 133 -104c0 -48 -22 -81 -58 -122l-79 -89h149v-81h-281v63l123 140c24 27 39 51 39 76c0 27 -17 39 -44 39c-12 0 -25 -1 -34 -4c-12 -4 -14 -9 -14 -25v-36z" />
    <glyph glyph-name="three.num" horiz-adv-x="333" 
d="M33 531v96c41 19 88 30 131 30c84 0 128 -43 128 -98c0 -39 -22 -68 -54 -91c43 -19 59 -50 59 -89c0 -64 -45 -123 -145 -123c-56 0 -104 16 -131 31l26 72c28 -15 63 -26 95 -26c36 0 59 11 59 48c0 31 -24 46 -72 46h-30l6 64h54c20 11 35 26 35 54
c0 31 -24 37 -43 37c-13 0 -19 -2 -30 -5c-9 -3 -14 -8 -14 -20v-32z" />
    <glyph glyph-name="four.num" horiz-adv-x="372" 
d="M231 518h58v-103h57v-73h-58v-81h-96v83h-161v57l121 262l79 -37l-102 -211h65l3 32z" />
    <glyph glyph-name="five.num" horiz-adv-x="329" 
d="M47 445l28 206h114c16 0 20 6 20 22v23l75 -6v-114h-144l-9 -68c101 -5 166 -32 166 -122c0 -62 -33 -130 -153 -130c-57 0 -115 23 -128 33l28 72c21 -12 59 -28 96 -28c43 0 59 19 59 50c0 55 -72 62 -152 62z" />
    <glyph glyph-name="six.num" horiz-adv-x="358" 
d="M248 670l21 -71c-87 -11 -127 -51 -139 -108c25 16 54 26 87 26c72 0 115 -46 115 -123s-48 -138 -147 -138c-97 0 -149 65 -149 177c0 107 51 218 212 237zM242 387c0 39 -14 61 -53 61c-21 0 -43 -9 -59 -20c0 -48 9 -98 59 -98c29 0 53 17 53 57z" />
    <glyph glyph-name="seven.num" horiz-adv-x="318" 
d="M211 583h-93c-16 0 -19 -7 -19 -22v-30l-76 6v114h289v-56l-153 -334h-101z" />
    <glyph glyph-name="eight.num" horiz-adv-x="340" 
d="M23 359c0 54 40 91 78 107c-35 16 -65 46 -65 89c0 57 50 102 137 102c95 0 129 -46 129 -90c0 -41 -27 -70 -62 -93c49 -24 78 -56 78 -104c0 -59 -43 -114 -151 -114c-113 0 -144 56 -144 103zM221 367c0 28 -30 47 -59 60c-28 -12 -50 -34 -50 -61
c0 -21 14 -43 55 -43c37 0 54 21 54 44zM172 596c-31 0 -45 -16 -45 -35c0 -20 18 -36 51 -53c20 15 39 34 39 55c0 19 -14 33 -45 33z" />
    <glyph glyph-name="nine.num" horiz-adv-x="358" 
d="M113 241l-21 73c84 12 133 56 141 107c-27 -16 -53 -25 -88 -25c-72 0 -116 47 -116 123c0 78 51 138 148 138s148 -65 148 -177c0 -109 -44 -215 -212 -239zM119 525c0 -39 16 -60 55 -60c21 0 43 8 58 19c0 45 -11 99 -60 99c-28 0 -53 -17 -53 -58z" />
    <glyph glyph-name="zero.denom" horiz-adv-x="367" 
d="M186 396c92 0 160 -52 160 -198c0 -139 -61 -203 -165 -203c-100 0 -161 57 -161 200c0 137 67 201 166 201zM183 73c40 0 65 30 65 124c0 91 -25 122 -65 122c-43 0 -66 -35 -66 -128c0 -88 22 -118 66 -118z" />
    <glyph glyph-name="one.denom" horiz-adv-x="341" 
d="M67 76l52 3c15 1 22 7 22 23v185l-78 -34l-31 64l128 73h80v-310l68 -4v-76h-241v76z" />
    <glyph glyph-name="two.denom" horiz-adv-x="349" 
d="M30 259v100c47 24 92 37 143 37c92 0 133 -44 133 -104c0 -48 -22 -81 -58 -122l-79 -89h149v-81h-281v63l123 140c24 27 39 51 39 76c0 27 -17 39 -44 39c-12 0 -25 -1 -34 -4c-12 -4 -14 -9 -14 -25v-36z" />
    <glyph glyph-name="three.denom" horiz-adv-x="333" 
d="M33 270v96c41 19 88 30 131 30c84 0 128 -43 128 -98c0 -39 -22 -68 -54 -91c43 -19 59 -50 59 -89c0 -64 -45 -123 -145 -123c-56 0 -104 16 -131 31l26 72c28 -15 63 -26 95 -26c36 0 59 11 59 48c0 31 -24 46 -72 46h-30l6 64h54c20 11 35 26 35 54
c0 31 -24 37 -43 37c-13 0 -19 -2 -30 -5c-9 -3 -14 -8 -14 -20v-32z" />
    <glyph glyph-name="four.denom" horiz-adv-x="372" 
d="M231 257h58v-103h57v-73h-58v-81h-96v83h-161v57l121 262l79 -37l-102 -211h65l3 32z" />
    <glyph glyph-name="five.denom" horiz-adv-x="329" 
d="M47 184l28 206h114c16 0 20 6 20 22v23l75 -6v-114h-144l-9 -68c101 -5 166 -32 166 -122c0 -62 -33 -130 -153 -130c-57 0 -115 23 -128 33l28 72c21 -12 59 -28 96 -28c43 0 59 19 59 50c0 55 -72 62 -152 62z" />
    <glyph glyph-name="six.denom" horiz-adv-x="358" 
d="M248 409l21 -71c-87 -11 -127 -51 -139 -108c25 16 54 26 87 26c72 0 115 -46 115 -123s-48 -138 -147 -138c-97 0 -149 65 -149 177c0 107 51 218 212 237zM242 126c0 39 -14 61 -53 61c-21 0 -43 -9 -59 -20c0 -48 9 -98 59 -98c29 0 53 17 53 57z" />
    <glyph glyph-name="seven.denom" horiz-adv-x="318" 
d="M211 322h-93c-16 0 -19 -7 -19 -22v-30l-76 6v114h289v-56l-153 -334h-101z" />
    <glyph glyph-name="eight.denom" horiz-adv-x="340" 
d="M23 98c0 54 40 91 78 107c-35 16 -65 46 -65 89c0 57 50 102 137 102c95 0 129 -46 129 -90c0 -41 -27 -70 -62 -93c49 -24 78 -56 78 -104c0 -59 -43 -114 -151 -114c-113 0 -144 56 -144 103zM221 106c0 28 -30 47 -59 60c-28 -12 -50 -34 -50 -61c0 -21 14 -43 55 -43
c37 0 54 21 54 44zM172 335c-31 0 -45 -16 -45 -35c0 -20 18 -36 51 -53c20 15 39 34 39 55c0 19 -14 33 -45 33z" />
    <glyph glyph-name="nine.denom" horiz-adv-x="358" 
d="M113 -20l-21 73c84 12 133 56 141 107c-27 -16 -53 -25 -88 -25c-72 0 -116 47 -116 123c0 78 51 138 148 138s148 -65 148 -177c0 -109 -44 -215 -212 -239zM119 264c0 -39 16 -60 55 -60c21 0 43 8 58 19c0 45 -11 99 -60 99c-28 0 -53 -17 -53 -58z" />
    <glyph glyph-name="onehalf" unicode="&#xbd;" horiz-adv-x="837" 
d="M293 -43l-79 36l324 693l81 -35zM53 337l52 3c15 1 22 7 22 23v185l-78 -34l-31 64l128 73h80v-310l68 -4v-76h-241v76zM521 259v100c47 24 92 37 143 37c92 0 133 -44 133 -104c0 -48 -22 -81 -58 -122l-79 -89h149v-81h-281v63l123 140c24 27 39 51 39 76
c0 27 -17 39 -44 39c-12 0 -25 -1 -34 -4c-12 -4 -14 -9 -14 -25v-36z" />
    <glyph glyph-name="onequarter" unicode="&#xbc;" horiz-adv-x="837" 
d="M305 -43l-79 36l324 693l81 -35zM47 337l52 3c15 1 22 7 22 23v185l-78 -34l-31 64l128 73h80v-310l68 -4v-76h-241v76zM700 257h58v-103h57v-73h-58v-81h-96v83h-161v57l121 262l79 -37l-102 -211h65l3 32z" />
    <glyph glyph-name="threequarters" unicode="&#xbe;" horiz-adv-x="837" 
d="M300 -43l-79 36l324 693l81 -35zM697 257h58v-103h57v-73h-58v-81h-96v83h-161v57l121 262l79 -37l-102 -211h65l3 32zM42 531v96c41 19 88 30 131 30c84 0 128 -43 128 -98c0 -39 -22 -68 -54 -91c43 -19 59 -50 59 -89c0 -64 -45 -123 -145 -123c-56 0 -104 16 -131 31
l26 72c28 -15 63 -26 95 -26c36 0 59 11 59 48c0 31 -24 46 -72 46h-30l6 64h54c20 11 35 26 35 54c0 31 -24 37 -43 37c-13 0 -19 -2 -30 -5c-9 -3 -14 -8 -14 -20v-32z" />
    <glyph glyph-name="onethird" unicode="&#x2153;" horiz-adv-x="837" 
d="M295 -43l-79 36l324 693l81 -35zM52 337l52 3c15 1 22 7 22 23v185l-78 -34l-31 64l128 73h80v-310l68 -4v-76h-241v76zM541 270v96c41 19 88 30 131 30c84 0 128 -43 128 -98c0 -39 -22 -68 -54 -91c43 -19 59 -50 59 -89c0 -64 -45 -123 -145 -123
c-56 0 -104 16 -131 31l26 72c28 -15 63 -26 95 -26c36 0 59 11 59 48c0 31 -24 46 -72 46h-30l6 64h54c20 11 35 26 35 54c0 31 -24 37 -43 37c-13 0 -19 -2 -30 -5c-9 -3 -14 -8 -14 -20v-32z" />
    <glyph glyph-name="twothirds" unicode="&#x2154;" horiz-adv-x="837" 
d="M305 -43l-79 36l324 693l81 -35zM18 520v100c47 24 92 37 143 37c92 0 133 -44 133 -104c0 -48 -22 -81 -58 -122l-79 -89h149v-81h-281v63l123 140c24 27 39 51 39 76c0 27 -17 39 -44 39c-12 0 -25 -1 -34 -4c-12 -4 -14 -9 -14 -25v-36zM545 270v96
c41 19 88 30 131 30c84 0 128 -43 128 -98c0 -39 -22 -68 -54 -91c43 -19 59 -50 59 -89c0 -64 -45 -123 -145 -123c-56 0 -104 16 -131 31l26 72c28 -15 63 -26 95 -26c36 0 59 11 59 48c0 31 -24 46 -72 46h-30l6 64h54c20 11 35 26 35 54c0 31 -24 37 -43 37
c-13 0 -19 -2 -30 -5c-9 -3 -14 -8 -14 -20v-32z" />
    <glyph glyph-name="oneeighth" unicode="&#x215b;" horiz-adv-x="837" 
d="M293 -43l-79 36l324 693l81 -35zM48 337l52 3c15 1 22 7 22 23v185l-78 -34l-31 64l128 73h80v-310l68 -4v-76h-241v76zM517 98c0 54 40 91 78 107c-35 16 -65 46 -65 89c0 57 50 102 137 102c95 0 129 -46 129 -90c0 -41 -27 -70 -62 -93c49 -24 78 -56 78 -104
c0 -59 -43 -114 -151 -114c-113 0 -144 56 -144 103zM715 106c0 28 -30 47 -59 60c-28 -12 -50 -34 -50 -61c0 -21 14 -43 55 -43c37 0 54 21 54 44zM666 335c-31 0 -45 -16 -45 -35c0 -20 18 -36 51 -53c20 15 39 34 39 55c0 19 -14 33 -45 33z" />
    <glyph glyph-name="threeeighths" unicode="&#x215c;" horiz-adv-x="837" 
d="M293 -43l-79 36l324 693l81 -35zM521 98c0 54 40 91 78 107c-35 16 -65 46 -65 89c0 57 50 102 137 102c95 0 129 -46 129 -90c0 -41 -27 -70 -62 -93c49 -24 78 -56 78 -104c0 -59 -43 -114 -151 -114c-113 0 -144 56 -144 103zM719 106c0 28 -30 47 -59 60
c-28 -12 -50 -34 -50 -61c0 -21 14 -43 55 -43c37 0 54 21 54 44zM670 335c-31 0 -45 -16 -45 -35c0 -20 18 -36 51 -53c20 15 39 34 39 55c0 19 -14 33 -45 33zM38 531v96c41 19 88 30 131 30c84 0 128 -43 128 -98c0 -39 -22 -68 -54 -91c43 -19 59 -50 59 -89
c0 -64 -45 -123 -145 -123c-56 0 -104 16 -131 31l26 72c28 -15 63 -26 95 -26c36 0 59 11 59 48c0 31 -24 46 -72 46h-30l6 64h54c20 11 35 26 35 54c0 31 -24 37 -43 37c-13 0 -19 -2 -30 -5c-9 -3 -14 -8 -14 -20v-32z" />
    <glyph glyph-name="fiveeighths" unicode="&#x215d;" horiz-adv-x="837" 
d="M290 -43l-79 36l324 693l81 -35zM56 445l28 206h114c16 0 20 6 20 22v23l75 -6v-114h-144l-9 -68c101 -5 166 -32 166 -122c0 -62 -33 -130 -153 -130c-57 0 -115 23 -128 33l28 72c21 -12 59 -28 96 -28c43 0 59 19 59 50c0 55 -72 62 -152 62zM513 98
c0 54 40 91 78 107c-35 16 -65 46 -65 89c0 57 50 102 137 102c95 0 129 -46 129 -90c0 -41 -27 -70 -62 -93c49 -24 78 -56 78 -104c0 -59 -43 -114 -151 -114c-113 0 -144 56 -144 103zM711 106c0 28 -30 47 -59 60c-28 -12 -50 -34 -50 -61c0 -21 14 -43 55 -43
c37 0 54 21 54 44zM662 335c-31 0 -45 -16 -45 -35c0 -20 18 -36 51 -53c20 15 39 34 39 55c0 19 -14 33 -45 33z" />
    <glyph glyph-name="seveneighths" unicode="&#x215e;" horiz-adv-x="837" 
d="M253 -43l-79 36l324 693l81 -35zM491 98c0 54 40 91 78 107c-35 16 -65 46 -65 89c0 57 50 102 137 102c95 0 129 -46 129 -90c0 -41 -27 -70 -62 -93c49 -24 78 -56 78 -104c0 -59 -43 -114 -151 -114c-113 0 -144 56 -144 103zM689 106c0 28 -30 47 -59 60
c-28 -12 -50 -34 -50 -61c0 -21 14 -43 55 -43c37 0 54 21 54 44zM640 335c-31 0 -45 -16 -45 -35c0 -20 18 -36 51 -53c20 15 39 34 39 55c0 19 -14 33 -45 33zM222 583h-93c-16 0 -19 -7 -19 -22v-30l-76 6v114h289v-56l-153 -334h-101z" />
    <glyph glyph-name="minus" unicode="&#x2212;" 
d="M470 368v-112h-405v112h405z" />
    <glyph glyph-name="uni2215" unicode="&#x2215;" horiz-adv-x="171" 
d="M-38 -43l-79 36l324 693l81 -35z" />
    <glyph glyph-name="uni2219" unicode="&#x2219;" horiz-adv-x="315" 
d="M79 335c0 41 27 72 74 72c49 0 76 -28 76 -71s-26 -74 -73 -74c-51 0 -77 30 -77 73z" />
    <glyph glyph-name="approxequal" unicode="&#x2248;" horiz-adv-x="645" 
d="M433 123c-93 0 -154 68 -210 68c-39 0 -67 -30 -96 -66l-79 67c41 60 88 112 160 112c81 0 143 -72 212 -72c36 0 64 22 96 66l80 -68c-40 -68 -94 -107 -163 -107zM431 348c-93 0 -154 69 -210 69c-39 0 -67 -30 -95 -66l-80 66c41 60 88 112 161 112
c80 0 143 -71 212 -71c36 0 64 22 95 65l80 -67c-39 -68 -94 -108 -163 -108z" />
    <glyph glyph-name="notequal" unicode="&#x2260;" 
d="M470 260v-112h-195l-25 -93h-115l25 93h-95v112h126l25 88h-151v112h182l27 94h109l-25 -94h112v-112h-142l-24 -88h166z" />
    <glyph glyph-name="lessequal" unicode="&#x2264;" 
d="M465 128v-113h-395v113h395zM472 495l-245 -114l247 -118l-48 -105l-354 173v93l353 175z" />
    <glyph glyph-name="greaterequal" unicode="&#x2265;" 
d="M71 15v113h395v-113h-395zM309 381l-245 114l47 104l353 -175v-93l-354 -173l-48 105z" />
    <glyph glyph-name="less" unicode="&#x3c;" 
d="M434 545l47 -104l-259 -119l261 -127l-49 -105l-370 185v87z" />
    <glyph glyph-name="equal" unicode="=" 
d="M470 460v-112h-405v112h405zM470 260v-112h-405v112h405z" />
    <glyph glyph-name="greater" unicode="&#x3e;" 
d="M113 90l-47 104l259 119l-261 127l49 105l370 -185v-87z" />
    <glyph glyph-name="logicalnot" unicode="&#xac;" 
d="M371 158v146h-319v112h429v-258h-110z" />
    <glyph glyph-name="plus" unicode="+" 
d="M209 370v155h116v-155h146v-114h-146v-153h-116v153h-146v114h146z" />
    <glyph glyph-name="plusminus" unicode="&#xb1;" 
d="M207 373v152h117v-152h146v-114h-146v-118h146v-113h-405v113h142v118h-142v114h142z" />
    <glyph glyph-name="divide" unicode="&#xf7;" 
d="M199 122c0 39 25 73 69 73s70 -29 70 -72c0 -41 -27 -74 -70 -74c-44 0 -69 30 -69 73zM199 507c0 39 25 73 69 73s70 -29 70 -72c0 -41 -27 -74 -70 -74c-44 0 -69 30 -69 73zM470 368v-112h-405v112h405z" />
    <glyph glyph-name="multiply" unicode="&#xd7;" 
d="M186 312l-109 110l82 82l110 -109l107 107l80 -80l-107 -108l109 -108l-83 -83l-109 108l-109 -109l-80 81z" />
    <glyph glyph-name="partialdiff" unicode="&#x2202;" horiz-adv-x="557" 
d="M133 571l26 98c254 -46 338 -193 338 -397c0 -153 -56 -288 -226 -288c-159 0 -220 104 -220 223c0 129 81 215 197 215c45 0 86 -14 121 -37c0 1 0 2 1 2c-21 100 -131 165 -237 184zM273 82c69 0 94 72 94 170c0 11 0 22 -1 34c-24 21 -60 39 -95 39
c-59 0 -88 -47 -88 -120c0 -80 31 -123 90 -123z" />
    <glyph glyph-name="Omega" unicode="&#x2126;" horiz-adv-x="776" 
d="M737 0h-300v158c57 32 132 81 132 204c0 121 -75 186 -174 186c-96 0 -183 -62 -183 -191c0 -126 63 -164 136 -196v-161h-302v142l105 8v-31c0 -20 5 -27 24 -27h96v26c-127 31 -203 105 -203 248c0 181 145 301 328 301c190 0 316 -108 316 -285
c0 -140 -101 -231 -195 -263v-27h94c15 0 22 9 22 27v31l104 -8v-142z" />
    <glyph glyph-name="Delta" unicode="&#x2206;" horiz-adv-x="671" 
d="M658 0h-646l254 665h141zM485 105l-150 423l-149 -423h299z" />
    <glyph glyph-name="product" unicode="&#x220f;" horiz-adv-x="734" 
d="M80 -13v587l-53 3v88h681v-84l-29 -3c-19 -3 -25 -8 -25 -31v-588l53 -4v-87h-252v84l32 4c19 3 24 8 24 31v575h-288v-604l53 -4v-86h-250v84l29 3c19 3 25 8 25 32z" />
    <glyph glyph-name="summation" unicode="&#x2211;" horiz-adv-x="566" 
d="M557 -132h-535v95l253 302l-244 301v99h513v-166l-110 -8v49c0 17 -5 26 -26 26h-221l234 -297l-255 -300h257c19 0 25 6 25 27v51l109 -7v-172z" />
    <glyph glyph-name="uni0394" unicode="&#x394;" horiz-adv-x="671" 
d="M658 0h-646l254 665h141zM485 105l-150 423l-149 -423h299z" />
    <glyph glyph-name="uni03A9" unicode="&#x3a9;" horiz-adv-x="776" 
d="M737 0h-300v158c57 32 132 81 132 204c0 121 -75 186 -174 186c-96 0 -183 -62 -183 -191c0 -126 63 -164 136 -196v-161h-302v142l105 8v-31c0 -20 5 -27 24 -27h96v26c-127 31 -203 105 -203 248c0 181 145 301 328 301c190 0 316 -108 316 -285
c0 -140 -101 -231 -195 -263v-27h94c15 0 22 9 22 27v31l104 -8v-142z" />
    <glyph glyph-name="uni03BC" unicode="&#x3bc;" horiz-adv-x="582" 
d="M509 507v-395c0 -24 9 -32 26 -32c11 0 20 2 35 9l14 -77c-31 -17 -66 -24 -95 -24c-52 0 -76 27 -83 78c-20 -51 -59 -82 -114 -82c-45 0 -79 21 -99 48v-248h-122v723h127v-312c0 -68 24 -112 87 -112c56 0 95 51 95 130v294h129z" />
    <glyph glyph-name="pi" unicode="&#x3c0;" horiz-adv-x="638" 
d="M598 399h-75v-269c0 -35 5 -48 29 -48c13 0 26 2 39 7l17 -80c-27 -13 -67 -22 -102 -22c-88 0 -112 52 -112 113v299h-146v-399h-128v399h-76v108h554v-108z" />
    <glyph glyph-name="mu" unicode="&#xb5;" horiz-adv-x="594" 
d="M509 507v-395c0 -24 9 -32 26 -32c11 0 20 2 35 9l14 -77c-31 -17 -66 -24 -95 -24c-52 0 -76 27 -83 78c-20 -51 -59 -82 -114 -82c-45 0 -79 21 -99 48v-248h-122v723h127v-312c0 -68 24 -112 87 -112c56 0 95 51 95 130v294h129z" />
    <glyph glyph-name="radical" unicode="&#x221a;" horiz-adv-x="672" 
d="M693 731l-262 -745h-128l-136 390l-94 -48l-39 94l211 105l122 -363l192 567h134z" />
    <glyph glyph-name="infinity" unicode="&#x221e;" horiz-adv-x="764" 
d="M725 347c0 -101 -65 -167 -157 -167c-77 0 -141 47 -184 95c-52 -60 -110 -97 -179 -97c-107 0 -167 65 -167 157c0 88 66 163 169 163c77 0 125 -33 178 -104c62 67 111 105 189 105c101 0 151 -72 151 -152zM614 339c0 39 -19 64 -58 64s-65 -29 -96 -66
c27 -36 61 -63 96 -63c39 0 58 32 58 65zM306 335c-31 47 -57 67 -92 67c-44 0 -66 -30 -66 -65c0 -37 22 -64 65 -64c33 0 64 21 93 62z" />
    <glyph glyph-name="integral" unicode="&#x222b;" horiz-adv-x="390" 
d="M373 667l-14 -81c-19 7 -41 12 -62 12c-39 0 -52 -19 -49 -62c0 -15 1 -31 1 -39l27 -441c1 -21 3 -50 3 -69c0 -92 -52 -143 -143 -143c-43 0 -76 6 -115 21l18 83c21 -7 43 -12 66 -12c31 0 46 19 44 58c0 11 -1 29 -1 37l-27 443c-3 23 -3 49 -3 69
c0 92 46 144 142 144c39 0 76 -8 113 -20z" />
    <glyph glyph-name="lozenge" unicode="&#x25ca;" horiz-adv-x="581" 
d="M537 330l-189 -330h-112l-189 328l190 329h110zM404 330l-113 201l-110 -202l114 -207z" />
    <glyph glyph-name="commaaccent" unicode="&#xf6c3;" horiz-adv-x="500" 
d="M269 -183l-52 -110l-66 23l27 94c5 17 -3 26 -22 26h-21l19 83c18 4 34 6 48 6c72 0 99 -55 67 -122z" />
    <glyph glyph-name="revcommaaccent" horiz-adv-x="500" 
d="M178 687l52 110l66 -22l-27 -94c-5 -18 3 -27 22 -27h21l-19 -82c-17 -5 -33 -7 -48 -7c-72 0 -99 55 -67 122z" />
    <glyph glyph-name="tilde.cap" horiz-adv-x="500" 
d="M136 728l-53 28c29 69 64 91 103 91c47 0 97 -28 133 -28c19 0 34 10 45 30l55 -30c-23 -64 -54 -89 -101 -89c-43 0 -94 28 -131 28c-23 0 -35 -9 -51 -30z" />
    <glyph glyph-name="ring.cap" horiz-adv-x="500" 
d="M141 783c0 63 45 107 109 107c69 0 109 -46 109 -102c0 -65 -44 -111 -111 -111c-69 0 -107 46 -107 106zM210 783c0 -27 13 -45 40 -45s39 18 39 45s-12 46 -39 46c-28 0 -40 -19 -40 -46z" />
    <glyph glyph-name="circumflex.cap" horiz-adv-x="500" 
d="M130 704l-44 40l102 116c23 25 40 34 60 34c23 0 39 -11 68 -43l96 -106l-44 -41l-120 86z" />
    <glyph glyph-name="acute.cap" horiz-adv-x="500" 
d="M144 750l167 162l40 -33c15 -12 23 -22 23 -41c0 -23 -13 -39 -45 -54l-152 -79z" />
    <glyph glyph-name="grave.cap" horiz-adv-x="500" 
d="M206 911l168 -161l-33 -45l-155 79c-32 15 -43 32 -43 55c0 16 11 32 28 45z" />
    <glyph glyph-name="dieresis.cap" horiz-adv-x="500" 
d="M281 789c0 40 30 72 77 72c45 0 76 -32 76 -72c0 -43 -30 -73 -77 -73s-76 30 -76 73zM70 789c0 40 30 72 77 72c45 0 76 -32 76 -72c0 -43 -30 -73 -77 -73s-76 30 -76 73z" />
    <glyph glyph-name="caron.cap" horiz-adv-x="500" 
d="M130 894l119 -87l119 87l44 -40l-104 -117c-23 -25 -39 -33 -59 -33s-37 8 -60 33l-104 117z" />
    <glyph glyph-name="macron.cap" horiz-adv-x="500" 
d="M98 730v98h300v-98h-300z" />
    <glyph glyph-name="dotaccent.cap" horiz-adv-x="500" 
d="M167 799c0 43 32 77 83 77c49 0 84 -30 84 -74c0 -47 -35 -79 -84 -79c-51 0 -83 32 -83 76z" />
    <glyph glyph-name="cedilla.cap" horiz-adv-x="500" 
d="M212 3h62l-16 -51c53 -3 94 -28 94 -79c0 -77 -69 -98 -125 -98c-37 0 -71 7 -94 18l18 60c15 -5 44 -13 67 -13c33 0 50 11 50 32c0 29 -40 32 -91 32z" />
    <glyph glyph-name="hungarumlaut.cap" horiz-adv-x="500" 
d="M262 745l169 160l40 -33c15 -11 22 -22 22 -41c0 -23 -13 -38 -45 -54l-154 -77zM56 743l160 167l42 -30c17 -11 25 -25 25 -42c0 -21 -14 -39 -42 -54l-150 -84z" />
    <glyph glyph-name="apostrophe" unicode="&#x2bc;" horiz-adv-x="252" 
d="M79 539l34 211h42c55 0 58 -40 42 -77l-70 -150z" />
    <glyph glyph-name="commaaccent.cap" horiz-adv-x="500" 
d="M269 -183l-52 -110l-66 23l27 94c5 17 -3 26 -22 26h-21l19 83c18 4 34 6 48 6c72 0 99 -55 67 -122z" />
    <glyph glyph-name="breve.cap" horiz-adv-x="500" 
d="M342 882l79 -29c-21 -72 -73 -134 -172 -134c-106 0 -156 68 -169 132l82 31c17 -52 44 -77 91 -77c41 0 68 20 89 77z" />
    <glyph glyph-name="caron.alt" horiz-adv-x="252" 
d="M74 532l32 207c15 1 33 2 49 2c52 0 65 -40 46 -76l-73 -150z" />
    <glyph glyph-name="ogonek.cap" horiz-adv-x="500" 
d="M228 5l86 5l2 -9c-46 -30 -93 -62 -93 -103c0 -19 9 -33 38 -33c20 0 36 4 49 11l24 -72c-19 -11 -59 -23 -98 -23c-84 0 -111 47 -111 92c0 67 61 108 103 132z" />
    <glyph glyph-name="a.alt" horiz-adv-x="516" 
d="M58 357v126c39 17 119 37 194 37c139 0 189 -45 189 -196v-209c0 -23 4 -29 23 -32l27 -3v-80h-167v51c-3 0 -3 1 -4 1c-35 -45 -83 -66 -139 -66c-111 0 -151 69 -151 157c0 122 84 161 204 161c25 0 55 -2 72 -5v49c0 57 -25 74 -72 74c-15 0 -35 -1 -52 -5
c-12 -3 -15 -11 -15 -24v-44zM306 125v89c-11 3 -39 6 -58 6c-45 0 -83 -13 -83 -69c0 -43 19 -64 58 -64c32 0 64 19 83 38z" />
    <glyph glyph-name="e.alt" horiz-adv-x="499" 
d="M272 419c-64 0 -98 -55 -101 -117h169c8 63 -1 117 -68 117zM280 520c116 0 184 -65 184 -192c0 -47 -4 -90 -11 -114h-282c3 -77 43 -120 123 -120c48 0 93 19 126 43l42 -96c-1 -1 -73 -55 -185 -55c-176 0 -245 109 -245 261c0 147 80 273 248 273z" />
    <glyph glyph-name="g.alt" horiz-adv-x="498" 
d="M431 327c0 -107 -83 -164 -185 -164c-23 0 -34 1 -45 4l-36 -57h115c130 0 205 -33 205 -147c0 -107 -82 -182 -258 -182c-168 0 -210 61 -210 129c0 53 29 87 64 115c-28 7 -42 24 -42 47c0 16 7 32 20 48l53 69c-56 33 -78 85 -78 149c0 113 76 182 197 182
c41 0 69 -7 94 -15h165v-83h-84c0 -3 -2 -2 -2 -5c19 -25 27 -57 27 -90zM258 5h-72c-25 -19 -46 -42 -46 -71c0 -28 16 -60 98 -60c63 0 109 20 109 73c0 29 -17 58 -89 58zM236 250c40 0 67 26 67 87c0 72 -25 100 -68 100c-39 0 -67 -28 -67 -92c0 -63 19 -95 68 -95z
" />
    <glyph glyph-name="k.alt" horiz-adv-x="573" 
d="M468 397l-92 -86l136 -221l51 -7v-83h-242v82l25 3c12 1 17 9 8 24l-77 125l-59 -52v-96l42 -3v-83h-236v79l32 4c19 1 23 6 23 33v481c0 21 -5 28 -24 29l-33 3v84h196v-423l141 129v3l-44 5v80h215v-83l-21 -2c-16 -3 -28 -13 -41 -25z" />
    <glyph glyph-name="y.alt" horiz-adv-x="572" 
d="M504 507v-459c0 -131 -27 -265 -242 -265c-59 0 -142 12 -183 34v140l107 8v-45c0 -20 5 -28 20 -33c17 -5 38 -7 57 -7c79 1 111 48 111 139v71c-27 -41 -74 -71 -142 -71c-104 0 -161 54 -161 171v201c0 23 -7 28 -24 29l-28 3v84h192v-288c0 -56 7 -93 72 -93
c52 0 83 34 83 93v172c0 21 -5 28 -24 29l-24 2v85h186z" />
    <glyph glyph-name="ae.alt" horiz-adv-x="763" 
d="M552 520c111 0 179 -65 179 -192c0 -47 -4 -86 -11 -110h-281c3 -80 42 -124 122 -124c48 0 94 19 126 43l43 -96c-1 -1 -72 -55 -186 -55c-92 0 -153 27 -192 78c-49 -54 -116 -78 -173 -78c-101 0 -149 61 -149 157c0 124 84 163 204 163c24 0 52 -2 72 -5v47
c0 59 -25 74 -72 74c-15 0 -36 -1 -52 -6c-13 -4 -15 -12 -15 -24v-43l-109 8v126c39 17 117 37 190 37c79 0 120 -21 143 -65c35 40 92 65 161 65zM540 419c-66 0 -99 -57 -102 -120h170c8 65 -2 120 -68 120zM227 84c29 0 62 13 91 44c-9 27 -15 59 -16 92
c-15 3 -38 6 -54 6c-45 0 -83 -14 -83 -71c0 -51 23 -71 62 -71z" />
    <glyph glyph-name="oe.alt" horiz-adv-x="813" 
d="M589 419c-64 0 -98 -57 -101 -120h169c8 65 -1 120 -68 120zM266 91c65 0 90 60 90 160c0 108 -21 165 -89 165c-65 0 -90 -56 -90 -148c0 -91 12 -177 89 -177zM602 520c111 0 179 -65 179 -192c0 -47 -4 -86 -11 -110h-282c3 -80 43 -124 123 -124c48 0 93 19 126 43
l42 -96c0 -1 -73 -55 -181 -55c-89 0 -145 32 -176 79c-35 -51 -92 -79 -171 -79c-135 0 -219 83 -219 266c0 212 136 268 242 268c46 0 116 -12 156 -81c35 48 91 81 172 81z" />
    <glyph glyph-name="agrave.alt" horiz-adv-x="516" 
d="M58 357v126c39 17 119 37 194 37c139 0 189 -45 189 -196v-209c0 -23 4 -29 23 -32l27 -3v-80h-167v51c-3 0 -3 1 -4 1c-35 -45 -83 -66 -139 -66c-111 0 -151 69 -151 157c0 122 84 161 204 161c25 0 55 -2 72 -5v49c0 57 -25 74 -72 74c-15 0 -35 -1 -52 -5
c-12 -3 -15 -11 -15 -24v-44zM306 125v89c-11 3 -39 6 -58 6c-45 0 -83 -13 -83 -69c0 -43 19 -64 58 -64c32 0 64 19 83 38zM194 798l121 -198l-43 -36l-132 114c-23 19 -30 37 -30 53c0 25 16 39 45 51z" />
    <glyph glyph-name="aacute.alt" horiz-adv-x="516" 
d="M58 357v126c39 17 119 37 194 37c139 0 189 -45 189 -196v-209c0 -23 4 -29 23 -32l27 -3v-80h-167v51c-3 0 -3 1 -4 1c-35 -45 -83 -66 -139 -66c-111 0 -151 69 -151 157c0 122 84 161 204 161c25 0 55 -2 72 -5v49c0 57 -25 74 -72 74c-15 0 -35 -1 -52 -5
c-12 -3 -15 -11 -15 -24v-44zM306 125v89c-11 3 -39 6 -58 6c-45 0 -83 -13 -83 -69c0 -43 19 -64 58 -64c32 0 64 19 83 38zM156 600l120 198l47 -19c25 -11 37 -23 37 -46c0 -19 -11 -38 -32 -55l-129 -114z" />
    <glyph glyph-name="acircumflex.alt" horiz-adv-x="516" 
d="M58 357v126c39 17 119 37 194 37c139 0 189 -45 189 -196v-209c0 -23 4 -29 23 -32l27 -3v-80h-167v51c-3 0 -3 1 -4 1c-35 -45 -83 -66 -139 -66c-111 0 -151 69 -151 157c0 122 84 161 204 161c25 0 55 -2 72 -5v49c0 57 -25 74 -72 74c-15 0 -35 -1 -52 -5
c-12 -3 -15 -11 -15 -24v-44zM306 125v89c-11 3 -39 6 -58 6c-45 0 -83 -13 -83 -69c0 -43 19 -64 58 -64c32 0 64 19 83 38zM120 564l-47 37l103 139c20 27 36 40 63 40s40 -10 61 -37l106 -142l-46 -38l-121 105z" />
    <glyph glyph-name="atilde.alt" horiz-adv-x="516" 
d="M58 357v126c39 17 119 37 194 37c139 0 189 -45 189 -196v-209c0 -23 4 -29 23 -32l27 -3v-80h-167v51c-3 0 -3 1 -4 1c-35 -45 -83 -66 -139 -66c-111 0 -151 69 -151 157c0 122 84 161 204 161c25 0 55 -2 72 -5v49c0 57 -25 74 -72 74c-15 0 -35 -1 -52 -5
c-12 -3 -15 -11 -15 -24v-44zM306 125v89c-11 3 -39 6 -58 6c-45 0 -83 -13 -83 -69c0 -43 19 -64 58 -64c32 0 64 19 83 38zM124 597l-53 28c29 69 64 91 103 91c47 0 97 -28 133 -28c19 0 34 10 45 29l55 -30c-23 -63 -54 -88 -101 -88c-43 0 -94 27 -131 27
c-23 0 -35 -8 -51 -29z" />
    <glyph glyph-name="adieresis.alt" horiz-adv-x="516" 
d="M58 357v126c39 17 119 37 194 37c139 0 189 -45 189 -196v-209c0 -23 4 -29 23 -32l27 -3v-80h-167v51c-3 0 -3 1 -4 1c-35 -45 -83 -66 -139 -66c-111 0 -151 69 -151 157c0 122 84 161 204 161c25 0 55 -2 72 -5v49c0 57 -25 74 -72 74c-15 0 -35 -1 -52 -5
c-12 -3 -15 -11 -15 -24v-44zM306 125v89c-11 3 -39 6 -58 6c-45 0 -83 -13 -83 -69c0 -43 19 -64 58 -64c32 0 64 19 83 38zM270 650c0 40 30 72 77 72c45 0 76 -32 76 -72c0 -43 -30 -73 -77 -73s-76 30 -76 73zM63 650c0 40 30 72 77 72c45 0 76 -32 76 -72
c0 -43 -30 -73 -77 -73s-76 30 -76 73z" />
    <glyph glyph-name="aring.alt" horiz-adv-x="516" 
d="M132 674c0 63 45 107 109 107c69 0 109 -46 109 -102c0 -65 -44 -111 -111 -111c-69 0 -107 46 -107 106zM201 674c0 -27 13 -45 40 -45s39 18 39 45s-12 46 -39 46c-28 0 -40 -19 -40 -46zM58 357v126c39 17 119 37 194 37c139 0 189 -45 189 -196v-209
c0 -23 4 -29 23 -32l27 -3v-80h-167v51c-3 0 -3 1 -4 1c-35 -45 -83 -66 -139 -66c-111 0 -151 69 -151 157c0 122 84 161 204 161c25 0 55 -2 72 -5v49c0 57 -25 74 -72 74c-15 0 -35 -1 -52 -5c-12 -3 -15 -11 -15 -24v-44zM306 125v89c-11 3 -39 6 -58 6
c-45 0 -83 -13 -83 -69c0 -43 19 -64 58 -64c32 0 64 19 83 38z" />
    <glyph glyph-name="egrave.alt" horiz-adv-x="499" 
d="M272 419c-64 0 -98 -55 -101 -117h169c8 63 -1 117 -68 117zM280 520c116 0 184 -65 184 -192c0 -47 -4 -90 -11 -114h-282c3 -77 43 -120 123 -120c48 0 93 19 126 43l42 -96c-1 -1 -73 -55 -185 -55c-176 0 -245 109 -245 261c0 147 80 273 248 273zM236 798l121 -198
l-43 -36l-132 114c-23 19 -30 37 -30 53c0 25 16 39 45 51z" />
    <glyph glyph-name="eacute.alt" horiz-adv-x="496" 
d="M187 600l120 198l47 -19c25 -11 37 -23 37 -46c0 -19 -11 -38 -32 -55l-129 -114zM272 419c-64 0 -98 -55 -101 -117h169c8 63 -1 117 -68 117zM280 520c116 0 184 -65 184 -192c0 -47 -4 -90 -11 -114h-282c3 -77 43 -120 123 -120c48 0 93 19 126 43l42 -96
c-1 -1 -73 -55 -185 -55c-176 0 -245 109 -245 261c0 147 80 273 248 273z" />
    <glyph glyph-name="ecircumflex.alt" horiz-adv-x="499" 
d="M272 419c-64 0 -98 -55 -101 -117h169c8 63 -1 117 -68 117zM280 520c116 0 184 -65 184 -192c0 -47 -4 -90 -11 -114h-282c3 -77 43 -120 123 -120c48 0 93 19 126 43l42 -96c-1 -1 -73 -55 -185 -55c-176 0 -245 109 -245 261c0 147 80 273 248 273zM147 564l-47 37
l103 139c20 27 36 40 63 40s40 -10 61 -37l106 -142l-46 -38l-121 105z" />
    <glyph glyph-name="edieresis.alt" horiz-adv-x="499" 
d="M272 419c-64 0 -98 -55 -101 -117h169c8 63 -1 117 -68 117zM280 520c116 0 184 -65 184 -192c0 -47 -4 -90 -11 -114h-282c3 -77 43 -120 123 -120c48 0 93 19 126 43l42 -96c-1 -1 -73 -55 -185 -55c-176 0 -245 109 -245 261c0 147 80 273 248 273zM299 650
c0 40 30 72 77 72c45 0 76 -32 76 -72c0 -43 -30 -73 -77 -73s-76 30 -76 73zM92 650c0 40 30 72 77 72c45 0 76 -32 76 -72c0 -43 -30 -73 -77 -73s-76 30 -76 73z" />
    <glyph glyph-name="yacute.alt" horiz-adv-x="559" 
d="M203 600l120 198l47 -19c25 -11 37 -23 37 -46c0 -19 -11 -38 -32 -55l-129 -114zM504 507v-459c0 -131 -27 -265 -242 -265c-59 0 -142 12 -183 34v140l107 8v-45c0 -20 5 -28 20 -33c17 -5 38 -7 57 -7c79 1 111 48 111 139v71c-27 -41 -74 -71 -142 -71
c-104 0 -161 54 -161 171v201c0 23 -7 28 -24 29l-28 3v84h192v-288c0 -56 7 -93 72 -93c52 0 83 34 83 93v172c0 21 -5 28 -24 29l-24 2v85h186z" />
    <glyph glyph-name="ydieresis.alt" horiz-adv-x="559" 
d="M504 507v-459c0 -131 -27 -265 -242 -265c-59 0 -142 12 -183 34v140l107 8v-45c0 -20 5 -28 20 -33c17 -5 38 -7 57 -7c79 1 111 48 111 139v71c-27 -41 -74 -71 -142 -71c-104 0 -161 54 -161 171v201c0 23 -7 28 -24 29l-28 3v84h192v-288c0 -56 7 -93 72 -93
c52 0 83 34 83 93v172c0 21 -5 28 -24 29l-24 2v85h186zM305 650c0 40 30 72 77 72c45 0 76 -32 76 -72c0 -43 -30 -73 -77 -73s-76 30 -76 73zM98 650c0 40 30 72 77 72c45 0 76 -32 76 -72c0 -43 -30 -73 -77 -73s-76 30 -76 73z" />
    <glyph glyph-name="amacron.alt" horiz-adv-x="516" 
d="M58 357v126c39 17 119 37 194 37c139 0 189 -45 189 -196v-209c0 -23 4 -29 23 -32l27 -3v-80h-167v51c-3 0 -3 1 -4 1c-35 -45 -83 -66 -139 -66c-111 0 -151 69 -151 157c0 122 84 161 204 161c25 0 55 -2 72 -5v49c0 57 -25 74 -72 74c-15 0 -35 -1 -52 -5
c-12 -3 -15 -11 -15 -24v-44zM306 125v89c-11 3 -39 6 -58 6c-45 0 -83 -13 -83 -69c0 -43 19 -64 58 -64c32 0 64 19 83 38zM96 607v98h300v-98h-300z" />
    <glyph glyph-name="abreve.alt" horiz-adv-x="516" 
d="M58 357v126c39 17 119 37 194 37c139 0 189 -45 189 -196v-209c0 -23 4 -29 23 -32l27 -3v-80h-167v51c-3 0 -3 1 -4 1c-35 -45 -83 -66 -139 -66c-111 0 -151 69 -151 157c0 122 84 161 204 161c25 0 55 -2 72 -5v49c0 57 -25 74 -72 74c-15 0 -35 -1 -52 -5
c-12 -3 -15 -11 -15 -24v-44zM306 125v89c-11 3 -39 6 -58 6c-45 0 -83 -13 -83 -69c0 -43 19 -64 58 -64c32 0 64 19 83 38zM337 733l78 -20c-24 -86 -74 -148 -171 -148c-107 0 -152 72 -168 148l81 19c19 -60 46 -81 91 -81c39 0 69 21 89 82z" />
    <glyph glyph-name="aogonek.alt" horiz-adv-x="516" 
d="M58 357v126c39 17 119 37 194 37c139 0 189 -45 189 -196v-209c0 -23 4 -29 23 -32l27 -3v-80c-61 -28 -106 -63 -106 -102c0 -19 9 -33 38 -33c20 0 36 4 49 11l24 -72c-19 -11 -59 -23 -98 -23c-84 0 -111 47 -111 92c0 64 53 102 94 127h-57v51c-3 0 -3 1 -4 1
c-35 -45 -83 -66 -139 -66c-111 0 -151 69 -151 157c0 122 84 161 204 161c25 0 55 -2 72 -5v49c0 57 -25 74 -72 74c-15 0 -35 -1 -52 -5c-12 -3 -15 -11 -15 -24v-44zM306 125v89c-11 3 -39 6 -58 6c-45 0 -83 -13 -83 -69c0 -43 19 -64 58 -64c32 0 64 19 83 38z" />
    <glyph glyph-name="emacron.alt" horiz-adv-x="499" 
d="M272 419c-64 0 -98 -55 -101 -117h169c8 63 -1 117 -68 117zM280 520c116 0 184 -65 184 -192c0 -47 -4 -90 -11 -114h-282c3 -77 43 -120 123 -120c48 0 93 19 126 43l42 -96c-1 -1 -73 -55 -185 -55c-176 0 -245 109 -245 261c0 147 80 273 248 273zM121 607v98h300
v-98h-300z" />
    <glyph glyph-name="ebreve.alt" horiz-adv-x="496" 
d="M365 733l78 -20c-24 -86 -74 -148 -171 -148c-107 0 -152 72 -168 148l81 19c19 -60 46 -81 91 -81c39 0 69 21 89 82zM272 419c-64 0 -98 -55 -101 -117h169c8 63 -1 117 -68 117zM280 520c116 0 184 -65 184 -192c0 -47 -4 -90 -11 -114h-282c3 -77 43 -120 123 -120
c48 0 93 19 126 43l42 -96c-1 -1 -73 -55 -185 -55c-176 0 -245 109 -245 261c0 147 80 273 248 273z" />
    <glyph glyph-name="edotaccent.alt" horiz-adv-x="499" 
d="M272 419c-64 0 -98 -55 -101 -117h169c8 63 -1 117 -68 117zM280 520c116 0 184 -65 184 -192c0 -47 -4 -90 -11 -114h-282c3 -77 43 -120 123 -120c48 0 93 19 126 43l42 -96c-1 -1 -73 -55 -185 -55c-176 0 -245 109 -245 261c0 147 80 273 248 273zM192 650
c0 43 32 77 83 77c49 0 84 -30 84 -74c0 -47 -35 -79 -84 -79c-51 0 -83 32 -83 76z" />
    <glyph glyph-name="eogonek.alt" horiz-adv-x="496" 
d="M280 520c116 0 184 -65 184 -192c0 -47 -4 -90 -11 -114h-282c3 -77 43 -120 123 -120c48 0 93 19 126 43l42 -96c-1 -1 -32 -22 -83 -45c-48 -21 -94 -59 -94 -98c0 -19 9 -33 38 -33c20 0 36 4 49 11l24 -72c-19 -11 -59 -23 -98 -23c-84 0 -111 47 -111 92
c0 53 36 89 72 114c-163 8 -227 112 -227 260c0 147 80 273 248 273zM272 419c-64 0 -98 -55 -101 -117h169c8 63 -1 117 -68 117z" />
    <glyph glyph-name="ecaron.alt" horiz-adv-x="496" 
d="M389 780l47 -37l-105 -142c-20 -27 -34 -38 -61 -38s-40 10 -61 38l-107 141l47 38l121 -104zM272 419c-64 0 -98 -55 -101 -117h169c8 63 -1 117 -68 117zM280 520c116 0 184 -65 184 -192c0 -47 -4 -90 -11 -114h-282c3 -77 43 -120 123 -120c48 0 93 19 126 43l42 -96
c-1 -1 -73 -55 -185 -55c-176 0 -245 109 -245 261c0 147 80 273 248 273z" />
    <glyph glyph-name="gcircumflex.alt" horiz-adv-x="498" 
d="M431 327c0 -107 -83 -164 -185 -164c-23 0 -34 1 -45 4l-36 -57h115c130 0 205 -33 205 -147c0 -107 -82 -182 -258 -182c-168 0 -210 61 -210 129c0 53 29 87 64 115c-28 7 -42 24 -42 47c0 16 7 32 20 48l53 69c-56 33 -78 85 -78 149c0 113 76 182 197 182
c41 0 69 -7 94 -15h165v-83h-84c0 -3 -2 -2 -2 -5c19 -25 27 -57 27 -90zM258 5h-72c-25 -19 -46 -42 -46 -71c0 -28 16 -60 98 -60c63 0 109 20 109 73c0 29 -17 58 -89 58zM236 250c40 0 67 26 67 87c0 72 -25 100 -68 100c-39 0 -67 -28 -67 -92c0 -63 19 -95 68 -95z
M125 564l-47 37l103 139c20 27 36 40 63 40s40 -10 61 -37l106 -142l-46 -38l-121 105z" />
    <glyph glyph-name="gbreve.alt" horiz-adv-x="498" 
d="M337 733l78 -20c-24 -86 -74 -148 -171 -148c-107 0 -152 72 -168 148l81 19c19 -60 46 -81 91 -81c39 0 69 21 89 82zM431 327c0 -107 -83 -164 -185 -164c-23 0 -34 1 -45 4l-36 -57h115c130 0 205 -33 205 -147c0 -107 -82 -182 -258 -182c-168 0 -210 61 -210 129
c0 53 29 87 64 115c-28 7 -42 24 -42 47c0 16 7 32 20 48l53 69c-56 33 -78 85 -78 149c0 113 76 182 197 182c41 0 69 -7 94 -15h165v-83h-84c0 -3 -2 -2 -2 -5c19 -25 27 -57 27 -90zM258 5h-72c-25 -19 -46 -42 -46 -71c0 -28 16 -60 98 -60c63 0 109 20 109 73
c0 29 -17 58 -89 58zM236 250c40 0 67 26 67 87c0 72 -25 100 -68 100c-39 0 -67 -28 -67 -92c0 -63 19 -95 68 -95z" />
    <glyph glyph-name="gdotaccent.alt" horiz-adv-x="498" 
d="M431 327c0 -107 -83 -164 -185 -164c-23 0 -34 1 -45 4l-36 -57h115c130 0 205 -33 205 -147c0 -107 -82 -182 -258 -182c-168 0 -210 61 -210 129c0 53 29 87 64 115c-28 7 -42 24 -42 47c0 16 7 32 20 48l53 69c-56 33 -78 85 -78 149c0 113 76 182 197 182
c41 0 69 -7 94 -15h165v-83h-84c0 -3 -2 -2 -2 -5c19 -25 27 -57 27 -90zM258 5h-72c-25 -19 -46 -42 -46 -71c0 -28 16 -60 98 -60c63 0 109 20 109 73c0 29 -17 58 -89 58zM236 250c40 0 67 26 67 87c0 72 -25 100 -68 100c-39 0 -67 -28 -67 -92c0 -63 19 -95 68 -95z
M158 650c0 43 32 77 83 77c49 0 84 -30 84 -74c0 -47 -35 -79 -84 -79c-51 0 -83 32 -83 76z" />
    <glyph glyph-name="gcommaaccent.alt" horiz-adv-x="498" 
d="M431 327c0 -107 -83 -164 -185 -164c-23 0 -34 1 -45 4l-36 -57h115c130 0 205 -33 205 -147c0 -107 -82 -182 -258 -182c-168 0 -210 61 -210 129c0 53 29 87 64 115c-28 7 -42 24 -42 47c0 16 7 32 20 48l53 69c-56 33 -78 85 -78 149c0 113 76 182 197 182
c41 0 69 -7 94 -15h165v-83h-84c0 -3 -2 -2 -2 -5c19 -25 27 -57 27 -90zM258 5h-72c-25 -19 -46 -42 -46 -71c0 -28 16 -60 98 -60c63 0 109 20 109 73c0 29 -17 58 -89 58zM236 250c40 0 67 26 67 87c0 72 -25 100 -68 100c-39 0 -67 -28 -67 -92c0 -63 19 -95 68 -95z
M184 687l52 110l66 -22l-27 -94c-5 -18 3 -27 22 -27h21l-19 -82c-17 -5 -33 -7 -48 -7c-72 0 -99 55 -67 122z" />
    <glyph glyph-name="kcommaaccent.alt" horiz-adv-x="573" 
d="M468 397l-92 -86l136 -221l51 -7v-83h-242v82l25 3c12 1 17 9 8 24l-77 125l-59 -52v-96l42 -3v-83h-236v79l32 4c19 1 23 6 23 33v481c0 21 -5 28 -24 29l-33 3v84h196v-423l141 129v3l-44 5v80h215v-83l-21 -2c-16 -3 -28 -13 -41 -25zM324 -183l-52 -110l-66 23l27 94
c5 17 -3 26 -22 26h-21l19 83c18 4 34 6 48 6c72 0 99 -55 67 -122z" />
    <glyph glyph-name="ygrave.alt" horiz-adv-x="559" 
d="M221 798l121 -198l-43 -36l-132 114c-23 19 -30 37 -30 53c0 25 16 39 45 51zM504 507v-459c0 -131 -27 -265 -242 -265c-59 0 -142 12 -183 34v140l107 8v-45c0 -20 5 -28 20 -33c17 -5 38 -7 57 -7c79 1 111 48 111 139v71c-27 -41 -74 -71 -142 -71
c-104 0 -161 54 -161 171v201c0 23 -7 28 -24 29l-28 3v84h192v-288c0 -56 7 -93 72 -93c52 0 83 34 83 93v172c0 21 -5 28 -24 29l-24 2v85h186z" />
    <glyph glyph-name="ycircumflex.alt" horiz-adv-x="559" 
d="M504 507v-459c0 -131 -27 -265 -242 -265c-59 0 -142 12 -183 34v140l107 8v-45c0 -20 5 -28 20 -33c17 -5 38 -7 57 -7c79 1 111 48 111 139v71c-27 -41 -74 -71 -142 -71c-104 0 -161 54 -161 171v201c0 23 -7 28 -24 29l-28 3v84h192v-288c0 -56 7 -93 72 -93
c52 0 83 34 83 93v172c0 21 -5 28 -24 29l-24 2v85h186zM152 564l-47 37l103 139c20 27 36 40 63 40s40 -10 61 -37l106 -142l-46 -38l-121 105z" />
    <glyph glyph-name="aringacute.alt" horiz-adv-x="516" 
d="M136 646c0 63 45 107 109 107c69 0 109 -46 109 -102c0 -65 -44 -111 -111 -111c-69 0 -107 46 -107 106zM205 646c0 -27 13 -45 40 -45s39 18 39 45s-12 46 -39 46c-28 0 -40 -19 -40 -46zM58 357v126c39 17 119 37 194 37c139 0 189 -45 189 -196v-209
c0 -23 4 -29 23 -32l27 -3v-80h-167v51c-3 0 -3 1 -4 1c-35 -45 -83 -66 -139 -66c-111 0 -151 69 -151 157c0 122 84 161 204 161c25 0 55 -2 72 -5v49c0 57 -25 74 -72 74c-15 0 -35 -1 -52 -5c-12 -3 -15 -11 -15 -24v-44zM306 125v89c-11 3 -39 6 -58 6
c-45 0 -83 -13 -83 -69c0 -43 19 -64 58 -64c32 0 64 19 83 38zM154 797l167 162l40 -33c15 -12 23 -22 23 -41c0 -23 -13 -39 -45 -54l-152 -79z" />
    </font>
</defs>
</svg>
